<svg width="24" height="24" viewBox="0 0 24 24" xmlns:xlink="http://www.w3.org/1999/xlink" xmlns="http://www.w3.org/2000/svg"><defs><clipPath id="mask_1"><use xlink:href="#path_1"/></clipPath><path d="M12 0c6.627 0 12 5.373 12 12s-5.373 12-12 12S0 18.627 0 12 5.373 0 12 0z" id="path_1"/></defs><g id="flag" stroke="none"><path d="M12 0c6.627 0 12 5.373 12 12s-5.373 12-12 12S0 18.627 0 12 5.373 0 12 0z" id="Path" fill="#FFF"/><g clip-path="url(#mask_1)"><path d="M0 0h24v8H0V0z" id="Rectangle" fill="#000"/><path d="M0 0h24v8H0V0z" transform="translate(0 8)" id="Rectangle" fill="#D80027"/><path d="M0 0h24v8H0V0z" transform="translate(0 16)" id="Rectangle" fill="#FFDA44"/></g></g></svg>