<svg xmlns="http://www.w3.org/2000/svg" width="24" height="24" viewBox="0 0 24 24"><g fill="none" fill-rule="evenodd"><path fill="#FFF" d="M12 .706C18.238.706 23.294 5.762 23.294 12S18.238 23.294 12 23.294.706 18.238.706 12 5.762.706 12 .706z"/><path fill="#8C0014" fill-rule="nonzero" d="M12 24C5.373 24 0 18.627 0 12S5.373 0 12 0s12 5.373 12 12a12 12 0 01-12 12zm0-22.588C6.152 1.412 1.412 6.152 1.412 12c0 5.848 4.74 10.588 10.588 10.588 5.848 0 10.588-4.74 10.588-10.588A10.588 10.588 0 0012 1.412z"/><path fill="#8C0014" d="M11.226 13.952a.41.41 0 01-.275-.103L9.02 12.106a.345.345 0 01-.01-.515c.15-.145.4-.149.556-.01l.003.003 1.657 1.496 3.205-2.893a.416.416 0 01.556 0 .345.345 0 010 .515l-.007.007-3.48 3.14a.41.41 0 01-.274.103zm4.815 2.5c1.062-.67 1.959-2.238 1.959-3.425V7.724l-4.446-2.018-.003-.001L12 5 6 7.717v5.31c0 .497.159 1.088.448 1.662.378.754.929 1.396 1.511 1.763L12 19l4.04-2.548z"/></g></svg>