<svg xmlns="http://www.w3.org/2000/svg" width="24" height="24" viewBox="0 0 24 24"><g fill="none" fill-rule="evenodd"><path fill="#FFF" d="M12 .706C18.238.706 23.294 5.762 23.294 12S18.238 23.294 12 23.294.706 18.238.706 12 5.762.706 12 .706z"/><path fill="#8C0014" fill-rule="nonzero" d="M12 24C5.373 24 0 18.627 0 12S5.373 0 12 0s12 5.373 12 12a12 12 0 01-12 12zm0-22.588C6.152 1.412 1.412 6.152 1.412 12c0 5.848 4.74 10.588 10.588 10.588 5.848 0 10.588-4.74 10.588-10.588A10.588 10.588 0 0012 1.412z"/><path fill="#8C0014" fill-rule="nonzero" d="M11.455 12V8.565h-1.067c-1 0-1.115-.694-1.115-1.368 0-.7.442-1.115 1.09-1.115.746 0 1.092.616 1.092 1.647v.836h1.09v-.836c0-1.03.346-1.647 1.091-1.647.649 0 1.091.415 1.091 1.115 0 .674-.472 1.368-1.46 1.368h-.722V12h4.364c.66 0 1.091-.272 1.091-.966V9.531c0-.687-.43-.966-1.09-.966h-1.686c.376-.363.594-.856.594-1.413C15.818 5.9 14.812 5 13.636 5c-.872 0-1.327.518-1.636 1.439C11.69 5.519 11.236 5 10.364 5c-1.17 0-2.182.9-2.182 2.152 0 .557.12 1.05.502 1.413H7.09c-.623 0-1.09.279-1.09.965v1.503c0 .694.436.966 1.09.966h4.365zm-.005 6v-5H7v3.63c0 .9.537 1.37 1.452 1.37h2.998zm1.1-5v5h2.998c.915 0 1.452-.47 1.452-1.37V13h-4.45z"/></g></svg>