<svg width="24" height="24" xmlns="http://www.w3.org/2000/svg"><path d="M12 .706C18.238.706 23.294 5.762 23.294 12S18.238 23.294 12 23.294.706 18.238.706 12 5.762.706 12 .706z" fill="#FFF"/><path d="M0 12c0 6.627 5.373 12 12 12a12 12 0 0012-12c0-6.627-5.373-12-12-12S0 5.373 0 12zm1.412 0C1.412 6.152 6.152 1.412 12 1.412A10.588 10.588 0 0122.588 12c0 5.848-4.74 10.588-10.588 10.588-5.848 0-10.588-4.74-10.588-10.588z" fill="#8C0014" fill-rule="evenodd"/><path d="M15.374 10.694a2.026 2.026 0 011.412.459l.042.064c.508.473.508 1.376.508 1.976a3.529 3.529 0 01-.515 2.188c-.3.316-.73.475-1.165.43h-.882a2.77 2.77 0 01-.339.05l-.317.043a.974.974 0 00-.382.268c-.065.07-.136.133-.211.19l-.212.156a3.786 3.786 0 01-.706.444c-.322.121-.66.197-1.002.226-.163.022-.325.043-.48.078h-.283c-.268.04-.54.06-.811.064a2.64 2.64 0 01-.495-.043 1.165 1.165 0 01-.882-1.115 1.313 1.313 0 01-.706-.642 1.207 1.207 0 01-.148-.862 1.49 1.49 0 01-.65-1.553 1.13 1.13 0 01-.437-.755 1.412 1.412 0 01.346-1.228 2.435 2.435 0 011.412-.544l.197-.007.19-.05c.622-.147 1.067-.289 1.067-.804a3.127 3.127 0 00-.226-.995 3.226 3.226 0 01-.254-1.242 2.485 2.485 0 01.924-1.92c.215-.172.48-.27.756-.276.38-.016.72.233.819.6.068.253.087.517.056.777v.204c-.018.332.033.663.148.975.222.549.535 1.057.925 1.503l.183.226c.24.328.506.635.798.918.146.105.316.172.494.197a.791.791 0 01.148 0h.678zm-.31 3.734a.784.784 0 01-.826.65.882.882 0 00-.509.113 1.172 1.172 0 00-.465.317 1.27 1.27 0 01-.149.134l-.197.149a3.866 3.866 0 01-.586.41l-.374.084-.247.056c-.517.091-1.037.155-1.56.19a2.207 2.207 0 01-.523-.041.297.297 0 01-.219-.142.466.466 0 010-.402.318.318 0 000-.29.48.48 0 00-.38-.19H8.95c-.106 0-.212-.092-.29-.24a.593.593 0 01-.042-.515.332.332 0 00.035-.36.304.304 0 00-.247-.198.706.706 0 01-.473-.466.621.621 0 01.05-.501.501.501 0 00.049-.424.374.374 0 00-.254-.211.395.395 0 01-.318-.396.635.635 0 01.381-.607c.328-.14.676-.226 1.031-.254.2-.027.397-.064.593-.113a1.539 1.539 0 001.186-1.313 3.261 3.261 0 00-.24-1.256 3.402 3.402 0 01-.233-.988c.002-.358.091-.71.261-1.024.17-.268.452-.55.706-.55h.035c.141 0 .134.289.12.536v.064c-.042.37-.033.746.028 1.115.145.51.385.99.706 1.412l.19.282c.31.446.65.87 1.017 1.27a1.2 1.2 0 00.247.255c.018.04.051.07.092.084.238.186.52.305.819.346.233.05.438.085.536.261.173.403.246.841.212 1.278v.092c.024.457-.017.916-.12 1.362l.036.021zm1.503-1.25v-.161l.057-.015v-.028c0-.423 0-1.036-.29-1.284-.18-.14-.4-.222-.628-.233.111.24.18.498.205.762.07.593.07 1.193 0 1.786a3.155 3.155 0 01-.255 1.03c.276 0 .48-.014.58-.169a3.07 3.07 0 00.331-1.687z" fill="#8C0014" fill-rule="evenodd"/></svg>