<svg width="24" height="24" xmlns="http://www.w3.org/2000/svg"><path d="M12 .706C18.238.706 23.294 5.762 23.294 12S18.238 23.294 12 23.294.706 18.238.706 12 5.762.706 12 .706z" fill="#FFF"/><path d="M0 12c0 6.627 5.373 12 12 12a12 12 0 0012-12c0-6.627-5.373-12-12-12S0 5.373 0 12zm1.412 0C1.412 6.152 6.152 1.412 12 1.412A10.588 10.588 0 0122.588 12c0 5.848-4.74 10.588-10.588 10.588-5.848 0-10.588-4.74-10.588-10.588z" fill="#8C0014" fill-rule="evenodd"/><path d="M17.76 13.023l.904-3.649.974.014-1.518 5.224h-.762l-.847-3.452-.862 3.452h-.762l-1.525-5.224h.989l.917 3.65.897-3.65h.706l.889 3.635zM5.499 9.388l2.117 3.798V9.388h.953v5.224H7.49l-2.174-3.798v3.798h-.967V9.388h1.15zm4.292 5.21h2.823v-.89h-1.856v-1.235h1.764v-.904h-1.764v-1.277H12.6v-.904H9.776l.015 5.21z" fill="#8C0014" fill-rule="evenodd"/></svg>