<svg width="24" height="24" viewBox="0 0 24 24" xmlns:xlink="http://www.w3.org/1999/xlink" xmlns="http://www.w3.org/2000/svg"><g id="new_miele-_1_" stroke="none"><path d="M11.294 0c6.238 0 11.294 5.057 11.294 11.294 0 6.238-5.056 11.294-11.294 11.294C5.057 22.588 0 17.532 0 11.294 0 5.057 5.057 0 11.294 0z" transform="translate(.706 .706)" id="Path" fill="#FFF"/><path d="M0 12c0 6.627 5.373 12 12 12a12 12 0 0012-12c0-6.627-5.373-12-12-12S0 5.373 0 12zm1.412 0C1.412 6.152 6.152 1.412 12 1.412A10.588 10.588 0 0122.588 12c0 5.848-4.74 10.588-10.588 10.588-5.848 0-10.588-4.74-10.588-10.588z" id="Shape" fill="#8C0014" fill-rule="evenodd"/><path d="M13.412 3.65L14.315 0l.974.014-1.517 5.224h-.763l-.847-3.452-.86 3.452h-.763L9.014.014h.988l.918 3.65.896-3.65h.706l.89 3.635zM1.15.013l2.117 3.798V.014h.953v5.224H3.14L.967 1.44v3.798H0V.014h1.15zm4.291 5.21h2.824v-.89H6.409V3.1h1.765v-.904H6.41V.918h1.843V.014H5.428l.014 5.21z" transform="translate(4.348 9.374)" id="Shape" fill="#8C0014" fill-rule="evenodd"/></g></svg>