<svg width="24" height="24" viewBox="0 0 24 24" xmlns:xlink="http://www.w3.org/1999/xlink" xmlns="http://www.w3.org/2000/svg"><defs><clipPath id="clip_1"><use xlink:href="#artboard_1" clip-rule="evenodd"/></clipPath><path id="artboard_1" d="M0 0h24v24H0z"/></defs><g id="sale" clip-path="url(#clip_1)" stroke="none"><path d="M11.294 0c6.238 0 11.294 5.057 11.294 11.294 0 6.238-5.056 11.294-11.294 11.294C5.057 22.588 0 17.532 0 11.294 0 5.057 5.057 0 11.294 0z" transform="translate(.706 .706)" id="Path" fill="#FFF"/><path d="M0 12c0 6.627 5.373 12 12 12a12 12 0 0012-12c0-6.627-5.373-12-12-12S0 5.373 0 12zm1.412 0C1.412 6.152 6.152 1.412 12 1.412A10.588 10.588 0 0122.588 12c0 5.848-4.74 10.588-10.588 10.588-5.848 0-10.588-4.74-10.588-10.588z" id="Shape" fill="#8C0014" fill-rule="evenodd"/><path d="M2.786 10.108L9.842.686 8.932 0l-7.07 9.464.924.644zm-.028-5.082q1.204 0 1.981-.693.777-.693.777-1.813T4.739.714Q3.962.028 2.758.028 1.554.028.777.714 0 1.4 0 2.52t.77 1.82q.784.686 1.988.686zm-.889-1.631q.357.329.889.329.56 0 .91-.329t.35-.875q0-.532-.357-.861-.357-.329-.903-.329-.532 0-.889.329t-.357.861q0 .546.357.875zm7.077 6.699q1.204 0 1.981-.693.777-.693.777-1.813t-.777-1.806q-.777-.686-1.981-.686-1.204 0-1.981.686-.777.686-.777 1.806t.77 1.82q.784.686 1.988.686zm-.889-1.631c.238.22.534.329.889.329q.56 0 .91-.329c.233-.22.35-.511.35-.875q0-.532-.357-.861c-.238-.22-.539-.329-.903-.329q-.532 0-.889.329t-.357.861q0 .546.357.875z" transform="translate(6 7)" id="%" fill="#8C0014" fill-rule="evenodd"/></g></svg>