<svg width="24" height="24" xmlns:xlink="http://www.w3.org/1999/xlink" xmlns="http://www.w3.org/2000/svg"><defs><clipPath id="b"><use xlink:href="#a" clip-rule="evenodd"/></clipPath><path id="a" d="M0 0h24v24H0z"/></defs><g clip-path="url(#b)"><path d="M12 .706C18.238.706 23.294 5.762 23.294 12S18.238 23.294 12 23.294.706 18.238.706 12 5.762.706 12 .706z" fill="#FFF"/><path d="M0 12c0 6.627 5.373 12 12 12a12 12 0 0012-12c0-6.627-5.373-12-12-12S0 5.373 0 12zm1.412 0C1.412 6.152 6.152 1.412 12 1.412A10.588 10.588 0 0122.588 12c0 5.848-4.74 10.588-10.588 10.588-5.848 0-10.588-4.74-10.588-10.588z" fill="#8C0014" fill-rule="evenodd"/><path d="M8.786 17.108l7.056-9.422-.91-.686-7.07 9.464.924.644zm-.028-5.082q1.204 0 1.981-.693.777-.693.777-1.813t-.777-1.806q-.777-.686-1.981-.686-1.204 0-1.981.686Q6 8.4 6 9.52t.77 1.82q.784.686 1.988.686zm-.889-1.631q.357.329.889.329.56 0 .91-.329t.35-.875q0-.532-.357-.861-.357-.329-.903-.329-.532 0-.889.329t-.357.861q0 .546.357.875zm7.077 6.699q1.204 0 1.981-.693.777-.693.777-1.813t-.777-1.806q-.777-.686-1.981-.686-1.204 0-1.981.686-.777.686-.777 1.806t.77 1.82q.784.686 1.988.686zm-.889-1.631c.238.22.534.329.889.329q.56 0 .91-.329c.233-.22.35-.511.35-.875q0-.532-.357-.861c-.238-.22-.539-.329-.903-.329q-.532 0-.889.329t-.357.861q0 .546.357.875z" fill="#8C0014" fill-rule="evenodd"/></g></svg>