<svg width="24" height="24" xmlns:xlink="http://www.w3.org/1999/xlink" xmlns="http://www.w3.org/2000/svg"><defs><clipPath id="b"><use xlink:href="#a" clip-rule="evenodd"/></clipPath><path id="a" d="M0 0h24v24H0z"/></defs><g clip-path="url(#b)"><path d="M12 .706C18.238.706 23.294 5.762 23.294 12S18.238 23.294 12 23.294.706 18.238.706 12 5.762.706 12 .706z" fill="#FFF"/><path d="M0 12c0 6.627 5.373 12 12 12a12 12 0 0012-12c0-6.627-5.373-12-12-12S0 5.373 0 12zm1.412 0C1.412 6.152 6.152 1.412 12 1.412A10.588 10.588 0 0122.588 12c0 5.848-4.74 10.588-10.588 10.588-5.848 0-10.588-4.74-10.588-10.588z" fill="#8C0014" fill-rule="evenodd"/><path d="M4 4h16v16H4V4z" fill="none"/><path d="M17.578 5.978c-.084-.077-.187-.134-.282-.2h-.146c-.037.017-.075.03-.11.05-.65.385-1.304.766-1.952 1.157-.2.121-.223.365-.07.542.05.057.104.109.166.172l-2.428 2.418 1.019 1.01L16.212 8.7c.072.074.127.132.185.188.222.215.475.186.637-.079.37-.602.736-1.206 1.103-1.81.131-.215.112-.36-.066-.538-.163-.162-.323-.327-.493-.482zm-8.487-.06c-.175-.056-.361-.08-.542-.118h-.39c-.13.024-.26.05-.39.072-.164.027-.29.1-.343.266-.053.17.022.296.138.411.304.302.61.603.91.91.333.34.303.834-.06 1.112-.253.193-.639.2-.878-.012-.263-.233-.506-.489-.756-.735-.096-.094-.187-.191-.285-.282-.234-.218-.553-.125-.625.185-.04.172-.062.348-.092.523v.218c.016.111.027.224.05.334.192.941.74 1.59 1.637 1.933.515.197 1.049.172 1.578.044.111-.027.181-.005.263.077 1.28 1.284 2.562 2.566 3.848 3.844.087.085.106.159.078.273-.1.4-.133.807-.05 1.213a2.526 2.526 0 003.11 1.95c.31-.079.403-.397.184-.63-.095-.1-.195-.194-.292-.292-.244-.247-.498-.487-.728-.746-.215-.242-.206-.622-.009-.876.28-.36.78-.386 1.12-.054.314.309.621.626.937.934.234.227.56.13.636-.184.088-.366.114-.736.031-1.105-.219-.975-.8-1.631-1.757-1.938-.479-.153-.967-.118-1.451-.008l-.015.004c-.074.017-.14.032-.214-.042a1315.845 1315.845 0 00-3.916-3.914c-.06-.06-.07-.113-.047-.19.135-.473.155-.951.015-1.424-.258-.875-.822-1.468-1.695-1.752zm-3.025 9.984c-.163.204-.232.447-.288.696v.339c.008.03.018.06.024.092.071.362.247.663.542.887.6.456 1.39.399 1.936-.145 1.129-1.124 2.254-2.252 3.38-3.38.019-.018.034-.04.036-.042l-2.05-2.05-.034.032c-1.13 1.13-2.259 2.258-3.388 3.389a2.29 2.29 0 00-.158.182zm1.9.716c-.084.085-.174.157-.252.154-.197-.002-.307-.067-.374-.196a.343.343 0 01.028-.376.72.72 0 01.08-.09c.703-.705 1.408-1.409 2.11-2.114.113-.112.236-.182.4-.135a.36.36 0 01.2.553.753.753 0 01-.088.1c-.7.702-1.402 1.402-2.103 2.104z" fill="#8C0014" fill-rule="evenodd"/></g></svg>