<svg width="24" height="24" viewBox="0 0 24 24" xmlns:xlink="http://www.w3.org/1999/xlink" xmlns="http://www.w3.org/2000/svg"><defs><clipPath id="clip_1"><use xlink:href="#artboard_1" clip-rule="evenodd"/></clipPath><path id="artboard_1" d="M0 0h24v24H0z"/></defs><g id="truck" clip-path="url(#clip_1)"><path d="M11.294 0c6.238 0 11.294 5.057 11.294 11.294 0 6.238-5.056 11.294-11.294 11.294C5.057 22.588 0 17.532 0 11.294 0 5.057 5.057 0 11.294 0z" transform="translate(.706 .706)" id="Path" fill="#FFF" stroke="none"/><path d="M0 12c0 6.627 5.373 12 12 12a12 12 0 0012-12c0-6.627-5.373-12-12-12S0 5.373 0 12zm1.412 0C1.412 6.152 6.152 1.412 12 1.412A10.588 10.588 0 0122.588 12c0 5.848-4.74 10.588-10.588 10.588-5.848 0-10.588-4.74-10.588-10.588z" id="Shape" fill="#8C0014" fill-rule="evenodd" stroke="none"/><g id="delivery-truck" transform="translate(4 4)"><g id="delivery-truck" stroke="none"><path d="M0 0h16v16H0V0z" id="Rectangle-4" fill="none"/><path d="M.561.709v7.044c0 .13.103.236.229.236h7.717a.232.232 0 00.228-.236V.71A.697.697 0 008.05 0H1.246a.697.697 0 00-.685.709zM16 8.933v.716c0 .13-.102.237-.228.237h-1.849c-.132-.939-.912-1.662-1.855-1.662s-1.723.723-1.855 1.662H6.49a1.958 1.958 0 00-.631-1.19h3.529V1.94c0-.261.204-.473.457-.473H12a1.81 1.81 0 011.514.832l1.39 2.13c.203.313.312.68.312 1.058v3.21h.556c.126 0 .228.106.228.237zm-3.427-6.084l1.11 1.634c.107.156 0 .372-.186.372h-2.844a.232.232 0 01-.229-.236V2.985c0-.13.103-.236.229-.236h1.733c.074 0 .144.037.187.1zM.228 8.696h3.184a1.958 1.958 0 00-.632 1.19H.228A.232.232 0 010 9.649v-.716c0-.131.102-.237.228-.237zm4.407 2.94c.785 0 1.42-.658 1.42-1.47 0-.812-.635-1.47-1.42-1.47-.784 0-1.42.658-1.42 1.47 0 .812.636 1.47 1.42 1.47zm8.854-1.47c0 .812-.637 1.47-1.421 1.47-.785 0-1.42-.658-1.42-1.47 0-.812.635-1.47 1.42-1.47.784 0 1.42.658 1.42 1.47zm-8.144 0a.723.723 0 00-.71-.735c-.392 0-.71.33-.71.735 0 .406.318.735.71.735.392 0 .71-.329.71-.735zm6.723-.735c.392 0 .71.33.71.735a.723.723 0 01-.71.735.723.723 0 01-.71-.735c0-.406.318-.735.71-.735z" transform="translate(0 1.778)" id="Shape" fill="#8C0014" fill-rule="evenodd"/></g></g></g></svg>