<svg width="24" height="24" xmlns:xlink="http://www.w3.org/1999/xlink" xmlns="http://www.w3.org/2000/svg"><defs><clipPath id="b"><use xlink:href="#a" clip-rule="evenodd"/></clipPath><path id="a" d="M0 0h24v24H0z"/></defs><g clip-path="url(#b)"><path d="M12 .706C18.238.706 23.294 5.762 23.294 12S18.238 23.294 12 23.294.706 18.238.706 12 5.762.706 12 .706z" fill="#FFF"/><path d="M0 12c0 6.627 5.373 12 12 12a12 12 0 0012-12c0-6.627-5.373-12-12-12S0 5.373 0 12zm1.412 0C1.412 6.152 6.152 1.412 12 1.412A10.588 10.588 0 0122.588 12c0 5.848-4.74 10.588-10.588 10.588-5.848 0-10.588-4.74-10.588-10.588z" fill="#8C0014" fill-rule="evenodd"/><path d="M4 4h16v16H4V4z" fill="none"/><path d="M4.561 6.487v7.044c0 .13.103.236.229.236h7.717a.232.232 0 00.228-.236V6.487a.697.697 0 00-.685-.71H5.246a.697.697 0 00-.685.71zM20 14.71v.717c0 .13-.102.236-.228.236h-1.849c-.132-.938-.912-1.661-1.855-1.661s-1.723.723-1.855 1.661H10.49a1.958 1.958 0 00-.631-1.189h3.529V7.716c0-.26.204-.472.457-.472H16a1.81 1.81 0 011.514.832l1.39 2.13c.203.312.312.68.312 1.058v3.21h.556c.126 0 .228.106.228.236zm-3.427-6.083l1.11 1.633c.107.157 0 .373-.186.373h-2.844a.232.232 0 01-.229-.237V8.763c0-.13.103-.237.229-.237h1.733a.23.23 0 01.187.1zM4.228 14.474h3.184a1.958 1.958 0 00-.632 1.19H4.228A.232.232 0 014 15.426v-.717c0-.13.102-.236.228-.236zm4.407 2.94c.785 0 1.42-.658 1.42-1.47 0-.812-.635-1.47-1.42-1.47-.784 0-1.42.658-1.42 1.47 0 .812.636 1.47 1.42 1.47zm8.854-1.47c0 .812-.637 1.47-1.421 1.47-.785 0-1.42-.658-1.42-1.47 0-.812.635-1.47 1.42-1.47.784 0 1.42.658 1.42 1.47zm-8.144 0a.723.723 0 00-.71-.735c-.392 0-.71.33-.71.735 0 .406.318.735.71.735.392 0 .71-.329.71-.735zm6.723-.735c.392 0 .71.33.71.735a.723.723 0 01-.71.735.723.723 0 01-.71-.735c0-.406.318-.735.71-.735z" fill="#8C0014" fill-rule="evenodd"/></g></svg>