<svg width="34" height="34" xmlns="http://www.w3.org/2000/svg"><defs><linearGradient x1="-.213" y1=".5" x2=".788" y2=".5" id="a"><stop offset="0" stop-color="#FFF"/><stop offset=".4" stop-color="#FFF"/><stop offset=".53" stop-color="#E2F2FA"/><stop offset=".82" stop-color="#98D0ED"/><stop offset="1" stop-color="#65B8E4"/></linearGradient><linearGradient x1="-.034" y1=".623" x2="1.021" y2=".295" id="b"><stop offset="0" stop-color="#FFF"/><stop offset=".09" stop-color="#F2F9FC"/><stop offset=".25" stop-color="#D1E9F5"/><stop offset=".47" stop-color="#9BD0EA"/><stop offset=".73" stop-color="#51ADDB"/><stop offset="1" stop-color="#0086CA"/></linearGradient><linearGradient x1=".634" y1="1.029" x2=".253" y2="-.01" id="c"><stop offset="0" stop-color="#FFF"/><stop offset=".36" stop-color="#D8EAF7"/><stop offset="1" stop-color="#8AC1E8"/></linearGradient><linearGradient x1="1.028" y1="-66.873" x2="-.013" y2="-67.221" id="d"><stop offset="0" stop-color="#FFF"/><stop offset=".36" stop-color="#D8EAF7"/><stop offset="1" stop-color="#8AC1E8"/></linearGradient><linearGradient x1=".375" y1="-30.066" x2=".726" y2="-31.112" id="e"><stop offset="0" stop-color="#FFF"/><stop offset=".36" stop-color="#D8EAF7"/><stop offset="1" stop-color="#8AC1E8"/></linearGradient></defs><path d="M26.35 0H7.65A7.65 7.65 0 000 7.65v18.7A7.65 7.65 0 007.65 34h18.7A7.65 7.65 0 0034 26.35V7.65A7.65 7.65 0 0026.35 0zm0 1.275a6.375 6.375 0 016.375 6.375v18.7a6.375 6.375 0 01-6.375 6.375H7.65a6.375 6.375 0 01-6.375-6.375V7.65A6.375 6.375 0 017.65 1.275h18.7zM5.801 22.525c0-.982-.123-1.7-1.1-1.7-.978 0-1.101.697-1.101 1.7 0 1.003.123 1.7 1.1 1.7h.23l.2-.051.386.4.387-.349-.348-.353c.207-.404.294-.86.25-1.313l-.004-.034zm13.18 0c0-1.003.123-1.7 1.1-1.7.978 0 1.101.697 1.101 1.7 0 1.003-.123 1.7-1.1 1.7-.978 0-1.102-.697-1.102-1.7zm-6.108.4c0 .697-.178 1.3-1.028 1.3l-.009.038c-.977 0-1.1-.697-1.1-1.7 0-1.003.165-1.7 1.1-1.7s1.003.684 1.003 1.156h-.654c0-.471-.043-.675-.391-.675-.349 0-.425.267-.425 1.245 0 .977.17 1.156.425 1.156s.425-.123.425-.82h.654zm16.864-.375c.447.056.523.302.523.986l-.009-.004c.005.345.022.519.145.582v.026h-.706a.638.638 0 01-.08-.34v-.6c-.009-.271-.123-.424-.387-.424h-.348v1.364h-.655v-3.239h1.207a.77.77 0 01.85.85c0 .434-.174.723-.54.8zM17 22.852h.349a.905.905 0 001.028-.973.85.85 0 00-.888-.969h-1.135v3.234H17v-1.292zm-9.486.876c.306 0 .382-.238.382-.561l-.008-2.257h.655v2.274a.927.927 0 01-1.033 1.041.914.914 0 01-1.033-1.058V20.91h.654v2.257c0 .323.077.56.383.56zm1.819-2.818h.655v3.238h-.655V20.91zm4.905 2.274l.238-.366.667 1.326h.735l-.978-1.848.876-1.386h-.706l-.824 1.296h-.008V20.91h-.655v3.234h.655v-.96zm9.86.119h.008l.357-2.393h.625l-.587 3.234h-.73l-.362-2.346h-.013l-.361 2.346h-.727l-.59-3.234h.624l.357 2.393h.009l.382-2.393h.625l.383 2.393zm2.244-.561h1.088v-.536h-1.088v-.76h1.155v-.536h-1.806v3.234h1.853v-.535h-1.203v-.867zm-6.711-.238c0 .871.064 1.202.45 1.202.387 0 .45-.34.45-1.202 0-.863-.063-1.199-.45-1.199-.386 0-.45.328-.45 1.199zm-15.368.021c0 .861.062 1.195.437 1.203.376-.008.438-.362.438-1.203 0-.85-.038-1.198-.425-1.198-.386 0-.45.327-.45 1.198zm24.59-.208h.276a.425.425 0 00.49-.485.425.425 0 00-.456-.45h-.31v.935zM17 21.386h.272c.327 0 .455.183.455.497a.424.424 0 01-.425.485H17v-.982zm3.052 6.422l-.672-.29c-.37-.157-.425-.318-.425-.586a.425.425 0 01.493-.501c.331 0 .472.233.472.642h.85v-.12c0-.85-.561-1.16-1.335-1.16a1.203 1.203 0 00-1.334 1.275c0 .718.357 1.041 1.13 1.305.574.2.774.344.774.735a.497.497 0 01-.463.532h-.077c-.459 0-.574-.26-.574-.663v-.128h-.85v.174c0 .8.387 1.275 1.373 1.275s1.496-.425 1.496-1.321c0-.527-.17-.85-.82-1.144l-.038-.025zm-4.85-1.934l-1.139 4.301h.905l.2-.914h1.148l.2.914h.909l-1.148-4.314-1.075.013zm-2.847 3.188h-.013l-.506-3.188H11l-.506 3.188h-.013l-.476-3.188h-.832l.786 4.314h.969l.484-3.133h.013l.485 3.133h.973l.782-4.314h-.833l-.476 3.188zm10.276-1.539h1.016v-1.649h.871v4.314h-.871V28.27h-1.016v1.917h-.871v-4.314h.871v1.649zM15.3 28.564l.425-1.938.425 1.938h-.85z" fill="#8C0014" fill-rule="evenodd"/><path d="M0 0h13.6v13.6H0V0z" transform="translate(10.2 4.985)" fill="url(#a)"/><path d="M23.8 11.785a6.8 6.8 0 11-13.6 0 6.8 6.8 0 0113.6 0" fill="#FFF"/><path d="M9.775 11.785a7.225 7.225 0 1114.45 0 7.225 7.225 0 01-14.45 0m.85 0a6.375 6.375 0 1012.75 0 6.375 6.375 0 00-12.75 0" fill="#475155"/><path d="M.004 2.733a3.668 3.668 0 014.148-1.025l.213.077s.297-.731.654-1.62A3.731 3.731 0 003.927 0C2.567 0 1.092.765 0 2.737" transform="translate(14.165 6.617)" fill="url(#b)"/><path d="M2.24 4.845a3.672 3.672 0 01-.616-3.74v-.034L.298 0c-.913 2.295.425 3.885 1.93 4.845" transform="translate(11.92 9.265)" fill="url(#c)"/><path d="M2.503 1.054c-.464 0-.924-.088-1.356-.26L1.085.766 0 2.227a4.581 4.581 0 001.7.353c1.734 0 2.75-1.31 3.4-2.58a3.685 3.685 0 01-2.55 1.05" transform="translate(14.45 14.348)" fill="url(#d)"/><path d="M0 0a3.672 3.672 0 01.986 4.16l-.03.06 1.458 1.114C3.085 3.689 2.652 1.509 0 0z" transform="translate(19.35 8.857)" fill="url(#e)"/><path d="M17.425 11.955a.501.501 0 11-.905-.425c.114-.25 2.053-3.995 2.303-3.884.251.11-1.275 4.046-1.398 4.292" fill="#E1000F"/></svg>