<svg width="49" height="49" xmlns:xlink="http://www.w3.org/1999/xlink" xmlns="http://www.w3.org/2000/svg"><g id="museum-2" transform="translate(.5 .5)" fill="#8C0014" stroke="none"><path d="M18 36c9.941 0 18-8.059 18-18S27.941 0 18 0 0 8.059 0 18s8.059 18 18 18z" transform="translate(0 6)" id="Oval" fill-opacity=".149" fill-rule="evenodd"/><path d="M.883 13.26a1.943 1.943 0 00-.03.286v1.975a1.958 1.958 0 001.27 1.827v2.905a1.827 1.827 0 001.74 1.819v16.785a1.827 1.827 0 00-1.74 1.818v2.897a1.98 1.98 0 00-1.27 1.844v1.932c0 .36.292.652.652.652h44.002c.36 0 .652-.292.652-.652v-1.932a1.979 1.979 0 00-1.27-1.844v-2.914a1.827 1.827 0 00-1.74-1.818V22.072a1.827 1.827 0 001.74-1.819v-2.905a1.958 1.958 0 001.27-1.827v-1.962a1.9 1.9 0 00-.03-.287.65.65 0 10.526-1.187L23.806.075a.653.653 0 00-.609 0L.348 12.072a.653.653 0 00.535 1.187zm2.545 5.219v-1.005h7.525v.996l-7.525.009zm16.755 3.597v16.78a1.827 1.827 0 00-1.74 1.819v2.775h-6.194v-2.775a1.827 1.827 0 00-1.74-1.818V22.072a1.827 1.827 0 001.74-1.819v-2.78h6.185v2.776a1.827 1.827 0 001.74 1.823l.009.004zm-.435-3.597v-1.005h7.525v.996l-7.525.009zm16.755 3.597v16.78a1.827 1.827 0 00-1.74 1.819v2.775h-6.194v-2.775a1.827 1.827 0 00-1.74-1.818V22.072a1.827 1.827 0 001.74-1.819v-2.78h6.185v2.776a1.827 1.827 0 001.74 1.823l.009.004zm-.435-3.597v-1.005h7.525v.996l-7.525.009zm7.525 23.975v.996h-7.534v-.996h7.534zm-16.32 0v.996h-7.534v-.996h7.534zM20.827 20.78h-.566a.522.522 0 01-.522-.522v-.474h7.525v.474a.522.522 0 01-.522.522h-5.915zm4.702 1.305v16.763h-4.05V22.085h4.05zm-4.702 18.068h5.915c.289 0 .522.234.522.522v.474H19.74v-.474c0-.288.234-.522.522-.522h.566zm-9.883 2.301v.996H3.42v-.996h7.525zM3.42 20.271v-.487h7.525v.474a.522.522 0 01-.522.522H3.928a.522.522 0 01-.509-.527v.018zm5.785 1.827v16.75H5.16V22.085l4.045.013zM3.42 40.688c0-.288.234-.522.522-.522h6.481c.289 0 .522.234.522.522v.474H3.42v-.474zm41.435 4.755v1.278H2.15v-1.278c0-.373.302-.675.674-.675H44.18c.367 0 .667.294.674.661v.014zm-1.27-4.755v.474H36.06v-.474c0-.288.234-.522.522-.522h6.494c.278.007.502.23.51.509v.013zM37.8 38.861V22.085h4.05v16.763l-4.05.013zm5.785-18.59a.522.522 0 01-.522.522h-6.477a.522.522 0 01-.522-.522v-.487h7.525l-.004.487zM23.502 1.38l19.43 10.212H4.072L23.502 1.38zM2.149 13.558c0-.36.292-.652.652-.652h41.4c.361 0 .653.292.653.652v1.975c0 .36-.292.652-.652.652h-41.4a.652.652 0 01-.653-.652V13.56z" transform="translate(.757)" id="Shape"/></g></svg>