<svg width="49" height="49" xmlns:xlink="http://www.w3.org/1999/xlink" xmlns="http://www.w3.org/2000/svg"><g id="appliances-2" transform="translate(.5 .5)" fill="#8C0014" fill-rule="evenodd" stroke="none"><path d="M18 36c9.941 0 18-8.059 18-18S27.941 0 18 0 0 8.059 0 18s8.059 18 18 18z" transform="translate(5.25 6)" id="Oval" fill-opacity=".149"/><path d="M37.479 21.043h8.315c1.216 0 2.206.989 2.206 2.206v22.545C48 47.01 47.01 48 45.794 48H27.757a2.209 2.209 0 01-2.206-2.206v-10.57h-3.103v10.57c0 1.216-.99 2.206-2.206 2.206H2.206A2.209 2.209 0 010 45.794V3.709A3.713 3.713 0 013.709 0h15.03a3.713 3.713 0 013.71 3.709v2.303h4.606V2.206C27.055.99 28.045 0 29.26 0h15.03c1.216 0 2.206.99 2.206 2.206v9.018c0 1.217-.99 2.206-2.206 2.206h-6.812v7.613zm-17.236 25.55a.8.8 0 00.8-.8V28.46h-.8a.703.703 0 110-1.406h.8V3.71a2.305 2.305 0 00-2.304-2.303H3.71A2.305 2.305 0 001.406 3.71v13.576h1.552c.802 0 1.454.652 1.454 1.455V24c0 .802-.652 1.455-1.454 1.455H1.406v1.6h15.83a.703.703 0 010 1.406H1.406v1.6h1.552c.802 0 1.454.652 1.454 1.454v5.26c0 .803-.652 1.455-1.454 1.455H1.406v7.564a.8.8 0 00.8.8h18.037zM29.26 1.407a.8.8 0 00-.8.8v9.018a.8.8 0 00.8.8h11.32V1.406H29.26zM45.09 4.51V2.206a.8.8 0 00-.8-.8h-2.303V4.51h3.103zm-6.812 5.915h-7.516a.703.703 0 01-.703-.703V3.71c0-.388.315-.703.704-.703h3.006a.703.703 0 010 1.406h-2.303v4.606h6.109V4.412h-.8a.703.703 0 110-1.406h1.503c.388 0 .703.315.703.703v6.012a.703.703 0 01-.703.703zm3.709 1.6h2.303a.8.8 0 00.8-.8v-5.31h-3.103v6.11zM9.72 6.012h3.006c.802 0 1.455.653 1.455 1.455V8.97c0 .802-.653 1.454-1.455 1.454H9.721A1.456 1.456 0 018.266 8.97V7.467c0-.802.653-1.455 1.455-1.455zm3.006 3.006a.048.048 0 00.049-.048V7.467a.048.048 0 00-.049-.049H9.721a.048.048 0 00-.048.049V8.97c0 .026.021.048.048.048h3.006zm9.722-1.6v26.4h3.103v-10.57c0-1.216.99-2.206 2.206-2.206h8.314V13.43H29.26a2.208 2.208 0 01-2.206-2.206V7.418h-4.606zM2.958 18.691H1.406v5.357h1.552A.048.048 0 003.006 24v-5.26a.048.048 0 00-.048-.049zm43.636 8.364v-3.806a.8.8 0 00-.8-.8H27.758a.8.8 0 00-.8.8v3.806h1.6v-2.303c0-.389.314-.704.703-.704h4.509c.388 0 .703.315.703.704v2.303h1.75a2.21 2.21 0 012.056-3.006 2.209 2.209 0 012.055 3.006h6.26zm-4.558-1.6h2.255a.703.703 0 100-1.407h-2.255a.703.703 0 000 1.407zm-12.072 0v1.6h3.103v-1.6h-3.103zm8.315 0a.8.8 0 000 1.6.8.8 0 000-1.6zM27.758 46.594h18.036a.8.8 0 00.8-.8V28.46H26.958v17.333a.8.8 0 00.8.8zm2.302-9.067a6.723 6.723 0 016.716-6.715 6.723 6.723 0 016.715 6.715 6.723 6.723 0 01-6.715 6.715 6.723 6.723 0 01-6.716-6.715zm-27.102-6.06H1.406v5.357h1.552a.048.048 0 00.048-.048v-5.261a.048.048 0 00-.048-.048zm28.509 6.06a5.315 5.315 0 005.309 5.31 5.315 5.315 0 005.309-5.31 5.315 5.315 0 00-5.31-5.309 5.315 5.315 0 00-5.308 5.31zm8.044-1.433a.703.703 0 00-.505.856 2.306 2.306 0 01-2.23 2.88 2.306 2.306 0 01-2.303-2.303 2.305 2.305 0 012.88-2.23.703.703 0 00.35-1.362 3.713 3.713 0 00-4.636 3.592 3.713 3.713 0 003.709 3.71 3.714 3.714 0 003.592-4.638.704.704 0 00-.857-.505z" id="Combined-Shape"/></g></svg>