<svg width="32" height="30" viewBox="0 0 32 30" xmlns:xlink="http://www.w3.org/1999/xlink" xmlns="http://www.w3.org/2000/svg"><defs><path d="M3 0H2v2H0v1h2v2h1V3h2V2H3V0z" transform="translate(13 2)" id="path_1"/></defs><g id="buy02"><g id="buy02"><path d="M2.999 0h26.002q.147 0 .294.014.147.015.291.044.145.028.286.071.14.043.277.1.136.056.266.125.13.07.252.151.123.082.236.176.114.093.219.197.104.105.197.218.094.114.176.237.081.122.15.252.07.13.127.266.056.136.099.277.043.141.071.286.03.144.044.291.014.147.014.294v24.002q0 .147-.014.294-.015.147-.044.291-.028.145-.071.286-.043.14-.1.277-.056.136-.125.266-.07.13-.151.252-.082.123-.176.236-.093.114-.197.219-.105.104-.218.197-.114.094-.237.176-.122.081-.252.15-.13.07-.266.127-.136.056-.277.099-.141.043-.286.071-.144.03-.291.044-.147.014-.294.014H2.999q-.147 0-.294-.014-.147-.015-.291-.044-.145-.028-.286-.071-.14-.043-.277-.1-.136-.056-.266-.125-.13-.07-.252-.151-.123-.082-.237-.176-.113-.093-.218-.197-.104-.105-.197-.218-.094-.114-.176-.237-.081-.122-.15-.252-.07-.13-.127-.266-.056-.137-.099-.277-.043-.141-.071-.286-.03-.144-.044-.291Q0 27.148 0 27.001V2.999q0-.147.014-.294.015-.147.044-.291.028-.145.071-.286.043-.14.1-.277.056-.136.125-.266.07-.13.151-.252.082-.123.176-.237Q.774.983.878.878q.105-.104.218-.197.114-.094.237-.176.122-.081.252-.15.13-.07.266-.127.136-.056.277-.099.141-.043.286-.071.144-.03.291-.044Q2.852 0 2.999 0z" id="Rectangle" fill="#b90c24" stroke="none"/><g id="Group" transform="translate(7 6)"><g id="shopping-cart"><path d="M3.594 0H0v1.5h2.414l2.076 9.508h.01v.242h9.75v-.186l1.645-7.246.253-.818H4.241l-.427-1.959L3.594 0zM14.24 4.5H4.57l1.147 5.25h7.332L14.24 4.5zM6.75 15a1.5 1.5 0 100-3 1.5 1.5 0 000 3zM12 15a1.5 1.5 0 100-3 1.5 1.5 0 000 3z" transform="translate(.75 1.5)" id="Combined-Shape" fill="#FFF" fill-rule="evenodd" stroke="none"/></g><g id="Combined-Shape"><use xlink:href="#path_1" fill="none" stroke="#b90c24" stroke-width="2"/><use fill="#FFF" xlink:href="#path_1" fill-rule="evenodd"/></g></g></g></g></svg>