<?xml version="1.0" encoding="utf-8"?>
<svg width="20px" height="20px" viewBox="0 0 20 20" version="1.1" xmlns:xlink="http://www.w3.org/1999/xlink" xmlns="http://www.w3.org/2000/svg">
  <desc>Created with Lunacy</desc>
  <path d="M20 10.0611C20 4.50452 15.5229 0 10 0C4.47715 0 0 4.50452 0 10.0611C0 15.083 3.65686 19.2453 8.4375 20L8.4375 12.9694L5.89844 12.9694L5.89844 10.0611L8.4375 10.0611L8.4375 7.84455C8.4375 5.32297 9.93043 3.93013 12.2146 3.93013C13.3087 3.93013 14.4531 4.12664 14.4531 4.12664L14.4531 6.60263L13.1921 6.60263C11.9499 6.60263 11.5625 7.37818 11.5625 8.17383L11.5625 10.0611L14.3359 10.0611L13.8926 12.9694L11.5625 12.9694L11.5625 20C16.3431 19.2453 20 15.083 20 10.0611" id="facebook" fill="#8C0014" stroke="none" />
</svg>