<?xml version="1.0" encoding="utf-8"?>
<svg width="30px" height="30px" viewBox="0 0 30 30" version="1.1" xmlns:xlink="http://www.w3.org/1999/xlink" xmlns="http://www.w3.org/2000/svg">
  <desc>Created with Lunacy</desc>
  <defs>
    <path d="M9.61875 18.5613C3.825 13.4714 0 10.1144 0 5.99455C0 2.6376 2.7225 0 6.1875 0C8.145 0 10.0237 0.882834 11.25 2.27793C12.4762 0.882834 14.355 0 16.3125 0C19.7775 0 22.5 2.6376 22.5 5.99455C22.5 10.1144 18.675 13.4714 12.8812 18.5722L11.25 20L9.61875 18.5613Z" transform="translate(3.75 5)" id="path_1" />
    <clipPath id="mask_1">
      <use xlink:href="#path_1" />
    </clipPath>
  </defs>
  <g id="compare">
    <path d="M9.61875 18.5613C3.825 13.4714 0 10.1144 0 5.99455C0 2.6376 2.7225 0 6.1875 0C8.145 0 10.0237 0.882834 11.25 2.27793C12.4762 0.882834 14.355 0 16.3125 0C19.7775 0 22.5 2.6376 22.5 5.99455C22.5 10.1144 18.675 13.4714 12.8812 18.5722L11.25 20L9.61875 18.5613Z" transform="translate(3.75 5)" id="Icon" fill="#8C0014" stroke="none" />
  </g>
</svg>