<svg width="22" height="22" viewBox="0 0 22 22" xmlns:xlink="http://www.w3.org/1999/xlink" xmlns="http://www.w3.org/2000/svg"><g id="musica-searcher-(1)" stroke="none"><path d="M0 0h22v22H0V0z" id="Rectangle-5" fill="none"/><path d="M16.427 13.154l-.083-.25c-.193-.577-.83-1.18-1.418-1.34l-2.167-.593c-.589-.16-1.426.056-1.856.487l-.786.784a8.324 8.324 0 01-5.855-5.858l.783-.785c.431-.429.646-1.266.486-1.856l-.59-2.168C4.78.99 4.176.351 3.6.157L3.352.075C2.772-.12 1.95.077 1.52.508L.345 1.683C.135 1.89 0 2.486 0 2.488a13.877 13.877 0 004.057 9.955 13.859 13.859 0 009.92 4.055c.02 0 .634-.131.843-.34l1.174-1.175c.43-.428.624-1.254.432-1.83" transform="translate(2.75 2.75)" id="Fill-1" fill="#4B4B4B"/></g></svg>