<svg width="16" height="14" viewBox="0 0 16 14" xmlns:xlink="http://www.w3.org/1999/xlink" xmlns="http://www.w3.org/2000/svg"><path d="M12 0H4a.995.995 0 00-.863.495A.995.995 0 003 1h10a.995.995 0 00-.495-.863A.995.995 0 0012 0zM2.5 2h11a.995.995 0 01.864.495c.086.148.136.32.136.505h-13a.995.995 0 01.495-.863A.995.995 0 012.5 2zm11.705 2H1.795c-.624 0-.85.065-1.079.187a1.272 1.272 0 00-.529.53C.065 4.943 0 5.17 0 5.794v6.41c0 .624.065.85.187 1.079.122.228.301.407.53.529.227.122.454.187 1.078.187h12.41c.624 0 .85-.065 1.079-.187a1.27 1.27 0 00.529-.53c.122-.227.187-.454.187-1.078v-6.41c0-.624-.065-.85-.187-1.079a1.272 1.272 0 00-.53-.529C15.057 4.065 14.83 4 14.206 4z" id="Style" fill="#8C0014" fill-rule="evenodd" stroke="none"/></svg>