<svg width="16" height="16" viewBox="0 0 16 16" xmlns:xlink="http://www.w3.org/1999/xlink" xmlns="http://www.w3.org/2000/svg"><path d="M6.64 15.885a8.002 8.002 0 010-15.77 8.052 8.052 0 012.723 0 8.002 8.002 0 010 15.77 8.051 8.051 0 01-2.723 0zm3.423-11.847a7.21 7.21 0 01-1.289.256V1.778c.533.727.962 1.48 1.289 2.26zM7.226 1.78v2.515a7.248 7.248 0 01-1.285-.254c.325-.78.753-1.533 1.285-2.26zm-3.58 1.115c.28.208.575.396.883.563.238-.56.524-1.106.855-1.639a6.74 6.74 0 00-1.738 1.076zm8.704-.004a6.71 6.71 0 00-1.73-1.07c.33.531.614 1.075.852 1.632.307-.166.6-.354.878-.562zm-.368 2.02a8.66 8.66 0 001.402-.915 6.675 6.675 0 011.281 3.23h-2.3a11.473 11.473 0 00-.383-2.314zM1.335 7.227A6.674 6.674 0 012.612 4c.437.35.908.657 1.408.917a11.474 11.474 0 00-.383 2.309H1.335zm7.44-1.375v1.375h2.046a10.165 10.165 0 00-.272-1.724 8.59 8.59 0 01-1.775.349zm-1.55 0a8.59 8.59 0 01-1.767-.345 10.21 10.21 0 00-.27 1.72h2.038V5.852zm-3.204 5.234c-.5.26-.971.567-1.408.916a6.674 6.674 0 01-1.278-3.227h2.302c.05.792.178 1.562.384 2.31zm3.205-.935V8.774H5.189c.041.587.131 1.16.27 1.722a8.59 8.59 0 011.767-.346zm1.548 0a8.588 8.588 0 011.775.35c.14-.562.23-1.137.273-1.726H8.774v1.377zm5.892-1.376a6.674 6.674 0 01-1.282 3.231 8.639 8.639 0 00-1.403-.915c.206-.75.335-1.523.385-2.316h2.3zM5.94 11.956c.414-.12.844-.206 1.286-.252v2.516a11.022 11.022 0 01-1.286-2.264zm2.834 2.266v-2.517c.443.047.874.133 1.29.255-.327.78-.757 1.534-1.29 2.262zM3.64 13.101a6.71 6.71 0 001.744 1.08 12.063 12.063 0 01-.858-1.645 7.27 7.27 0 00-.886.565zm8.716.003a7.281 7.281 0 00-.881-.563 12.07 12.07 0 01-.854 1.638 6.713 6.713 0 001.735-1.075z" id="globe" fill="#8C0014" fill-rule="evenodd" stroke="none"/></svg>