<svg width="48" height="48" viewBox="0 0 48 48" xmlns:xlink="http://www.w3.org/1999/xlink" xmlns="http://www.w3.org/2000/svg"><defs><linearGradient x1="-.213" y1=".5" x2=".788" y2=".5" id="gradient_1"><stop offset="0" stop-color="#FFF"/><stop offset=".4" stop-color="#FFF"/><stop offset=".53" stop-color="#E2F2FA"/><stop offset=".82" stop-color="#98D0ED"/><stop offset="1" stop-color="#65B8E4"/></linearGradient><linearGradient x1="-.034" y1=".623" x2="1.021" y2=".295" id="gradient_2"><stop offset="0" stop-color="#FFF"/><stop offset=".09" stop-color="#F2F9FC"/><stop offset=".25" stop-color="#D1E9F5"/><stop offset=".47" stop-color="#9BD0EA"/><stop offset=".73" stop-color="#51ADDB"/><stop offset="1" stop-color="#0086CA"/></linearGradient><linearGradient x1=".634" y1="1.029" x2=".253" y2="-.01" id="gradient_3"><stop offset="0" stop-color="#FFF"/><stop offset=".36" stop-color="#D8EAF7"/><stop offset="1" stop-color="#8AC1E8"/></linearGradient><linearGradient x1="1.028" y1="-66.873" x2="-.013" y2="-67.221" id="gradient_4"><stop offset="0" stop-color="#FFF"/><stop offset=".36" stop-color="#D8EAF7"/><stop offset="1" stop-color="#8AC1E8"/></linearGradient><linearGradient x1=".375" y1="-30.066" x2=".726" y2="-31.112" id="gradient_5"><stop offset="0" stop-color="#FFF"/><stop offset=".36" stop-color="#D8EAF7"/><stop offset="1" stop-color="#8AC1E8"/></linearGradient></defs><g id="icons/example1"><g id="Быстрая-программа-QuickPowerWash+" stroke="none"><path d="M37.2 0H10.8C4.835 0 0 4.835 0 10.8v26.4C0 43.165 4.835 48 10.8 48h26.4A10.8 10.8 0 0048 37.2V10.8A10.8 10.8 0 0037.2 0zm0 1.8a9 9 0 019 9v26.4a9 9 0 01-9 9H10.8a9 9 0 01-9-9V10.8a9 9 0 019-9h26.4zm-29.01 30c0-1.386-.174-2.4-1.554-2.4-1.38 0-1.554.984-1.554 2.4s.174 2.4 1.554 2.4h.324l.282-.072.546.564.546-.492-.492-.498a3.354 3.354 0 00.354-1.854L8.19 31.8zm18.606 0c0-1.416.174-2.4 1.554-2.4 1.38 0 1.554.984 1.554 2.4s-.174 2.4-1.554 2.4c-1.38 0-1.554-.984-1.554-2.4zm-8.622.564c0 .984-.252 1.836-1.452 1.836l-.012.054c-1.38 0-1.554-.984-1.554-2.4s.234-2.4 1.554-2.4 1.416.966 1.416 1.632h-.924c0-.666-.06-.954-.552-.954-.492 0-.6.378-.6 1.758s.24 1.632.6 1.632.6-.174.6-1.158h.924zm23.808-.528c.63.078.738.426.738 1.392l-.012-.006c.006.486.03.732.204.822v.036h-.996a.9.9 0 01-.114-.48v-.846c-.012-.384-.174-.6-.546-.6h-.492v1.926h-.924v-4.572h1.704a1.086 1.086 0 011.2 1.2c0 .612-.246 1.02-.762 1.128zM24 32.262h.492a1.278 1.278 0 001.452-1.374 1.2 1.2 0 00-1.254-1.368h-1.602v4.566H24v-1.824zm-13.392 1.236c.432 0 .54-.336.54-.792l-.012-3.186h.924v3.21a1.308 1.308 0 01-1.458 1.47 1.29 1.29 0 01-1.458-1.494V29.52h.924v3.186c0 .456.108.792.54.792zm2.568-3.978h.924v4.572h-.924V29.52zm6.924 3.21l.336-.516.942 1.872h1.038l-1.38-2.61 1.236-1.956h-.996l-1.164 1.83H20.1v-1.83h-.924v4.566h.924V32.73zm13.92.168h.012l.504-3.378h.882l-.828 4.566h-1.032l-.51-3.312h-.018l-.51 3.312h-1.026l-.834-4.566h.882l.504 3.378h.012l.54-3.378h.882l.54 3.378zm3.168-.792h1.536v-.756h-1.536v-1.074h1.632v-.756h-2.55v4.566h2.616v-.756h-1.698v-1.224zm-9.474-.336c0 1.23.09 1.698.636 1.698s.636-.48.636-1.698-.09-1.692-.636-1.692-.636.462-.636 1.692zm-21.696.03c0 1.216.088 1.687.618 1.698.53-.011.618-.511.618-1.698 0-1.2-.054-1.692-.6-1.692-.546 0-.636.462-.636 1.692zm34.716-.294h.39a.6.6 0 00.69-.684.597.597 0 00-.642-.636h-.438v1.32zM24 30.192h.384c.462 0 .642.258.642.702a.6.6 0 01-.6.684H24v-1.386zm4.308 9.066l-.948-.408c-.522-.222-.6-.45-.6-.828a.6.6 0 01.696-.708c.468 0 .666.33.666.906h1.2v-.168c0-1.2-.792-1.638-1.884-1.638a1.698 1.698 0 00-1.884 1.8c0 1.014.504 1.47 1.596 1.842.81.282 1.092.486 1.092 1.038a.702.702 0 01-.654.75h-.108c-.648 0-.81-.366-.81-.936v-.18h-1.2v.246c0 1.128.546 1.8 1.938 1.8s2.112-.6 2.112-1.866c0-.744-.24-1.2-1.158-1.614l-.054-.036zm-6.846-2.73L19.854 42.6h1.278l.282-1.29h1.62l.282 1.29H24.6l-1.62-6.09-1.518.018zm-4.02 4.5h-.018l-.714-4.5h-1.182l-.714 4.5h-.018l-.672-4.5h-1.176l1.11 6.09h1.368l.684-4.422h.018l.684 4.422h1.374l1.104-6.09h-1.176l-.672 4.5zm14.508-2.172h1.434v-2.328h1.23v6.09h-1.23v-2.706H31.95v2.706h-1.23v-6.09h1.23v2.328zm-10.35 1.47l.6-2.736.6 2.736h-1.2z" id="Combined-Shape" fill="#8C0014" fill-rule="evenodd"/><path d="M0 0h19.2v19.2H0V0z" transform="translate(14.4 7.038)" id="Rectangle" fill="url(#gradient_1)"/><path d="M19.2 9.6A9.6 9.6 0 110 9.6a9.6 9.6 0 0119.2 0" transform="translate(14.4 7.038)" id="Path" fill="#FFF"/><path d="M0 10.2C0 4.567 4.567 0 10.2 0c5.633 0 10.2 4.567 10.2 10.2 0 5.633-4.567 10.2-10.2 10.2C4.567 20.4 0 15.833 0 10.2m1.2 0a9 9 0 1018 0 9 9 0 00-18 0" transform="translate(13.8 6.438)" id="Shape" fill="#475155"/><path d="M.006 3.858a5.178 5.178 0 015.856-1.446l.3.108s.42-1.032.924-2.286A5.268 5.268 0 005.544 0C3.624 0 1.542 1.08 0 3.864" transform="translate(19.998 9.342)" id="Path" fill="url(#gradient_2)"/><path d="M3.163 6.84a5.184 5.184 0 01-.87-5.28v-.048L.421 0c-1.29 3.24.6 5.484 2.724 6.84" transform="translate(16.829 13.08)" id="Path" fill="url(#gradient_3)"/><path d="M3.534 1.488a5.16 5.16 0 01-1.914-.366l-.09-.042L0 3.144c.76.317 1.576.486 2.4.498 2.448 0 3.882-1.848 4.8-3.642a5.202 5.202 0 01-3.6 1.482" transform="translate(20.4 20.256)" id="Path" fill="url(#gradient_4)"/><path d="M0 0a5.184 5.184 0 011.392 5.874l-.042.084L3.408 7.53C4.356 5.208 3.744 2.13 0 0z" transform="translate(27.318 12.504)" id="Path" fill="url(#gradient_5)"/><path d="M1.37 6.087a.708.708 0 11-1.278-.6C.254 5.133 2.99-.153 3.344.003c.354.156-1.8 5.712-1.974 6.06" transform="translate(23.23 10.79)" id="Path" fill="#E1000F"/></g></g></svg>