<svg width="20" height="20" viewBox="0 0 20 20" xmlns:xlink="http://www.w3.org/1999/xlink" xmlns="http://www.w3.org/2000/svg"><path d="M14.042 0H5.958A5.965 5.965 0 000 5.959v8.083A5.965 5.965 0 005.958 20h8.084A5.965 5.965 0 0020 14.042V5.959A5.965 5.965 0 0014.042 0zm3.946 14.042a3.946 3.946 0 01-3.946 3.946H5.958a3.946 3.946 0 01-3.946-3.946V5.959a3.947 3.947 0 013.946-3.947h8.084a3.947 3.947 0 013.946 3.947v8.083zm-1.566-9.175a1.239 1.239 0 10-2.477-.002 1.239 1.239 0 002.477.002zM4.827 10A5.178 5.178 0 0110 4.828 5.178 5.178 0 0115.172 10 5.179 5.179 0 0110 15.173 5.179 5.179 0 014.827 10zm2.012 0a3.16 3.16 0 106.322 0 3.16 3.16 0 00-6.322 0z" id="Combined-Shape" fill="#8C0014" fill-rule="evenodd" stroke="none"/></svg>