<?xml version="1.0" encoding="utf-8"?>
<svg width="24px" height="24px" viewBox="0 0 24 24" version="1.1" xmlns:xlink="http://www.w3.org/1999/xlink" xmlns="http://www.w3.org/2000/svg">
  <desc>Created with Lunacy</desc>
  <g id="location">
    <path d="M0 0L24 0L24 24L0 24L0 0Z" id="Rectangle-5" fill="none" fill-rule="evenodd" stroke="none" />
    <path d="M8 8.9995C7.173 8.9995 6.5 8.3265 6.5 7.4995C6.5 6.6725 7.173 5.9995 8 5.9995C8.827 5.9995 9.5 6.6725 9.5 7.4995C9.5 8.3265 8.827 8.9995 8 8.9995M8 3.9995C6.07 3.9995 4.5 5.5695 4.5 7.4995C4.5 9.4295 6.07 10.9995 8 10.9995C9.93 10.9995 11.5 9.4295 11.5 7.4995C11.5 5.5695 9.93 3.9995 8 3.9995M8 17.646C6.325 16.062 2 11.615 2 7.922C2 4.657 4.691 2 8 2C11.309 2 14 4.657 14 7.922C14 11.615 9.675 16.062 8 17.646M8 0C3.589 0 0 3.553 0 7.922C0 13.397 7.049 19.501 7.349 19.758C7.537 19.919 7.768 20 8 20C8.232 20 8.463 19.919 8.651 19.758C8.951 19.501 16 13.397 16 7.922C16 3.553 12.411 0 8 0" transform="translate(4 2)" id="🎨-Icon-Сolor" fill="#8C0014" fill-rule="evenodd" stroke="none" />
  </g>
</svg>