<?xml version="1.0" encoding="utf-8"?>
<svg width="41px" height="24px" viewBox="0 0 41 24" version="1.1" xmlns:xlink="http://www.w3.org/1999/xlink" xmlns="http://www.w3.org/2000/svg">
  <desc>Created with Lunacy</desc>
  <g id="master">
    <path d="M11.966 24C18.5746 24 23.9319 18.6274 23.9319 12C23.9319 5.37258 18.5746 0 11.966 0C5.35734 0 0 5.37258 0 12C0 18.6274 5.35734 24 11.966 24Z" id="Oval" fill="#D81E05" stroke="none" />
    <path d="M11.7021 6.33709e-05C8.73385 -0.00964679 5.86885 1.09685 3.66809 3.10292C3.23566 3.49614 2.83179 3.92009 2.45957 4.37149L4.8766 4.37149C5.20985 4.77692 5.51687 5.20351 5.79575 5.64863L1.54043 5.64863C1.28565 6.05722 1.05545 6.48084 0.851064 6.91721L6.46809 6.91721C6.66213 7.32993 6.83262 7.75348 6.97872 8.18578L0.348936 8.18578C0.210204 8.59334 0.0937176 9.00825 0 9.42863L7.32766 9.42863C7.78078 11.5388 7.66023 13.7331 6.97872 15.7801L0.348936 15.7801C0.492266 16.2122 0.659913 16.6357 0.851064 17.0486L6.4766 17.0486C6.27634 17.4965 6.04896 17.9317 5.79575 18.3515L1.54043 18.3515C1.81639 18.7938 2.12058 19.2175 2.45106 19.6201L4.86809 19.6201C4.49659 20.0721 4.09267 20.4961 3.65957 20.8886C7.59738 24.4856 13.4248 25.0201 17.943 22.1986C22.4611 19.3771 24.5767 13.8824 23.1284 8.73078C21.6801 3.57914 17.0183 0.0171186 11.7021 6.33709e-05L11.7021 6.33709e-05Z" transform="translate(16.332031 0)" id="Path" fill="#FCA311" stroke="none" />
    <path d="M2.5524 5.10857L3.63325 5.10857L3.63325 5.11714C3.66729 4.74 3.90559 3.20571 4.01623 2.45143C4.06253 2.11927 4.08245 1.78392 4.0758 1.44857C4.0758 0.505714 3.48857 0 2.37367 0C1.84408 0.00777153 1.31881 0.0973869 0.816227 0.265714L0.637504 1.38C1.08216 1.23141 1.54773 1.15615 2.01623 1.15714C2.6375 1.15714 2.86729 1.28571 2.86729 1.61143C2.86436 1.71896 2.84719 1.82562 2.81623 1.92857C2.64049 1.91812 2.4643 1.91812 2.28857 1.92857C0.858781 1.92857 0.00771674 2.63143 0.00771674 3.84C-0.0307594 4.18139 0.0758227 4.52326 0.301157 4.78122C0.526492 5.03919 0.849586 5.18922 1.1907 5.19429C1.71387 5.2258 2.2203 5.00265 2.5524 4.59429L2.5524 5.10857ZM2.39921 2.90571L2.68857 2.90571L2.69708 2.93143C2.67155 3.66 2.28857 4.16571 1.76091 4.16571C1.62895 4.1716 1.50106 4.11895 1.411 4.02164C1.32093 3.92433 1.27774 3.79216 1.29282 3.66C1.29282 3.16286 1.65878 2.90571 2.39921 2.90571Z" transform="translate(6.486328 10.405273)" id="Shape" fill="#192168" fill-rule="evenodd" stroke="none" />
    <path d="M5.20851 6.08571L3.90638 6.08571L4.65532 1.40571L2.98723 6.08571L2.10213 6.08571L2 1.43143L1.21702 6.08571L0 6.08571L1.01277 0L2.88511 0L2.99574 3.40286L4.13617 0L6.21277 0L5.20851 6.08571L5.20851 6.08571Z" transform="translate(0.765625 9.4375)" id="Path" fill="#192168" stroke="none" />
    <path d="M2.5524 5.10857L3.63325 5.10857L3.63325 5.11714C3.68431 4.74 3.90559 3.20571 4.01623 2.45143C4.06263 2.11928 4.08256 1.78392 4.0758 1.44857C4.0758 0.505714 3.48857 0 2.37367 0C1.84408 0.00777153 1.31881 0.0973869 0.816227 0.265714L0.637504 1.38C1.0822 1.23155 1.54775 1.1563 2.01623 1.15714C2.6375 1.15714 2.86729 1.28571 2.86729 1.61143C2.86426 1.71895 2.84709 1.82559 2.81623 1.92857C2.64049 1.91814 2.4643 1.91814 2.28857 1.92857C0.858781 1.92857 0.00771674 2.63143 0.00771674 3.84C-0.0307594 4.18139 0.0758227 4.52326 0.301157 4.78122C0.526492 5.03919 0.849586 5.18922 1.1907 5.19429C1.71387 5.2258 2.2203 5.00265 2.5524 4.59429L2.5524 5.10857ZM2.39921 2.90571L2.68857 2.90571L2.69708 2.93143C2.67155 3.66 2.28857 4.16571 1.76091 4.16571C1.62895 4.1716 1.50106 4.11895 1.411 4.02164C1.32093 3.92433 1.27774 3.79216 1.29282 3.66C1.29282 3.16286 1.65878 2.90571 2.39921 2.90571Z" transform="translate(26.954102 10.405273)" id="Shape" fill="#192168" fill-rule="evenodd" stroke="none" />
    <path d="M1.97655 5.62286C1.67512 5.72709 1.35907 5.78207 1.04038 5.78571C0.749932 5.8155 0.462127 5.70836 0.260739 5.49547C0.0593507 5.28259 -0.0329897 4.98789 0.0105952 4.69714C0.0445698 4.25401 0.104246 3.81326 0.189319 3.37714C0.265914 2.91429 0.751021 0 0.751021 0L2.04464 0L1.89145 0.745714L2.67443 0.745714L2.4957 1.93714L1.71272 1.93714C1.55953 2.88 1.34677 4.05429 1.34677 4.20857C1.34677 4.36286 1.48294 4.57714 1.78932 4.57714C1.90719 4.58244 2.02511 4.56796 2.13825 4.53429L1.97655 5.62286Z" transform="translate(13.913086 9.805664)" id="Path" fill="#192168" stroke="none" />
    <path d="M2.21244 5.15502C2.66239 5.15793 3.11013 5.09144 3.5401 4.95788L3.7784 3.72359C3.35918 3.92775 2.89937 4.03326 2.43372 4.03216C1.68478 4.03216 1.22521 3.73216 1.31031 3.01216L3.8635 3.01216C3.9643 2.61418 4.01857 2.20569 4.02521 1.79502C4.06593 1.31457 3.89649 0.840134 3.56123 0.49589C3.22597 0.151646 2.75827 -0.0281393 2.28052 0.00358986C0.978397 0.00358986 0.0166946 1.2293 0.0166946 2.94359C-0.0625505 3.55108 0.143161 4.16115 0.57334 4.5944C1.00352 5.02765 1.60926 5.23483 2.21244 5.15502ZM2.81948 1.98109C2.81791 2.00122 2.81669 2.01674 2.81669 2.02645L1.36138 2.02645C1.50606 1.48645 1.80393 1.1693 2.21244 1.1693C2.88297 1.1693 2.83459 1.78791 2.81948 1.98109Z" transform="translate(16.30664 10.470703)" id="Shape" fill="#192168" fill-rule="evenodd" stroke="none" />
    <path d="M0.485106 1.70571C0.487875 2.34162 0.902105 2.90134 1.50638 3.08571C2.03404 3.33429 2.11064 3.41143 2.11064 3.63429C2.11064 3.85714 1.88085 4.08 1.3617 4.08C0.965009 4.07837 0.571219 4.01178 0.195745 3.88286L0 4.99714C0.4442 5.09674 0.898126 5.14561 1.35319 5.14286C2.7234 5.14286 3.35319 4.62 3.35319 3.48857C3.39595 2.87107 3.01756 2.30296 2.43404 2.10857C1.88936 1.86 1.82979 1.8 1.82979 1.56857C1.82979 1.33714 2.04255 1.16571 2.46809 1.16571C2.78148 1.17088 3.0942 1.19665 3.40426 1.24286L3.59149 0.0942857C3.21379 0.0378759 2.83284 0.00638029 2.45106 0C0.987234 0.0257143 0.485106 0.788571 0.485106 1.70571Z" transform="translate(10.408203 10.431641)" id="Path" fill="#192168" stroke="none" />
    <path d="M5.89787 1.50857C6.30439 1.51979 6.70191 1.63165 7.05532 1.83429L7.26809 0.514286C6.83034 0.248479 6.34419 0.0736147 5.8383 0C4.98582 0.00254379 4.19085 0.433417 3.71915 1.14857C2.9617 0.9 2.65532 1.40571 2.27234 1.91143L1.93191 1.98857C1.9483 1.82327 1.9483 1.65673 1.93191 1.49143L0.740426 1.49143C0.578723 3.02571 0.289362 4.57714 0.0595745 6.11143L0 6.44571L1.30213 6.44571C1.51489 5.03143 1.63404 4.13143 1.71064 3.51429L2.20426 3.24C2.28085 2.96571 2.50213 2.87143 2.9617 2.88857C2.89989 3.22213 2.86855 3.56068 2.86809 3.9C2.86809 5.52 3.71915 6.53143 5.14043 6.53143C5.54425 6.53119 5.9458 6.47053 6.33191 6.35143L6.5617 4.96286C6.22095 5.14897 5.84259 5.25449 5.45532 5.27143C4.69787 5.27143 4.24681 4.71429 4.24681 3.78857C4.24681 2.45143 4.92766 1.50857 5.89787 1.50857Z" transform="translate(20.27246 9.077148)" id="Path" fill="#192168" stroke="none" />
    <path d="M5.86383 1.75714L6.15319 0L7.4383 0L6.43404 6.08571L5.24255 6.08571L5.30213 5.62286C5.00465 5.9785 4.56377 6.18005 4.10213 6.17143C3.15745 6.17143 2.53617 5.34857 2.53617 4.11429C2.53681 3.56448 2.64377 3.02006 2.85106 2.51143C2.49813 2.49131 2.28588 2.70208 1.99823 2.98773C1.91826 3.06715 1.83245 3.15236 1.73617 3.24C1.63404 3.99429 1.50638 4.94571 1.32766 6.08571L0 6.08571L0.0595745 5.75143C0.289362 4.21714 0.578723 2.66571 0.740426 1.13143L1.93191 1.13143C1.92473 1.38086 1.90485 1.62976 1.87234 1.87714C2.23539 1.99987 2.60471 2.10288 2.97872 2.18571C3.26096 1.50275 3.89086 1.02942 4.62128 0.951429C5.13974 1.0039 5.60181 1.30352 5.86383 1.75714ZM3.86383 3.96857Q3.86383 4.94571 4.52766 4.94571C5.13192 4.94571 5.58298 4.28571 5.55745 3.27429C5.55745 2.64857 5.31064 2.30571 4.86808 2.30571C4.28085 2.30571 3.86383 3 3.86383 3.96857Z" transform="translate(31.012695 9.428711)" id="Shape" fill="#192168" fill-rule="evenodd" stroke="none" />
    <path d="M5.20851 6.08571L3.90638 6.08571L4.65532 1.41429L2.98723 6.08571L2.10213 6.08571L2 1.44L1.21702 6.08571L0 6.08571L1.01277 0L2.88511 0L2.93617 3.77143L4.19574 0L6.21277 0L5.20851 6.08571L5.20851 6.08571Z" transform="translate(1.140625 9.068359)" id="Path" fill="#FEFEFE" stroke="none" />
    <path d="M2.526 5.1L3.60685 5.1C3.6409 4.73143 3.87919 3.18857 3.97281 2.42571C4.03206 2.10317 4.0662 1.77647 4.07494 1.44857C4.07494 0.505714 3.4877 0 2.37281 0C1.84325 0.00817551 1.31805 0.0977806 0.815363 0.265714L0.63664 1.38C1.08122 1.23111 1.54685 1.15585 2.01536 1.15714C2.63664 1.15714 2.86643 1.27714 2.86643 1.60286C2.86416 1.71326 2.84698 1.82284 2.81536 1.92857C2.63964 1.91784 2.46343 1.91784 2.2877 1.92857C0.857917 1.92857 0.00685272 2.63143 0.00685272 3.84C-0.0287781 4.17566 0.0756066 4.51115 0.295065 4.76631C0.514524 5.02146 0.829343 5.17336 1.1643 5.18571C1.68747 5.21723 2.19391 4.99408 2.526 4.58571L2.526 5.1ZM2.37281 2.89714L2.66217 2.89714L2.67068 2.92286C2.64515 3.65143 2.26217 4.15714 1.73451 4.15714C1.60256 4.16303 1.47467 4.11038 1.3846 4.01307C1.29454 3.91576 1.25134 3.78359 1.26643 3.65143C1.26643 3.15429 1.63238 2.89714 2.37281 2.89714Z" transform="translate(6.8867188 10.0546875)" id="Shape" fill="#FEFEFE" fill-rule="evenodd" stroke="none" />
    <path d="M4.33191 0.282857L4.11915 1.60286C3.76547 1.40087 3.36811 1.28906 2.9617 1.27714C1.99149 1.27714 1.31064 2.22 1.31064 3.55714C1.31064 4.48286 1.77021 5.04 2.51915 5.04C2.91307 5.03493 3.30048 4.93812 3.65106 4.75714L3.42128 6.14571C3.0488 6.2607 2.66189 6.32131 2.27234 6.32571C0.876596 6.32571 0 5.31429 0 3.69429C0 1.51714 1.20851 0 2.92766 0C3.40771 0.0183706 3.88177 0.11386 4.33191 0.282857L4.33191 0.282857Z" transform="translate(23.583008 8.957031)" id="Path" fill="#FEFEFE" stroke="none" />
    <path d="M2.5524 5.05968L3.63325 5.05968C3.65878 4.69111 3.90559 3.14825 4.05878 2.42825C4.11824 2.10574 4.15238 1.77902 4.16091 1.45111C4.16091 0.50825 3.57367 0.00253613 2.45878 0.00253613C1.90341 -0.0148771 1.34886 0.057469 0.816227 0.216822L0.637504 1.33111C1.08209 1.18222 1.54771 1.10696 2.01623 1.10825C2.6375 1.10825 2.86729 1.22825 2.86729 1.55396C2.86491 1.66436 2.84774 1.77392 2.81623 1.87968C2.6405 1.8689 2.46429 1.8689 2.28857 1.87968C0.858781 1.87968 0.00771674 2.58254 0.00771674 3.79111C-0.0307594 4.1325 0.0758227 4.47437 0.301157 4.73233C0.526492 4.9903 0.849586 5.14033 1.1907 5.14539C1.71387 5.17691 2.2203 4.95376 2.5524 4.54539L2.5524 5.05968ZM2.3907 2.85682L2.68006 2.85682L2.68857 2.88254C2.66304 3.61111 2.28006 4.11682 1.7524 4.11682C1.62044 4.12271 1.49255 4.07005 1.40249 3.97275C1.31242 3.87544 1.26923 3.74327 1.28431 3.61111C1.28431 3.11396 1.65027 2.85682 2.3907 2.85682Z" transform="translate(27.328125 10.094727)" id="Shape" fill="#FEFEFE" fill-rule="evenodd" stroke="none" />
    <path d="M1.97655 5.60571C1.67512 5.70995 1.35907 5.76493 1.04038 5.76857C0.749932 5.79836 0.462127 5.69121 0.260739 5.47833C0.0593508 5.26545 -0.0329897 4.97074 0.0105952 4.68C0.042431 4.24278 0.0992629 3.80777 0.180808 3.37714C0.257404 2.91429 0.74251 0 0.74251 0L2.05315 0L1.89996 0.745714L2.56379 0.745714L2.38506 1.93714L1.72123 1.93714C1.56804 2.88 1.35528 4.05429 1.35528 4.20857C1.35528 4.36286 1.49145 4.57714 1.79783 4.57714C1.91571 4.58277 2.03368 4.56828 2.14677 4.53429L1.97655 5.60571Z" transform="translate(14.287109 9.480469)" id="Path" fill="#FEFEFE" stroke="none" />
    <path d="M2.21244 5.15502C2.66234 5.15726 3.10998 5.09079 3.5401 4.95788L3.53159 4.95788L3.74435 3.72359C3.333 3.92426 2.88227 4.02969 2.42521 4.03216C1.67627 4.03216 1.21669 3.73216 1.3018 3.01216L3.85499 3.01216C3.95526 2.61407 4.00952 2.20565 4.0167 1.79502C4.05742 1.31457 3.88798 0.840134 3.55272 0.49589C3.21746 0.151646 2.74975 -0.0281393 2.27201 0.00358986C0.978397 0.00358986 0.0166946 1.2293 0.0166946 2.94359C-0.0625505 3.55108 0.143161 4.16115 0.57334 4.5944C1.00352 5.02765 1.60926 5.23483 2.21244 5.15502ZM2.81948 1.98109C2.81791 2.00122 2.81669 2.01674 2.81669 2.02645L1.36138 2.02645C1.50606 1.48645 1.80393 1.1693 2.21244 1.1693C2.88297 1.1693 2.83459 1.78791 2.81948 1.98109Z" transform="translate(16.68164 10.084961)" id="Shape" fill="#FEFEFE" fill-rule="evenodd" stroke="none" />
    <path d="M0.502128 1.68C0.500193 2.30664 0.898551 2.86348 1.48936 3.06C2.01702 3.30857 2.09362 3.38571 2.09362 3.60857C2.09362 3.83143 1.86383 4.05429 1.34468 4.05429C0.948013 4.05235 0.554271 3.98577 0.178723 3.85714L0 4.99714C0.444188 5.09681 0.898122 5.14569 1.35319 5.14286C2.7234 5.14286 3.35319 4.62 3.35319 3.48857C3.39595 2.87107 3.01756 2.30296 2.43404 2.10857C1.88936 1.86 1.82979 1.8 1.82979 1.56857C1.82979 1.33714 2.04255 1.16571 2.46808 1.16571C2.78147 1.17093 3.09419 1.1967 3.40425 1.24286L3.59149 0.0942857C3.21375 0.0382112 2.83282 0.00671734 2.45106 0C1.00426 4.56777e-15 0.502128 0.762857 0.502128 1.68Z" transform="translate(10.765625 10.09668)" id="Path" fill="#FEFEFE" stroke="none" />
    <path d="M2.70638 6.08571L3.94043 6.08571L4.92766 0L3.64255 0L3.35319 1.75714C3.08172 1.33174 2.61272 1.07616 2.11064 1.08C0.970213 1.08 0 2.46857 0 4.11429C0 5.31429 0.621277 6.17143 1.56596 6.17143C2.0276 6.18005 2.46848 5.9785 2.76596 5.62286L2.70638 6.08571ZM3.05532 3.27429C3.05532 4.26 2.62979 4.94571 2.02553 4.94571C1.58298 4.94571 1.3617 4.64571 1.3617 3.96857C1.3617 2.99143 1.77872 2.30571 2.36596 2.30571C2.81702 2.30571 3.05532 2.64857 3.05532 3.27429Z" transform="translate(33.88965 9.068359)" id="Shape" fill="#FEFEFE" fill-rule="evenodd" stroke="none" />
    <path d="M0.740426 0.0482387C0.578724 1.58252 0.289362 3.13395 0.0595745 4.66824L0 5.00252L1.30213 5.00252C1.77021 1.97681 1.88085 1.38538 2.60426 1.46252C2.69247 0.959339 2.85907 0.473349 3.09787 0.0225245C2.55319 -0.0889041 2.24681 0.219667 1.85532 0.802524C1.90184 0.553708 1.92746 0.301387 1.93192 0.0482387L0.740426 0.0482387Z" transform="translate(31.387695 10.160156)" id="Path" fill="#FEFEFE" stroke="none" />
    <path d="M0.740425 0.0482387C0.578723 1.58252 0.289362 3.13395 0.0595745 4.66824L0 5.00252L1.30213 5.00252C1.77021 1.97681 1.88085 1.38538 2.60425 1.46252C2.70624 0.956987 2.88721 0.470945 3.14042 0.0225245C2.59574 -0.0889041 2.28936 0.219667 1.89787 0.802524C1.94463 0.553743 1.97025 0.301402 1.97447 0.0482387L0.740425 0.0482387Z" transform="translate(20.689453 10.160156)" id="Path" fill="#FEFEFE" stroke="none" />
    <path d="M0 0.906429C0 0.405822 0.402944 0 0.9 0C1.39706 0 1.8 0.405822 1.8 0.906429C1.8 1.40704 1.39706 1.81286 0.9 1.81286C0.402944 1.81286 0 1.40704 0 0.906429L0 0.906429ZM0.9 1.59129C1.27555 1.59129 1.58 1.28466 1.58 0.906429C1.58 0.528192 1.27555 0.221571 0.9 0.221571C0.524446 0.221571 0.22 0.528192 0.22 0.906429C0.22 1.28466 0.524446 1.59129 0.9 1.59129ZM0.78 1.28914L0.78 0.966857L0.92 0.966857L1.04 1.28914L1.24 1.28914L1.1 0.946714C1.18277 0.9142 1.238 0.834739 1.24 0.745286C1.24166 0.66565 1.20425 0.590304 1.14 0.543857C1.07453 0.525871 1.00547 0.525871 0.94 0.543857L0.6 0.543857L0.6 1.34957L0.78 1.28914ZM0.78 0.846L1 0.846L0.78 0.846Z" transform="translate(38.408203 14.3828125)" id="Shape" fill="#FEFEFE" fill-rule="evenodd" stroke="none" />
  </g>
</svg>