<svg xmlns="http://www.w3.org/2000/svg" xmlns:xlink="http://www.w3.org/1999/xlink" width="67" height="19" viewBox="0 0 67 19"><defs><path id="mir-a" d="M0 .183h65.678v18.623H0z"/></defs><g fill="none" fill-rule="evenodd"><g transform="translate(0 .011)"><mask id="mir-b" fill="#fff"><use xlink:href="#mir-a"/></mask><path fill="#3DA536" d="M47.589 8.698c6.029-.04 12.06 0 18.089-.02-.203.831-.74 1.546-1.31 2.17a6.262 6.262 0 01-4.391 2.004c-2.202.011-4.405-.002-6.608.007-.013 1.982 0 3.964-.006 5.947-1.92-.008-3.843.006-5.765-.008-.01-3.366.01-6.733-.01-10.1M26.269.206c1.918-.029 3.838.016 5.756-.023.03 3.68.004 7.36.014 11.04.164.147.466.193.566-.051 1.278-2.678 2.55-5.358 3.826-8.036.405-.832.733-1.734 1.393-2.406.295-.279.662-.55 1.09-.53 1.956 0 3.912-.013 5.869.006.003 6.197.003 12.393 0 18.589-1.92.015-3.84.014-5.76 0 0-3.67.008-7.341-.003-11.011-.005-.316-.539-.29-.594-.007-1.203 2.655-2.402 5.313-3.604 7.969-.37.806-.722 1.636-1.274 2.339-.308.39-.757.742-1.28.718-1.998 0-3.999.003-5.997-.002 0-6.198.003-12.397-.002-18.595M0 .195c2.023.006 4.047.003 6.071.001C7.025.184 7.98.676 8.5 1.478c.484.687.669 1.519.907 2.31.733 2.468 1.454 4.94 2.189 7.408.012.223.342.308.407.07.75-2.49 1.473-4.99 2.217-7.483.255-.88.476-1.812 1.07-2.534a2.918 2.918 0 011.5-.957c.496-.138 1.015-.086 1.523-.094 1.777.006 3.554-.015 5.331.011-.012 6.2.007 12.398-.01 18.596-1.922-.012-3.845.017-5.767-.015 0-3.636.008-7.272-.004-10.909-.013-.324-.548-.296-.584.009-1.145 3.632-2.297 7.263-3.424 10.9-1.358.031-2.717.006-4.075.012-1.143-3.632-2.277-7.268-3.431-10.896-.049-.3-.403-.31-.594-.135.004 3.674-.004 7.349.004 11.023-1.919.024-3.838 0-5.757.011V.195" mask="url(#mir-b)"/></g><path fill="#008CD2" d="M46.856.217C51.36.21 55.866.207 60.37.212c1.182.084 2.323.564 3.259 1.283 1.358 1.058 2.276 2.683 2.426 4.403.035.62.023 1.245-.069 1.859-2.76.016-5.52 0-8.28.005-.948-.01-1.9.038-2.841-.101-2.12-.269-4.21-1.151-5.711-2.7-1.267-1.268-2.047-2.979-2.298-4.744"/></g></svg>