<svg width="240" height="39" viewBox="0 0 240 39" xmlns:xlink="http://www.w3.org/1999/xlink" xmlns="http://www.w3.org/2000/svg"><g id="mtsabank_new_logo"><path d="M0 23.1c0 7.49 4.206 15.046 13.624 15.046 9.409 0 13.623-7.555 13.623-15.046 0-5.118-1.728-11.01-4.613-15.77C19.83 2.734 16.46 0 13.624 0 10.78 0 7.408 2.734 4.627 7.33 1.73 12.09 0 17.982 0 23.1zM66.409 2.043l-5.447 20.33-5.448-20.33h-18.05v34.06H47.68V8.398l7.423 27.703h11.715l7.428-27.72v27.72h10.218V2.043H66.409zm20.78 9.196h9.537v24.863h10.218V11.239h9.536V2.043H87.19v9.196zm51.088 0h14.987V2.043h-14.986c-13.77 0-21.121 6.846-21.121 17.03 0 10.183 7.351 17.03 21.121 17.03h14.986v-9.197h-14.987c-6.371 0-10.562-2.277-10.562-7.833s4.191-7.834 10.562-7.834zm32.017 7.834h9.328c3.776 0 5.602-2.074 5.602-5.553 0-3.307-1.826-5.183-5.602-5.183h-4.516V6.116h8.909V2.043h-13.721v17.03zm28.083-17.03l5.257 17.03h-5.208l-.985-3.258h-6.023l-.963 3.258h-4.492l5.258-17.03h7.156zm17.424 17.03v-6.59h-5.504v6.59h-4.935V2.043h4.935v6.244h5.504V2.043h4.937v17.03h-4.937zm12.83-10.786h.865l4.418-6.244h5.207l-5.677 8.12 6.17 8.91h-5.7l-4.566-6.59h-.717v6.59h-4.935V2.043h4.935v6.244zm-36.103 3.826l1.901-6.293 1.901 6.293h-3.802zm-13.819-.197h-3.603v3.331h3.603c.913 0 1.456-.469 1.456-1.333v-.616c0-.89-.469-1.383-1.456-1.383z" id="Shape" fill="#EA212E" fill-rule="evenodd" stroke="none"/></g></svg>