<?xml version="1.0" encoding="utf-8"?>
<svg width="29px" height="24px" viewbox="0 0 29 24" version="1.1" xmlns:xlink="http://www.w3.org/1999/xlink" xmlns="http://www.w3.org/2000/svg">
  <path d="M1.83683 17.9167C1.16876 17.3755 1.06561 16.3929 1.60683 15.7246L12.1503 2.71106C12.5692 2.19355 13.2534 2.01423 13.8501 2.21524L4.034 14.3314C3.05597 15.5384 3.24234 17.3157 4.45139 18.2952L9.41115 22.3135C8.85177 22.8437 7.97437 22.8891 7.36304 22.3937L1.83683 17.9167ZM10.7713 21.793L10.7068 21.7406L10.2168 21.3436L5.2454 17.316C4.57707 16.7745 4.47417 15.7919 5.01388 15.1259L14.8951 2.92922L15.292 2.4392L15.5571 2.11209C15.6015 2.05712 15.6499 2.00541 15.7006 1.95901C16.1914 1.4932 16.9298 1.40341 17.5162 1.729L16.6844 2.75596L16.2875 3.24573L15.8905 3.73576L7.52856 14.0568C6.55053 15.2641 6.73741 17.0448 7.94444 18.0226L10.9408 20.45L11.4306 20.847L11.9206 21.244L12.6613 21.844C12.2545 22.1378 11.7302 22.2159 11.2601 22.0591C11.0876 22.0036 10.9204 21.9136 10.7713 21.793L10.7713 21.793ZM26.7705 6.08374C27.4388 6.62496 27.5417 7.60753 27.0002 8.27586L16.4573 21.2896C15.9761 21.8833 15.1433 22.0298 14.4959 21.671C14.4147 21.6311 14.3375 21.5781 14.2649 21.5194L13.9888 21.2954L13.4987 20.8987L12.7149 20.2637L12.2251 19.8667L11.7351 19.4698L8.73896 17.0423C8.07265 16.5026 7.96925 15.5165 8.50896 14.8502L16.8709 4.52918L17.2679 4.03916L17.6646 3.54914L18.5142 2.50099L18.9109 2.01097L19.0522 1.83645C19.1412 1.72674 19.2406 1.63216 19.351 1.556C19.9056 1.15172 20.6859 1.15425 21.2445 1.60669L26.7705 6.08374ZM18.3414 0.754938C17.1873 -0.0241069 15.6197 0.159999 14.6779 1.19831C13.5108 0.583695 12.0311 0.855566 11.1706 1.91758L0.62764 14.9313C-0.350391 16.1384 -0.165528 17.9174 1.04352 18.8969L6.56947 23.374C7.73539 24.3187 9.43622 24.1745 10.4344 23.0744C11.4861 23.6312 12.7938 23.4635 13.6709 22.6454C14.8676 23.4559 16.5112 23.2262 17.4368 22.0837L27.9797 9.06997C28.9577 7.86294 28.7731 6.08392 27.5641 5.10438L22.0379 0.627325C20.9348 -0.266471 19.3525 -0.188541 18.3414 0.754938L18.3414 0.754938Z" id="Fill-1" fill="#000000" fill-rule="evenodd" stroke="none" />
</svg>