<svg width="45" height="45" viewBox="0 0 45 45" xmlns:xlink="http://www.w3.org/1999/xlink" xmlns="http://www.w3.org/2000/svg"><defs><filter filterUnits="userSpaceOnUse" color-interpolation-filters="sRGB" id="filter_1"><feFlood flood-opacity="0" result="BackgroundImageFix"/><feColorMatrix in="SourceAlpha" values="0 0 0 0 0 0 0 0 0 0 0 0 0 0 0 0 0 0 127 0"/><feOffset dy="2"/><feGaussianBlur stdDeviation="12.5"/><feColorMatrix values="0 0 0 0 0 0 0 0 0 0 0 0 0 0 0 0 0 0 0.14117648 0"/><feBlend in2="BackgroundImageFix" result="effect0_dropShadow"/><feBlend in="SourceGraphic" in2="effect0_dropShadow" result="shape"/></filter></defs><g id="buttons/play"><g id="play"><path d="M22.5 45C34.926 45 45 34.926 45 22.5S34.926 0 22.5 0 0 10.074 0 22.5 10.074 45 22.5 45z" id="Oval" fill="#F59B00" stroke="none"/><g filter="url(#filter_1)"><path d="M14.65 9.95L2.932 16.137q-.057.03-.115.056-.059.026-.12.049-.06.022-.121.04-.061.02-.124.034-.063.014-.126.025-.063.01-.127.017-.064.006-.128.008-.065.003-.129 0-.064-.001-.128-.007t-.128-.016q-.063-.01-.126-.024-.062-.014-.124-.032-.062-.018-.122-.04-.06-.022-.12-.048-.058-.026-.115-.056-.057-.03-.112-.063t-.108-.07q-.053-.036-.103-.076-.05-.04-.098-.083-.048-.043-.092-.09-.045-.045-.087-.094-.042-.049-.08-.1-.039-.052-.074-.106-.035-.053-.067-.11-.031-.055-.06-.113-.027-.058-.051-.118-.024-.06-.045-.12-.02-.061-.036-.123-.017-.062-.029-.125t-.02-.127q-.009-.064-.013-.128T0 14.368V1.998q0-.064.004-.128t.012-.128q.009-.064.021-.127.012-.063.029-.125.016-.062.036-.123.02-.06.045-.12.024-.06.052-.118.028-.058.06-.114Q.29.96.324.905.36.853.4.8.437.75.479.7.521.651.566.605.61.56.658.515.706.474.756.434T.859.356Q.912.32.967.286q.055-.033.112-.062.057-.03.116-.056.059-.026.119-.048.06-.022.122-.04.062-.018.124-.032.063-.014.126-.024.064-.01.128-.016T1.942 0q.064-.002.129 0 .064.003.128.01.064.006.127.016t.126.025q.063.015.124.033.062.019.122.041.06.023.119.05.058.025.115.055L14.65 6.415q.06.032.118.067.058.036.113.076.055.039.107.082.053.043.102.09.05.046.095.096.046.05.089.103.042.053.081.108.04.056.074.114.035.058.066.118.031.06.058.123.027.062.05.126.022.064.04.13.018.065.032.131.014.066.023.134.01.067.014.135.004.067.004.135t-.004.135q-.005.068-.014.135-.01.068-.023.134-.014.066-.032.132-.018.065-.04.129-.023.064-.05.126-.027.062-.058.123-.03.06-.066.118-.035.058-.074.114-.039.055-.081.108-.043.053-.089.103-.046.05-.095.096-.05.047-.102.09-.052.043-.107.082-.055.04-.113.076-.058.035-.118.067z" transform="translate(16 14)" id="Triangle" fill="#FFF" stroke="none"/></g></g></g></svg>