<svg width="24" height="24" viewBox="0 0 24 24" xmlns:xlink="http://www.w3.org/1999/xlink" xmlns="http://www.w3.org/2000/svg"><g id="plus" stroke="none"><path d="M12 24c6.627 0 12-5.373 12-12S18.627 0 12 0 0 5.373 0 12s5.373 12 12 12z" id="Oval" fill="#8C0014"/><path d="M8.001 0h-.002q-.05 0-.097.01-.049.01-.094.028-.045.019-.086.046-.041.027-.076.062-.035.035-.062.076-.027.04-.046.086-.019.045-.028.094Q7.5.45 7.5.499V7.5H.499q-.05 0-.097.01-.049.01-.094.028-.045.019-.086.046-.041.027-.076.062-.035.035-.062.076-.027.04-.046.086-.019.045-.028.094Q0 7.95 0 7.999v.002q0 .05.01.097.01.049.028.094.019.045.046.086.027.041.062.076.035.035.076.062.04.027.086.046.045.019.094.028.048.01.097.01H7.5v7.001q0 .05.01.097.01.049.028.094.019.045.046.086.027.041.062.076.035.035.076.062.04.027.086.046.045.019.094.028.048.01.097.01h.002q.05 0 .097-.01.049-.01.094-.028.045-.019.086-.046.041-.027.076-.062.035-.035.062-.076.027-.04.046-.086.019-.045.028-.094.01-.048.01-.097V8.5h7.001q.05 0 .097-.01.049-.01.094-.028.045-.019.086-.046.041-.027.076-.062.035-.035.062-.076.027-.04.046-.086.019-.045.028-.094.01-.048.01-.097v-.002q0-.05-.01-.097-.01-.049-.028-.094-.019-.045-.046-.086-.027-.041-.062-.076-.035-.035-.076-.062-.04-.027-.086-.046-.045-.019-.094-.028-.048-.01-.097-.01H8.5V.499q0-.05-.01-.097-.01-.049-.028-.094-.019-.045-.046-.086Q8.389.18 8.354.146 8.319.111 8.278.084q-.04-.027-.086-.046Q8.147.019 8.098.01 8.05 0 8.001 0z" transform="translate(4 4)" id="Combined-Shape" fill="#FFF" fill-rule="evenodd"/></g></svg>