<svg width="41" height="41" xmlns:xlink="http://www.w3.org/1999/xlink" xmlns="http://www.w3.org/2000/svg"><g id="hit" transform="translate(.5 .5)" fill-rule="evenodd" stroke="none"><path d="M20 40c11.046 0 20-8.954 20-20S31.046 0 20 0 0 8.954 0 20s8.954 20 20 20z" id="Oval" fill="#FFF"/><path d="M4.105 8.696c-1.215 0-2.202-.417-2.963-1.251C.38 6.61 0 5.578 0 4.348S.389 2.085 1.166 1.25C1.943.417 2.939 0 4.154 0c1.214 0 2.202.417 2.963 1.25.76.835 1.141 1.867 1.141 3.098 0 1.214-.388 2.243-1.165 3.085-.778.842-1.774 1.263-2.988 1.263zM1.7 17.197L14.112.194h2.89L4.592 17.197H1.7zm12.85.194c-1.215 0-2.203-.417-2.964-1.25-.761-.835-1.142-1.867-1.142-3.097 0-1.231.39-2.264 1.166-3.097.778-.834 1.774-1.251 2.988-1.251s2.202.417 2.963 1.25c.761.835 1.142 1.867 1.142 3.098 0 1.214-.389 2.242-1.166 3.084-.777.842-1.773 1.263-2.988 1.263zM4.153 6.485c.485 0 .866-.206 1.141-.62.275-.412.413-.918.413-1.517 0-.583-.15-1.085-.45-1.506-.299-.421-.683-.632-1.153-.632-.486 0-.866.203-1.142.608-.275.404-.413.914-.413 1.53 0 .583.15 1.085.45 1.506.3.42.684.631 1.154.631zm10.444 8.696c.486 0 .866-.206 1.142-.62.275-.412.412-.918.412-1.518 0-.582-.15-1.084-.449-1.505-.3-.421-.684-.632-1.154-.632-.485 0-.866.202-1.141.607-.275.405-.413.915-.413 1.53 0 .583.15 1.085.45 1.506.299.421.683.632 1.153.632z" transform="translate(10.435 11.304)" id="%" fill="#8C0014"/></g></svg>