<svg width="16" height="16" viewBox="0 0 16 16" xmlns:xlink="http://www.w3.org/1999/xlink" xmlns="http://www.w3.org/2000/svg"><path d="M8.726 5.538H14V0l-2.123 2.186a6.99 6.99 0 00-9.84 0C-.693 4.884-.67 9.27 2.053 11.97c2.73 2.707 7.163 2.707 9.893 0C13.317 10.617 14 8.618 14 7.078h-1.556c0 1.54-.529 2.76-1.586 3.803a5.46 5.46 0 01-7.685 0 5.347 5.347 0 010-7.614c2.123-2.1 5.561-2.023 7.685.077L8.726 5.538zM7.388 7.194V3.89H6.222v3.889L9.55 9.753l.56-.94-2.723-1.619z" transform="translate(1 1)" id="price-updated" fill="#B2B6B8" fill-rule="evenodd" stroke="none"/></svg>