<svg width="219" height="40" viewBox="0 0 219 40" xmlns:xlink="http://www.w3.org/1999/xlink" xmlns="http://www.w3.org/2000/svg"><g id="header-logo-slogan" stroke="none"><path d="M17.218 1.565A6.438 6.438 0 0012.372.032H0v20.24h3.698v-6.747h8.674c4.339 0 7.07-2.41 7.07-6.586v-.803a6.438 6.438 0 00-2.224-4.57zM15.746 7.26a3.024 3.024 0 01-3.213 2.73H3.535V3.243h9.32a3.24 3.24 0 012.891 3.535v.482z" transform="translate(53.23 9.78)" id="Path_3712" fill="#000" fill-rule="evenodd"/><path d="M11.726 21.21C5.301 21.21 0 16.872 0 10.604 0 4.337 5.302 0 11.726 0c6.425 0 11.727 4.337 11.727 10.605 0 6.268-5.302 10.604-11.726 10.604m0-17.83a7.356 7.356 0 00-7.871 6.747v.484c0 4.177 3.052 7.23 7.87 7.23 4.82 0 7.871-3.053 7.871-7.23 0-4.177-3.052-7.229-7.87-7.229" transform="translate(74.418 9.169)" id="Path_3713" fill="#000"/><path d="M11.726 21.22C4.98 21.22 0 16.881 0 10.614 0 4.346 5.14.01 11.726.01c3.37-.126 6.674.957 9.317 3.052l-1.928 2.901a12.026 12.026 0 00-7.228-2.57c-4.98 0-8.032 3.052-8.032 7.07 0 4.018 3.052 7.229 8.031 7.229 2.663.04 5.262-.808 7.39-2.41l1.927 2.892a16.221 16.221 0 01-9.476 3.045" transform="translate(101.21 9.158)" id="Path_3714" fill="#000"/><path d="M4.015 20.074l2.25-4.818 10.921.005 2.25 4.818h4.015L13.653 0H9.798L0 20.074h4.015zm11.566-8.031h-7.71l3.855-8.193 3.855 8.193z" transform="translate(146.93 9.656)" id="Path_3715" fill="#000" fill-rule="evenodd"/><path d="M16.866 20.08v-8.675H3.694v8.674H0V0h3.695v8.193h13.172V0h3.691v20.08h-3.692z" transform="translate(173.113 9.813)" id="Path_3716" fill="#000"/><path d="M0 20.08V0h3.695v9.316L13.815 0h4.498L8.032 9.638 18.79 20.08h-4.98L3.695 10.281v9.798H0z" transform="translate(199.293 9.813)" id="Path_3717" fill="#000"/><path d="M12.53 7.389H3.854V3.212h14.297V0H0v20.08h12.372c4.337 0 7.389-2.41 7.389-6.426s-2.731-6.265-7.229-6.265m.321 9.316H3.858v-5.942h8.995c2.25 0 3.695 1.284 3.695 3.052 0 1.767-1.125 3.052-3.695 2.891" transform="translate(126.098 9.656)" id="Path_3718" fill="#000"/><path d="M0 0h40.32v20.56H0V0z" id="Rectangle_2047" fill="#E9041E"/><path d="M0 0h40.32v20.08H0V0z" transform="translate(0 19.546)" id="Rectangle_2048" fill="#000"/><path d="M0 0h26.183v2.41H0V0z" transform="translate(6.922 18.463)" id="Rectangle_2049" fill="#FFF"/></g></svg>