<?xml version="1.0" encoding="utf-8"?>
<svg width="6px" height="11px" viewBox="0 0 6 11" version="1.1" xmlns:xlink="http://www.w3.org/1999/xlink" xmlns="http://www.w3.org/2000/svg">
  <desc>Created with Lunacy</desc>
  <path d="M3.99924 1C3.99924 0.447715 3.55152 3.38271e-17 2.99924 0C2.44695 -3.38271e-17 1.99923 0.447715 1.99923 1L1.99923 6.587L1.70723 6.294C1.45447 6.04141 1.08615 5.94286 0.741015 6.03547C0.395885 6.12808 0.126377 6.39778 0.0340126 6.74297C-0.0583517 7.08816 0.0404602 7.45641 0.293227 7.709L2.29323 9.708C2.48011 9.89671 2.73466 10.0029 3.00024 10.0029C3.26581 10.0029 3.52037 9.89671 3.70724 9.708L5.70725 7.709C6.09799 7.31826 6.09799 6.68474 5.70725 6.294C5.3165 5.90326 4.68299 5.90326 4.29224 6.294L4.00024 6.587L3.99924 1Z" id="Path" fill="#8C0014" stroke="none" />
</svg>