<?xml version="1.0" encoding="utf-8"?>
<svg width="18px" height="18px" viewBox="0 0 18 18" version="1.1" xmlns:xlink="http://www.w3.org/1999/xlink" xmlns="http://www.w3.org/2000/svg">
  <desc>Created with Lunacy</desc>
  <g id="icon/-arrow/-up" transform="matrix(1 0 0 -1 0 18)">
    <path d="M1.28438 0.219375L4.19438 3.12938L7.10438 0.219375C7.39688 -0.073125 7.86938 -0.073125 8.16188 0.219375L8.16188 0.219375C8.45438 0.511875 8.45438 0.984375 8.16188 1.27688L4.71938 4.71938C4.42688 5.01188 3.95438 5.01188 3.66188 4.71938L0.219375 1.27688C-0.073125 0.984375 -0.073125 0.511875 0.219375 0.219375L0.219375 0.219375C0.511875 -0.065625 0.991875 -0.073125 1.28438 0.219375Z" transform="matrix(1 -1.7484555E-07 -1.7484555E-07 -1 4.8056254 11.686876)" id="Shape" fill="#8C0014" stroke="none" />
  </g>
</svg>