<?xml version="1.0" encoding="utf-8"?>
<svg width="24px" height="24px" viewBox="0 0 24 24" version="1.1" xmlns:xlink="http://www.w3.org/1999/xlink" xmlns="http://www.w3.org/2000/svg">
  <desc>Created with Lunacy</desc>
  <g id="shopping-cart">
    <path d="M14.1409 11.9371L18.1923 15.9883C18.8008 16.5969 18.8008 17.5836 18.1923 18.1923C17.5836 18.8008 16.5969 18.8008 15.9883 18.1923L11.9369 14.1409C11.9153 14.1193 11.9004 14.0941 11.8803 14.0716C10.6711 14.8688 9.22367 15.3341 7.66696 15.3341C3.43259 15.3341 0 11.9013 0 7.66704C0 3.43266 3.43266 0 7.66704 0C11.9014 0 15.3341 3.43266 15.3341 7.66711C15.3341 9.22375 14.8688 10.6712 14.0716 11.8805C14.0941 11.9005 14.1194 11.9156 14.1409 11.9371ZM2.64209 7.6149C2.64209 10.3614 4.86854 12.5878 7.6151 12.5878C10.3615 12.5878 12.588 10.3614 12.588 7.6149C12.588 4.86841 10.3615 2.64189 7.6151 2.64189C4.86861 2.64189 2.64209 4.86834 2.64209 7.6149Z" transform="translate(2.756836 2.7567596)" id="Shape" fill="#8C0014" fill-rule="evenodd" stroke="none" />
  </g>
</svg>