<svg width="40" height="40" viewBox="0 0 40 40" xmlns:xlink="http://www.w3.org/1999/xlink" xmlns="http://www.w3.org/2000/svg"><g id="truck" stroke="none"><path d="M25 10h3.75c.691 0 1.25.56 1.25 1.25v5c0 .69-.559 1.25-1.25 1.25H27.5v13.75c0 .69-.559 1.25-1.25 1.25h-10V40h-2.5v-7.5h-10a1.25 1.25 0 01-1.25-1.25V17.5H1.25A1.25 1.25 0 010 16.25v-5C0 10.56.559 10 1.25 10H5V1.25C5 .56 5.559 0 6.25 0H10c.691 0 1.25.56 1.25 1.25V10h7.5V1.25C18.75.56 19.309 0 20 0h3.75C24.441 0 25 .56 25 1.25V10zM8.75 10H7.5V2.5h1.25V10zm12.5 0h1.25V2.5h-1.25V10zm6.25 5h-25v-2.5h25V15zM5 30h20V17.5H5V30z" transform="translate(5)" id="Fill-1" fill="#8C0014" fill-rule="evenodd"/><path d="M0 2.5h12.5V0H0v2.5z" transform="translate(13.75 20)" id="Fill-4" fill="#A6A6A6"/><path d="M0 2.5h12.5V0H0v2.5z" transform="translate(13.75 25)" id="Fill-6" fill="#A6A6A6"/></g></svg>