<?xml version="1.0" encoding="utf-8"?>
<svg width="40px" height="40px" viewBox="0 0 40 40" version="1.1" xmlns:xlink="http://www.w3.org/1999/xlink" xmlns="http://www.w3.org/2000/svg">
  <desc>Created with Lunacy</desc>
  <defs>
    <filter id="filter_1">
      <feColorMatrix in="SourceGraphic" type="matrix" values="0 0 0 0 0.54901963 0 0 0 0 0 0 0 0 0 0.078431375 0 0 0 1 0" />
    </filter>
  </defs>
  <g id="truck">
    <g id="check-form" transform="translate(0.6666667 0)" filter="url(#filter_1)">
      <path d="M30.0097 3.21536L30.0097 21.1674C30.0097 22.0517 30.733 22.7751 31.6172 22.7751C32.5014 22.7751 33.2248 22.0517 33.2248 21.1674L33.2248 1.60763C33.2248 0.723402 32.5014 0 31.6172 0L1.60763 0C0.723494 0 0 0.723402 0 1.60763L0 38.3159C0 39.2001 0.723402 39.9235 1.60763 39.9235L15.5407 39.9235C16.4249 39.9235 17.1483 39.2001 17.1483 38.3159C17.1483 37.4316 16.4249 36.7082 15.5407 36.7082L3.21536 36.7082L3.21536 3.21536L30.0097 3.21536ZM9.64598 9.37802L24.1149 9.37802C24.9991 9.37802 25.7225 10.1014 25.7225 10.9857C25.7225 11.8699 24.9991 12.5933 24.1149 12.5933L9.64598 12.5933C8.76175 12.5933 8.03835 11.8699 8.03835 10.9857C8.03835 10.1014 8.76175 9.37802 9.64598 9.37802ZM25.7226 19.8278C25.7226 18.9435 24.9992 18.2201 24.1149 18.2201L9.64598 18.2201C8.76175 18.2201 8.03835 18.9435 8.03835 19.8278C8.03835 20.712 8.76175 21.4354 9.64598 21.4354L24.1149 21.4354C24.9991 21.4354 25.7226 20.712 25.7226 19.8278ZM38.2891 25.0794C37.6192 24.4899 36.6011 24.5435 36.0116 25.2134L27.1962 35.0201L22.7752 30.7598C22.1321 30.1435 21.1139 30.1703 20.4977 30.8134C19.8814 31.4566 19.9081 32.4747 20.5513 33.0909L26.178 38.5034C26.4727 38.7981 26.8747 38.9589 27.3034 38.9589L27.357 38.9589C27.7857 38.9321 28.2143 38.7446 28.4823 38.423L38.3962 27.3837C39.0125 26.6871 38.9589 25.669 38.2891 25.0794ZM8.03835 28.4019C8.03835 27.5177 8.76175 26.7943 9.64598 26.7943L13.9331 26.7943C14.8173 26.7943 15.5407 27.5177 15.5407 28.4019C15.5407 29.2862 14.8173 30.0096 13.9331 30.0096L9.64598 30.0096C8.76175 30.0096 8.03835 29.2862 8.03835 28.4019Z" transform="translate(0.08855172 0)" id="Shape" fill="#FFFFFF" fill-rule="evenodd" stroke="none" />
    </g>
  </g>
</svg>