<svg xmlns="http://www.w3.org/2000/svg" width="40" height="40" viewBox="0 0 40 40">
  <path fill="#8C0014" d="M30.7648736,21.1674483 L30.7648736,3.21535632 L3.97057471,3.21535632 L3.97057471,36.7082299 L16.295908,36.7082299 C17.1801379,36.7082299 17.9035402,37.4316322 17.9035402,38.3158621 C17.9035402,39.200092 17.1801379,39.9234943 16.295908,39.9234943 L2.36285057,39.9234943 C1.47862069,39.9234943 0.755218391,39.200092 0.755218391,38.3158621 L0.755218391,1.60763218 C0.755218391,0.723402299 1.47871264,0 2.36285057,0 L32.3724138,0 C33.2566437,0 33.980046,0.723402299 33.980046,1.60763218 L33.980046,21.1674483 C33.980046,22.0516782 33.2566437,22.7750805 32.3724138,22.7750805 C31.4881839,22.7750805 30.7648736,22.0516782 30.7648736,21.1674483 Z M39.0443218,25.0794483 C38.3744368,24.489931 37.3563218,24.5435402 36.7668046,25.2134253 L27.9514483,35.0201379 L23.5303908,30.7598161 C22.8873563,30.1435402 21.8691494,30.1702989 21.2528736,30.8134253 C20.6365977,31.4565517 20.6633563,32.4746667 21.3064828,33.0909425 L26.9332414,38.5033563 C27.227954,38.798069 27.6298851,38.9588966 28.0585747,38.9588966 C28.0853333,38.9588966 28.0853333,38.9588966 28.1121839,38.9588966 C28.5408736,38.9321379 28.9695632,38.7445517 29.2375172,38.4229885 L39.1514483,27.3837241 C39.7677241,26.6870805 39.7141149,25.6689655 39.0443218,25.0794483 Z M24.870069,9.37802299 L10.4011954,9.37802299 C9.51696552,9.37802299 8.79356322,10.1014253 8.79356322,10.9856552 C8.79356322,11.8698851 9.51696552,12.5932874 10.4011954,12.5932874 L24.870069,12.5932874 C25.7542989,12.5932874 26.4777011,11.8698851 26.4777011,10.9856552 C26.4777011,10.1014253 25.7542989,9.37802299 24.870069,9.37802299 Z M26.4777931,19.8277701 C26.4777931,18.9435402 25.7543908,18.2201379 24.8701609,18.2201379 L10.4011954,18.2201379 C9.51696552,18.2201379 8.79356322,18.9435402 8.79356322,19.8277701 C8.79356322,20.712 9.51696552,21.4354023 10.4011954,21.4354023 L24.870069,21.4354023 C25.7542989,21.4354023 26.4777931,20.712 26.4777931,19.8277701 Z M10.4011954,26.7942989 C9.51696552,26.7942989 8.79356322,27.5177011 8.79356322,28.401931 C8.79356322,29.2861609 9.51696552,30.0095632 10.4011954,30.0095632 L14.6882759,30.0095632 C15.5725057,30.0095632 16.295908,29.2861609 16.295908,28.401931 C16.295908,27.5177011 15.5725057,26.7942989 14.6882759,26.7942989 L10.4011954,26.7942989 Z"/>
</svg>
