<svg width="40" height="40" viewBox="0 0 40 40" xmlns:xlink="http://www.w3.org/1999/xlink" xmlns="http://www.w3.org/2000/svg"><g id="truck" stroke="none"><path d="M38.75 0H1.25C.56 0 0 .56 0 1.25v27.5C0 29.44.56 30 1.25 30H17.5v-2.5h-15v-25h35v25H35V30h3.75c.69 0 1.25-.56 1.25-1.25V1.25C40 .56 39.44 0 38.75 0" transform="translate(0 1.667)" id="Fill-1" fill="#8C0014"/><path d="M0 7.5C0 3.364 3.364 0 7.5 0S15 3.364 15 7.5c0 1.529-.461 2.95-1.25 4.137v12.11a1.252 1.252 0 01-2 1L7.5 21.56l-4.25 3.188a1.252 1.252 0 01-2-1v-12.11A7.452 7.452 0 010 7.5zm7.5 5c-2.758 0-5-2.242-5-5s2.242-5 5-5 5 2.242 5 5-2.242 5-5 5zm3.75 8.747l-3-2.25a1.249 1.249 0 00-1.5 0l-3 2.25v-7.262A7.447 7.447 0 007.5 15a7.447 7.447 0 003.75-1.015v7.262z" transform="translate(18.75 14.17)" id="Fill-3" fill="#8C0014" fill-rule="evenodd"/><path d="M0 2.5h10V0H0v2.5z" transform="translate(5 6.667)" id="Fill-6" fill="#A6A6A6"/><path d="M0 2.5h2.5V0H0v2.5z" transform="translate(5 11.667)" id="Fill-8" fill="#A6A6A6"/><path d="M0 2.5h2.5V0H0v2.5z" transform="translate(10 11.667)" id="Fill-9" fill="#A6A6A6"/><path d="M0 2.5h10V0H0v2.5z" transform="translate(5 17.917)" id="Fill-10" fill="#A6A6A6"/><path d="M0 2.5h10V0H0v2.5z" transform="translate(5 22.917)" id="Fill-11" fill="#A6A6A6"/><path d="M0 2.5h2.5V0H0v2.5z" transform="translate(32.5 6.667)" id="Fill-12" fill="#A6A6A6"/><path d="M0 2.5h2.5V0H0v2.5z" transform="translate(27.5 6.667)" id="Fill-13" fill="#A6A6A6"/></g></svg>