<?xml version="1.0" encoding="utf-8"?>
<svg width="40px" height="40px" viewBox="0 0 40 40" version="1.1" xmlns:xlink="http://www.w3.org/1999/xlink" xmlns="http://www.w3.org/2000/svg">
  <desc>Created with Lunacy</desc>
  <defs>
    <filter id="filter_1">
      <feColorMatrix in="SourceGraphic" type="matrix" values="0 0 0 0 0.54901963 0 0 0 0 0 0 0 0 0 0.078431375 0 0 0 1 0" />
    </filter>
  </defs>
  <g id="truck">
    <g id="delivery-truck-(1)" transform="translate(0 3.3333335)" filter="url(#filter_1)">
      <path d="M35.8337 13.4042L35.8337 12.5002C35.8337 11.1217 34.7123 10.0002 33.3337 10.0002L25 10.0002L25 5.83326C25 5.37303 24.627 4.9999 24.1666 4.9999L21.6666 4.9999L21.6666 2.50029C21.6666 2.04006 21.2934 1.66693 20.8332 1.66693L9.51242 1.66693L8.08945 0.244043C7.76414 -0.0813477 7.23648 -0.0813477 6.91102 0.244043L2.15492 4.9999L0.833359 4.9999C0.373125 4.99998 0 5.37303 0 5.83326L0 29.1667C0 29.6269 0.373125 30.0001 0.833359 30.0001L4.25047 30.0001C4.37586 30.6155 4.6375 31.182 5.00219 31.6667L3.33328 31.6667C2.87305 31.6667 2.5 32.0399 2.5 32.5001C2.5 32.9602 2.87305 33.3334 3.33336 33.3334L8.33313 33.3334L8.3393 33.3331C10.3487 33.3302 12.0292 31.8977 12.4159 30.0001L27.5844 30.0001C27.7098 30.6156 27.9715 31.1821 28.3362 31.6668L26.6672 31.6668C26.207 31.6668 25.8338 32.0399 25.8338 32.5001C25.8338 32.9604 26.207 33.3335 26.6672 33.3335L31.667 33.3335L31.6732 33.3332C33.6826 33.3303 35.3631 31.8978 35.7498 30.0002L39.1666 30.0002C39.6269 30.0002 40 29.6271 40 29.1669L40 18.3333C40 15.8604 38.195 13.8023 35.8337 13.4042ZM7.50023 2.01178L8.57742 3.08889L8.57867 3.09014L10.4885 4.99998L4.51203 4.99998L7.50023 2.01178ZM19.9999 4.99998L19.9999 3.33365L11.1791 3.33365L12.8455 4.99998L19.9999 4.99998ZM23.3333 6.66647L23.3333 25.0001L17.6659 25.0001C17.2056 25.0001 16.8325 25.3733 16.8325 25.8335C16.8325 26.2937 17.2055 26.6669 17.6659 26.6669L23.3333 26.6669L23.3333 28.3335L12.4159 28.3335C12.0288 26.4338 10.3454 25.0001 8.33328 25.0001C6.32117 25.0001 4.6375 26.4339 4.25039 28.3335L1.66664 28.3335L1.66664 15.0001L4.99984 15.0001C5.46 15.0001 5.8332 14.6271 5.8332 14.1668C5.8332 13.7065 5.46008 13.3334 4.99984 13.3334L1.66664 13.3334L1.66664 11.6669L11.6664 11.6669C12.1266 11.6669 12.4998 11.2938 12.4998 10.8335C12.4998 10.3733 12.1267 10.0001 11.6664 10.0001L1.66664 10.0001L1.66664 6.66647L23.3333 6.66647ZM35.7498 28.3334L38.3334 28.3334L38.3334 22.5001L28.3337 22.5001C27.8735 22.5001 27.5004 22.127 27.5004 21.6668L27.5004 14.1669C27.5004 13.7066 27.8736 13.3336 28.3337 13.3336L34.167 13.3336L34.167 12.5003C34.167 12.0408 33.7932 11.6669 33.3337 11.6669L24.9999 11.6669L24.9999 25.0001L31.6607 25.0001L31.6671 25C33.6792 25 35.3627 26.4337 35.7498 28.3334ZM30.8338 15.0001L30.8338 20.8333L29.1671 20.8333L29.1671 15.0001L30.8338 15.0001ZM32.5005 20.8333L38.3334 20.8333L38.3334 18.3332C38.3334 16.4953 36.8382 15.0001 35.0004 15.0001L32.5005 15.0001L32.5005 20.8333ZM5.8332 29.1667C5.8332 30.5451 6.95469 31.6665 8.33328 31.6665C9.71164 31.6665 10.833 30.5451 10.8331 29.1667C10.8331 27.7881 9.71172 26.6665 8.33328 26.6665C6.95469 26.6665 5.8332 27.7881 5.8332 29.1667ZM34.167 29.1694C34.1655 30.5467 33.0446 31.6665 31.6671 31.6665C30.2886 31.6665 29.167 30.5451 29.167 29.1667C29.167 27.7902 30.2851 26.6702 31.6607 26.6667L31.667 26.6667L31.6691 26.6666C33.0458 26.6677 34.1655 27.7874 34.167 29.164L34.1669 29.1667L34.167 29.1694ZM25 28.3334L27.5844 28.3334C27.7097 27.718 27.9713 27.1515 28.336 26.6668L25 26.6668L25 28.3334Z" transform="translate(0 0.05205078)" id="Shape" fill="#FFFFFF" fill-rule="evenodd" stroke="none" />
      <path d="M0.83336 1.66672L1.35352 1.66672C1.81367 1.66672 2.18688 1.29359 2.18688 0.833359C2.18688 0.373125 1.81375 0 1.35352 0L0.83336 0C0.373125 0 0 0.373125 0 0.833359C0 1.29359 0.373203 1.66672 0.83336 1.66672Z" transform="translate(13.572657 25.052109)" id="Shape" fill="#FFFFFF" stroke="none" />
      <path d="M0.83336 1.66672L1.35352 1.66672C1.81367 1.66672 2.18688 1.29367 2.18688 0.833359C2.18688 0.373125 1.81375 0 1.35352 0L0.83336 0C0.373125 0 0 0.373047 0 0.833359C7.8125e-05 1.29359 0.373203 1.66672 0.83336 1.66672Z" transform="translate(13.572657 10.052266)" id="Shape" fill="#FFFFFF" stroke="none" />
    </g>
  </g>
</svg>