<svg width="14" height="16" viewBox="0 0 14 16" xmlns:xlink="http://www.w3.org/1999/xlink" xmlns="http://www.w3.org/2000/svg"><path d="M9.68 13.882c2.215-1.902 3.338-3.993 3.338-6.216V3.152a.75.75 0 00-.621-.738C10.313 2.041 8.439.933 7.507.306a1.78 1.78 0 00-1.995 0C4.58.933 2.705 2.04.622 2.415A.75.75 0 000 3.152v4.514C0 12.39 5.185 15.327 6.51 16a16.6 16.6 0 003.17-2.118zM3.284 6.89l2.422 2.306 4.362-4.856 1.113 1-5.39 6.002-3.539-3.368L3.284 6.89z" id="shield" fill="#8C0014" fill-rule="evenodd" stroke="none"/></svg>