<svg width="24" height="24" viewBox="0 0 24 24" xmlns:xlink="http://www.w3.org/1999/xlink" xmlns="http://www.w3.org/2000/svg"><g id="shopping-cart"><g id="shopping-cart" stroke="none"><path d="M0 0h24v24H0V0z" id="Rectangle-5" fill="none"/><path d="M4.792 0H0v2h3.218l2.77 12.678H6V15h13v-.248l2.193-9.661L21.531 4H5.655l-.57-2.611L4.792 0zm14.195 6H6.092l1.529 7h9.777l1.589-7zM9 20a2 2 0 100-4 2 2 0 000 4zm7 0a2 2 0 100-4 2 2 0 000 4z" transform="translate(1 2)" id="Combined-Shape" fill="#4B4B4B" fill-rule="evenodd"/></g></g></svg>