<?xml version="1.0" encoding="utf-8"?>
<svg width="106px" height="34px" viewBox="0 0 106 34" version="1.1" xmlns:xlink="http://www.w3.org/1999/xlink" xmlns="http://www.w3.org/2000/svg">
  <desc>Created with Lunacy</desc>
  <defs>
    <path d="M3 0L2 0L2 2L0 2L0 3L2 3L2 5L3 5L3 3L5 3L5 2L3 2L3 0Z" transform="translate(13 2)" id="path_1" />
  </defs>
  <g id="buy04">
    <path d="M2.999 0L103.001 0Q103.148 0 103.295 0.014441Q103.442 0.028882 103.586 0.0576249Q103.731 0.0863679 103.872 0.129136Q104.013 0.171904 104.149 0.228285Q104.285 0.284667 104.415 0.354118Q104.545 0.42357 104.667 0.505423Q104.79 0.587276 104.904 0.680742Q105.017 0.774208 105.122 0.878387Q105.226 0.982566 105.319 1.09645Q105.413 1.21034 105.495 1.33284Q105.576 1.45535 105.646 1.58528Q105.715 1.71522 105.772 1.85133Q105.828 1.98745 105.871 2.12844Q105.914 2.26942 105.942 2.41392Q105.971 2.55842 105.986 2.70505Q106 2.85167 106 2.999L106 31.001Q106 31.1483 105.986 31.295Q105.971 31.4416 105.942 31.5861Q105.914 31.7306 105.871 31.8716Q105.828 32.0126 105.772 32.1487Q105.715 32.2848 105.646 32.4147Q105.576 32.5447 105.495 32.6671Q105.413 32.7897 105.319 32.9035Q105.226 33.0174 105.122 33.1216Q105.017 33.2258 104.904 33.3193Q104.79 33.4127 104.667 33.4946Q104.545 33.5764 104.415 33.6459Q104.285 33.7153 104.149 33.7717Q104.013 33.8281 103.872 33.8709Q103.731 33.9136 103.586 33.9424Q103.442 33.9711 103.295 33.9856Q103.148 34 103.001 34L2.999 34Q2.85167 34 2.70505 33.9856Q2.55842 33.9711 2.41392 33.9424Q2.26942 33.9136 2.12844 33.8709Q1.98745 33.8281 1.85133 33.7717Q1.71522 33.7153 1.58528 33.6459Q1.45535 33.5764 1.33284 33.4946Q1.21034 33.4127 1.09645 33.3193Q0.982566 33.2258 0.878387 33.1216Q0.774208 33.0174 0.680742 32.9035Q0.587276 32.7897 0.505423 32.6671Q0.42357 32.5447 0.354118 32.4147Q0.284667 32.2848 0.228285 32.1487Q0.171904 32.0126 0.129136 31.8716Q0.0863679 31.7306 0.0576249 31.5861Q0.028882 31.4416 0.014441 31.295Q0 31.1483 0 31.001L0 2.999Q0 2.85167 0.014441 2.70505Q0.028882 2.55842 0.0576249 2.41392Q0.0863679 2.26942 0.129136 2.12844Q0.171904 1.98745 0.228285 1.85133Q0.284667 1.71522 0.354118 1.58528Q0.42357 1.45535 0.505423 1.33284Q0.587276 1.21034 0.680742 1.09645Q0.774208 0.982566 0.878387 0.878387Q0.982566 0.774208 1.09645 0.680742Q1.21034 0.587276 1.33284 0.505423Q1.45535 0.42357 1.58528 0.354118Q1.71522 0.284667 1.85133 0.228285Q1.98745 0.171904 2.12844 0.129136Q2.26942 0.0863679 2.41392 0.0576249Q2.55842 0.028882 2.70505 0.014441Q2.85167 0 2.999 0L2.999 0Z" id="Rectangle" fill="#8C0014" stroke="none" />
    <g id="Group" transform="translate(8.026367 5)">
      <g id="В-корзину" fill="#FFFFFF" transform="translate(22 0)">
        <path d="M1.28516 7.09863L1.28516 16.9014L4.14258 16.9014Q5.5166 16.9014 6.41895 16.1221Q7.32129 15.3428 7.32129 14.085Q7.32129 13.0732 6.72656 12.4409Q6.13184 11.8086 5.14063 11.6924L5.14063 11.665Q5.93359 11.4053 6.38477 10.79Q6.83594 10.1748 6.83594 9.34082Q6.83594 8.34277 6.09082 7.7207Q5.3457 7.09863 4.07422 7.09863L1.28516 7.09863ZM2.43359 11.3027L2.43359 8.1377L3.75293 8.1377Q5.63281 8.1377 5.63281 9.56641Q5.63281 10.3936 5.09277 10.8481Q4.55273 11.3027 3.60938 11.3027L2.43359 11.3027ZM35.7998 16.7031L35.7998 15.6025Q36.7158 16.1152 37.9395 16.1152Q39.792 16.1152 39.792 14.9395Q39.792 13.7773 37.7617 13.7773L37.0713 13.7773L37.0713 12.8271L37.7275 12.8271Q39.5117 12.8271 39.5117 11.7197Q39.5117 11.248 39.1016 10.9678Q38.6914 10.6875 37.9805 10.6875Q36.9619 10.6875 35.9365 11.2002L35.9365 10.1543Q37.0986 9.73047 38.0693 9.73047Q40.626 9.73047 40.626 11.6104Q40.626 12.2188 40.2466 12.6597Q39.8672 13.1006 39.1836 13.2441L39.1836 13.2783Q39.9629 13.3398 40.4346 13.8047Q40.9063 14.2695 40.9063 14.9805Q40.9063 15.9375 40.1338 16.5049Q39.3613 17.0723 38.0078 17.0723Q36.5654 17.0723 35.7998 16.7031ZM22.8799 17.0654Q21.3281 17.0654 20.4019 16.0845Q19.4756 15.1035 19.4756 13.4834Q19.4756 11.7197 20.4395 10.7285Q21.4033 9.7373 23.0439 9.7373Q24.6094 9.7373 25.4878 10.7012Q26.3662 11.665 26.3662 13.374Q26.3662 15.0488 25.4194 16.0571Q24.4727 17.0654 22.8799 17.0654ZM29.2783 15.8896L29.3057 15.8896Q30.0439 17.0654 31.4043 17.0654Q32.8877 17.0654 33.7422 16.0093Q34.5967 14.9531 34.5967 13.1963Q34.5967 11.6172 33.8379 10.6772Q33.0791 9.7373 31.7256 9.7373Q30.1328 9.7373 29.3057 11.1318L29.2783 11.1318L29.2783 9.90137L28.1572 9.90137L28.1572 20.1211L29.2783 20.1211L29.2783 15.8896ZM17.2334 16.9014L18.8057 16.9014L15.3057 13.2783L18.5527 9.90137L17.083 9.90137L14.1436 13.1074L14.1162 13.1074L14.1162 9.90137L12.9951 9.90137L12.9951 16.9014L14.1162 16.9014L14.1162 13.5381L14.1436 13.5381L17.2334 16.9014ZM47.4824 16.9014L48.4941 16.9014L48.4941 9.90137L47.332 9.90137L44.0098 14.7412Q43.7363 15.2197 43.6543 15.418L43.6543 9.90137L42.6289 9.90137L42.6289 16.9014L43.791 16.9014L47.0244 12.1436Q47.332 11.6104 47.4824 11.3164L47.4824 16.9014ZM56.5742 16.9014L55.4531 16.9014L55.4531 13.7227L51.8848 13.7227L51.8848 16.9014L50.7637 16.9014L50.7637 9.90137L51.8848 9.90137L51.8848 12.7725L55.4531 12.7725L55.4531 9.90137L56.5742 9.90137L56.5742 16.9014ZM61.1953 18.0225L64.415 9.90137L63.2529 9.90137L61.2637 15.3018Q61.1611 15.6572 61.127 15.8213L61.0859 15.8213Q60.9766 15.3906 60.9424 15.2881L59.0488 9.90137L57.8047 9.90137L60.5391 16.8877L59.9785 18.2139Q59.5547 19.2256 58.707 19.2256Q58.4063 19.2256 58.0439 19.1025L58.0439 20.1074Q58.3379 20.1963 58.7754 20.1963Q60.334 20.1963 61.1953 18.0225ZM22.9619 10.6807Q21.8818 10.6807 21.2529 11.4155Q20.624 12.1504 20.624 13.4424Q20.624 14.6865 21.2598 15.4043Q21.8955 16.1221 22.9619 16.1221Q24.0488 16.1221 24.6333 15.418Q25.2178 14.7139 25.2178 13.415Q25.2178 12.1025 24.6333 11.3916Q24.0488 10.6807 22.9619 10.6807ZM29.2783 14.0439L29.2783 13.0664Q29.2783 12.041 29.873 11.3608Q30.4678 10.6807 31.4453 10.6807Q32.3682 10.6807 32.9082 11.3438Q33.4482 12.0068 33.4482 13.1758Q33.4482 14.5635 32.8706 15.3428Q32.293 16.1221 31.2744 16.1221Q30.4063 16.1221 29.8423 15.5171Q29.2783 14.9121 29.2783 14.0439ZM2.43359 15.8623L2.43359 12.335L3.75293 12.335Q6.11816 12.335 6.11816 14.0713Q6.11816 14.9053 5.56104 15.3838Q5.00391 15.8623 3.99219 15.8623L2.43359 15.8623Z" />
      </g>
      <g id="Group" transform="translate(0 3)">
        <g id="shopping-cart">
          <path d="M3.59374 0L0 0L0 1.5L2.4138 1.5L4.4904 11.0082L4.5 11.0082L4.5 11.25L14.25 11.25L14.25 11.0639L15.8949 3.81821L16.1481 3L4.2414 3L3.81364 1.04139L3.59374 0ZM14.2402 4.5L4.569 4.5L5.71561 9.75L13.0484 9.75L14.2402 4.5ZM6.75 15C7.57845 15 8.25 14.3285 8.25 13.5C8.25 12.6715 7.57845 12 6.75 12C5.92157 12 5.25 12.6715 5.25 13.5C5.25 14.3285 5.92157 15 6.75 15ZM12 15C12.8285 15 13.5 14.3285 13.5 13.5C13.5 12.6715 12.8285 12 12 12C11.1715 12 10.5 12.6715 10.5 13.5C10.5 14.3285 11.1715 15 12 15Z" transform="translate(0.75 1.5)" id="Combined-Shape" fill="#FFFFFF" fill-rule="evenodd" stroke="none" />
        </g>
        <g id="Combined-Shape">
          <use xlink:href="#path_1" fill="none" stroke="#8C0014" stroke-width="2" />
          <use stroke="none" fill="#FFFFFF" xlink:href="#path_1" fill-rule="evenodd" />
        </g>
      </g>
    </g>
  </g>
</svg>