<svg width="15" height="14" viewBox="0 0 15 14" xmlns:xlink="http://www.w3.org/1999/xlink" xmlns="http://www.w3.org/2000/svg"><defs><clipPath id="mask_1"><use xlink:href="#path_1"/></clipPath><path d="M5.771 11.137C2.295 8.083 0 6.069 0 3.597 0 1.583 1.633 0 3.712 0 4.888 0 6.014.53 6.75 1.367A4.096 4.096 0 019.787 0c2.08 0 3.713 1.583 3.713 3.597 0 2.472-2.295 4.486-5.771 7.546L6.75 12l-.979-.863z" id="path_1"/></defs><g id="shopping-cart" transform="translate(.75 .75)"><path d="M5.771 11.137C2.295 8.083 0 6.069 0 3.597 0 1.583 1.633 0 3.712 0 4.888 0 6.014.53 6.75 1.367A4.096 4.096 0 019.787 0c2.08 0 3.713 1.583 3.713 3.597 0 2.472-2.295 4.486-5.771 7.546L6.75 12l-.979-.863z" id="Icon" fill="none" fill-rule="evenodd" stroke="#8C0014" stroke-width="1.5"/></g></svg>