<svg width="20" height="20" viewBox="0 0 20 20" xmlns:xlink="http://www.w3.org/1999/xlink" xmlns="http://www.w3.org/2000/svg"><defs><path d="M3 0H2v2H0v1h2v2h1V3h2V2H3V0z" transform="translate(13 2)" id="path_1"/></defs><g id="Group" transform="translate(1 1)"><g id="shopping-cart"><path d="M3.594 0H0v1.5h2.414l2.076 9.508h.01v.242h9.75v-.186l1.645-7.246.253-.818H4.241l-.427-1.959L3.594 0zM14.24 4.5H4.57l1.147 5.25h7.332L14.24 4.5zM6.75 15a1.5 1.5 0 100-3 1.5 1.5 0 000 3zM12 15a1.5 1.5 0 100-3 1.5 1.5 0 000 3z" transform="translate(.75 1.5)" id="Combined-Shape" fill="#FFF" fill-rule="evenodd" stroke="none"/></g><g id="Combined-Shape"><use xlink:href="#path_1" fill="none" stroke="#8C0014" stroke-width="2"/><use fill="#FFF" xlink:href="#path_1" fill-rule="evenodd"/></g></g></svg>