<svg width="240" height="30" viewBox="0 0 240 30" xmlns:xlink="http://www.w3.org/1999/xlink" xmlns="http://www.w3.org/2000/svg"><defs><clipPath id="mask_1"><use xlink:href="#path_1"/></clipPath><path d="M0 0h15.383v29.579H0V0z" transform="translate(0 .16)" id="path_1"/></defs><g id="Group-26"><path d="M9.762 0v7.688H6.806a6.804 6.804 0 100 13.606h2.956v7.69c6.753-1.368 11.832-7.337 11.832-14.493C21.594 7.336 16.515 1.37 9.762 0" transform="translate(7.984 .458)" id="Fill-1" fill="#213A8F" stroke="none"/><g id="Group-5"><path d="M0 0h15.383v29.579H0V0z" transform="translate(0 .16)" id="Clip-4" fill="none" stroke="none"/><g clip-path="url(#mask_1)"><path d="M14.79 23.958a9.168 9.168 0 01-9.169-9.17 9.167 9.167 0 019.17-9.167h.592V.014C15.185.008 14.989 0 14.79 0 6.623 0 0 6.621 0 14.789s6.623 14.79 14.79 14.79c.199 0 .395-.004.593-.014v-5.607h-.593z" transform="translate(0 .16)" id="Fill-3" fill="#E9515A" stroke="none"/></g></g><path d="M14.229 15.114A6.663 6.663 0 013.318 9.981 6.663 6.663 0 019.98 3.318a6.63 6.63 0 014.386 1.655l2.345-2.347A9.933 9.933 0 009.981 0C4.467 0 0 4.469 0 9.981c0 5.514 4.468 9.982 9.98 9.982 2.531 0 4.835-.95 6.595-2.502l-2.346-2.347z" transform="translate(36.23 4.969)" id="Fill-6" fill="#E9515A" stroke="none"/><path d="M17.754 0l-7.35 8.874L2.994 0l-.037.085V0L0 .003v18.383h2.958V4.917l7.445 8.854 7.35-8.675v13.29h2.957V.003L17.754 0z" transform="translate(138.855 5.737)" id="Fill-8" fill="#E9515A" stroke="none"/><path d="M9.98 19.963c5.513 0 9.981-4.469 9.981-9.982C19.961 4.47 15.493 0 9.981 0 4.468 0 0 4.469 0 9.981c0 5.513 4.468 9.982 9.98 9.982zm0-16.645a6.663 6.663 0 016.663 6.663 6.663 6.663 0 11-6.662-6.663z" transform="translate(55.094 4.969)" id="Fill-10" fill="#E9515A" fill-rule="evenodd" stroke="none"/><path d="M9.98 19.963c5.513 0 9.982-4.469 9.982-9.982C19.962 4.47 15.493 0 9.98 0S0 4.469 0 9.981c0 5.513 4.469 9.982 9.98 9.982zm0-16.645a6.663 6.663 0 016.663 6.663 6.663 6.663 0 11-6.662-6.663z" transform="translate(115.86 4.969)" id="Fill-12" fill="#E9515A" fill-rule="evenodd" stroke="none"/><path d="M17.602 0h-3.99l-7.59 7.75H2.956V.006H0V18.39h2.957v-7.683h3.037l7.519 7.667h3.992l-8.956-9.13L17.602 0z" transform="translate(98.223 5.733)" id="Fill-14" fill="#E9515A" stroke="none"/><path d="M17.603 0h-3.991l-7.59 7.75H2.957V.006H0V18.39h2.958v-7.683h3.036l7.52 7.667h3.991L8.55 9.244 17.603 0z" transform="translate(221.984 5.733)" id="Fill-16" fill="#213A8F" stroke="none"/><path d="M19.527 18.386h-3.26l-1.76-3.967H5.02l-1.76 3.967H0L8.104 0h3.32l8.103 18.386zM9.763 3.738l-3.43 7.724h6.86l-3.43-7.724z" transform="translate(180.094 5.737)" id="Fill-18" fill="#213A8F" fill-rule="evenodd" stroke="none"/><path d="M14.364 9.18a5.304 5.304 0 011.653 3.846 5.33 5.33 0 01-5.278 5.323v.008H0V0h10.739v.012a5.329 5.329 0 015.277 5.322 5.306 5.306 0 01-1.651 3.846zM2.957 2.958h7.736v.01a2.37 2.37 0 012.367 2.366 2.37 2.37 0 01-2.366 2.367h-.002v.005H2.957V2.958zM10.692 15.4v-.006a2.37 2.37 0 002.368-2.368 2.367 2.367 0 00-2.323-2.363h-7.78V15.4h7.735z" transform="translate(78.469 5.777)" id="Fill-20" fill="#E9515A" fill-rule="evenodd" stroke="none"/><path d="M13.692 0v7.706H2.957V0H0v18.291h2.957v-7.628h10.735v7.628h2.957V0h-2.957z" transform="translate(201.7 5.776)" id="Fill-22" fill="#213A8F" stroke="none"/><path d="M10.693 7.7a5.33 5.33 0 015.325 5.326 5.33 5.33 0 01-5.278 5.323v.008H0V0h14.228v2.958H2.958v4.748h7.735V7.7zm0 7.7v-.006a2.37 2.37 0 002.367-2.368 2.366 2.366 0 00-2.322-2.363h-7.78V15.4h7.735z" transform="translate(163.023 5.777)" id="Fill-24" fill="#213A8F" fill-rule="evenodd" stroke="none"/></g></svg>