<svg width="55" height="50" viewBox="0 0 55 50" xmlns:xlink="http://www.w3.org/1999/xlink" xmlns="http://www.w3.org/2000/svg"><g id="sroki-dostavki" stroke="none"><path d="M22.69 25.84H4.77A4.81 4.81 0 010 21V4.84A4.81 4.81 0 014.77 0h7.29v3.65h3.38V0h7.24a4.81 4.81 0 014.78 4.84V21a4.81 4.81 0 01-4.77 4.84zM9.41 6.36L6 10.43h2.47v5.29h1.87v-5.29h2.43L9.41 6.36zm5.28 4.07l3.36-4.07 3.38 4.07H19v5.29h-1.88v-5.29h-2.43zm5.71 10.26H7v-1.71h13.4v1.71z" transform="translate(0 24.16)" id="Shape" fill="#8C0014" fill-rule="evenodd"/><path d="M.005 14.122V2.452a2.3 2.3 0 114.59 0v9.88l5.79 1.58a2.34 2.34 0 011.62 2.86 2.31 2.31 0 01-2.22 1.73 2.003 2.003 0 01-.6-.08l-7.46-2a2.33 2.33 0 01-1.72-2.3z" transform="translate(28.615 9.038)" id="Path" fill="#8C0014"/><path d="M22.34 45.45c-.55 0-1.09 0-1.62-.06v-4.76c.52 0 1 .08 1.58.08 9.873-.072 17.821-8.127 17.76-18 .196-9.8-7.59-17.904-17.39-18.1C12.87 4.414 4.766 12.2 4.57 22H0C.28 9.836 10.173.094 22.34 0a22.55 22.55 0 0122.38 22.72 22.55 22.55 0 01-22.38 22.73z" transform="translate(9.28)" id="Path" fill="#A6A6A6"/></g></svg>