<svg width="96" height="16" xmlns:xlink="http://www.w3.org/1999/xlink" xmlns="http://www.w3.org/2000/svg"><defs><clipPath id="clip_1"><use xlink:href="#artboard_1" clip-rule="evenodd"/></clipPath><path id="artboard_1" d="M0 0h96v16H0z"/></defs><g id="stars-big" clip-path="url(#clip_1)" fill-rule="evenodd" stroke="none"><g id="star"><path d="M0 0h16v16H0V0z" id="Rectangle-2" fill="none"/><path d="M7.01 11.061l-4.333 2.272.822-4.822L0 5.093l4.84-.709L7.01 0l2.17 4.384 4.84.709-3.5 3.418.822 4.822-4.332-2.272z" transform="translate(.983 1.333)" id="Star" fill="#F59B00"/></g><g id="star" transform="translate(20)"><path d="M0 0h16v16H0V0z" id="Rectangle-2" fill="none"/><path d="M7.01 11.061l-4.333 2.272.822-4.822L0 5.093l4.84-.709L7.01 0l2.17 4.384 4.84.709-3.5 3.418.822 4.822-4.332-2.272z" transform="translate(.983 1.333)" id="Star" fill="#F59B00"/></g><g id="star" transform="translate(40)"><path d="M0 0h16v16H0V0z" id="Rectangle-2" fill="none"/><path d="M7.01 11.061l-4.333 2.272.822-4.822L0 5.093l4.84-.709L7.01 0l2.17 4.384 4.84.709-3.5 3.418.822 4.822-4.332-2.272z" transform="translate(.983 1.333)" id="Star" fill="#F59B00"/></g><g id="star" transform="translate(60)"><path d="M0 0h16v16H0V0z" id="Rectangle-2" fill="none"/><path d="M7.01 11.061l-4.333 2.272.822-4.822L0 5.093l4.84-.709L7.01 0l2.17 4.384 4.84.709-3.5 3.418.822 4.822-4.332-2.272z" transform="translate(.983 1.333)" id="Star" fill="#F59B00"/></g><g id="star" transform="translate(80)"><path d="M0 0h16v16H0V0z" id="Rectangle-2" fill="none"/><path d="M7.01 11.061l-4.333 2.272.822-4.822L0 5.093l4.84-.709L7.01 0l2.17 4.384 4.84.709-3.5 3.418.822 4.822-4.332-2.272z" transform="translate(.983 1.333)" id="Star" fill="#F59B00"/></g></g></svg>