<svg width="169" height="40" viewBox="0 0 169 40" xmlns:xlink="http://www.w3.org/1999/xlink" xmlns="http://www.w3.org/2000/svg"><g id="tinkoff" stroke="none"><path d="M0 0h168.317v39.386H0V0z" id="Rectangle" fill="#FFDD2D"/><path d="M5.71 3.531H0V0h15.524v3.503H9.841v9.656H5.703L5.71 3.53z" transform="translate(13.102 13.104)" id="Path" fill="#000"/><path d="M14.42 0v13.103h-4V5.517l-6.896 7.635H0V0h4v7.662L10.89 0h3.53z" transform="translate(30.098 13.104)" id="Path" fill="#000"/><path d="M4 13.152H0V0h4v4.828h6.428V0h4v13.103h-4V8.276H4v4.876z" transform="translate(47.406 13.104)" id="Path" fill="#000"/><path d="M0 0v13.152l8.083-.021a9.075 9.075 0 002.51-.303 4.531 4.531 0 003.448-4.552 4.42 4.42 0 00-2.979-4.386 8.517 8.517 0 00-2.924-.359H4V0H0zm7.448 9.98H4l-.028-3.304h3.449a4.49 4.49 0 011.545.172c.632.184 1.062.77 1.048 1.428a1.648 1.648 0 01-.993 1.51 3.767 3.767 0 01-1.573.193z" transform="translate(64.723 13.104)" id="Shape" fill="#000" fill-rule="evenodd"/><path d="M4 13.152H0V0h4v4.966h1.097L9.924.028h5.02l-6.4 6.282 6.65 6.842H9.868L5.097 8.186H4v4.966z" transform="translate(80.605 13.104)" id="Path" fill="#000"/><path d="M8.607 13.897c5.352 0 8.58-3.035 8.58-6.952C17.186 3.035 14 0 8.613 0 3.228 0 0 3.028 0 6.945c0 3.917 3.255 6.952 8.607 6.952zm0-10.67c2.648 0 4.386 1.573 4.386 3.718 0 2.152-1.696 3.73-4.38 3.73-2.682 0-4.392-1.585-4.392-3.73s1.738-3.717 4.386-3.717z" transform="translate(95.523 12.772)" id="Shape" fill="#000" fill-rule="evenodd"/><path d="M12.028 13.097c5.048-.11 8.055-2.07 8.055-5.821 0-3.745-3.007-5.897-8.055-5.952V0h-4v1.303C3.007 1.413 0 3.531 0 7.283c0 3.751 3.007 5.71 8.028 5.82v1.318h4v-1.324zm-4-8.96c-2.759.111-3.973 1.38-3.973 3.139 0 1.758 1.214 2.896 3.973 3.007V4.138zm4 0C14.814 4.249 16 5.518 16 7.277c0 1.765-1.186 2.896-3.972 3.007V4.138z" transform="translate(113.867 12.414)" id="Shape" fill="#000" fill-rule="evenodd"/><path d="M12.028 13.097c5.048-.11 8.055-2.07 8.055-5.821 0-3.745-2.986-5.897-8.055-5.952V0h-4v1.303C3.007 1.413 0 3.531 0 7.283c0 3.751 3.007 5.71 8.028 5.82v1.318h4v-1.324zm-3.98-8.96c-2.758.111-3.972 1.38-3.972 3.139 0 1.758 1.214 2.896 3.972 3.007V4.138zm4 0c2.787.111 3.973 1.38 3.973 3.139 0 1.765-1.187 2.896-3.973 3.007V4.138z" transform="translate(135.09 12.414)" id="Shape" fill="#000" fill-rule="evenodd"/></g></svg>