<?xml version="1.0" encoding="utf-8"?>
<svg width="57px" height="19px" viewBox="0 0 57 19" version="1.1" xmlns:xlink="http://www.w3.org/1999/xlink" xmlns="http://www.w3.org/2000/svg">
  <desc>Created with Lunacy</desc>
  <g id="visa">
    <path d="M0 18.41L2.89 0L7.5 0L4.62 18.41L0 18.41L0 18.41Z" transform="translate(20.080078 0.3203125)" id="Path" fill="#01549A" stroke="none" />
    <path d="M13.85 0.770132C12.5344 0.254555 11.133 -0.00673226 9.72 0.000131808C5.16 0.000131808 1.95 2.50013 1.92 6.08013C1.92 8.73013 4.21 10.2001 5.92 11.0801C7.63 11.9601 8.33 12.5601 8.31 13.3601C8.31 14.6001 6.88 15.1601 5.55 15.1601C4.03938 15.1939 2.54421 14.8502 1.2 14.1601L0.62 13.8701L0 18.0001C1.63216 18.664 3.37799 19.0037 5.14 19.0001C9.99 19.0001 13.14 16.5301 13.14 12.7201C13.14 10.6201 11.93 9.03013 9.27 7.72013C7.65 6.87013 6.67 6.30013 6.68 5.44013C6.69 4.58013 7.52 3.86013 9.32 3.86013C10.5088 3.8338 11.6882 4.07651 12.77 4.57013L13.19 4.78013L13.85 0.770132Z" transform="translate(27.580078 0)" id="Path" fill="#01549A" stroke="none" />
    <path d="M9.27 0.0164541L12.83 0.0164541L16.57 18.4065L12.32 18.4065C12.32 18.4065 11.9 16.2865 11.76 15.6465L5.85 15.6465L4.85 18.4165L0 18.4165L6.85 1.53645C7.19651 0.521883 8.2056 -0.11193 9.27 0.0164541ZM8.98 6.73645L7.14 11.8865L10.95 11.8865L9.88 6.56645L9.57 4.97645C9.37 5.67645 8.98 6.73645 8.98 6.73645Z" transform="translate(40.429688 0.3232422)" id="Shape" fill="#01549A" fill-rule="evenodd" stroke="none" />
    <path d="M11.38 0L6.86 12.55L6.38 10C5.27596 6.72661 3.00466 3.9747 0 2.27L4.17 18.37L9.04 18.37L16.27 0L11.38 0Z" transform="translate(4.830078 0.33984375)" id="Path" fill="#01549A" stroke="none" />
    <path d="M7.51 0.00921154L0.07 0.00921154L0 0.389212C5.79 1.90921 9.62 5.59921 11.22 10.0192L9.6 1.55921C9.40446 0.582673 8.50125 -0.0871768 7.51 0.00921154Z" transform="translate(0 0.3203125)" id="Path" fill="#F7A707" stroke="none" />
  </g>
</svg>