<svg width="194" height="40" viewBox="0 0 194 40" xmlns:xlink="http://www.w3.org/1999/xlink" xmlns="http://www.w3.org/2000/svg"><defs><clipPath id="mask_1"><use xlink:href="#path_1"/></clipPath><path d="M0 39.53h193.006V0H0v39.53z" transform="translate(0 .205)" id="path_1"/></defs><g id="Group-19" stroke="none"><path d="M11.352 0L4.766 7.38V0H0v18.633h4.766v-7.844l7.05 7.844h6.155L9.3 8.869 17.341 0h-5.99z" transform="translate(175.035 7.864)" id="Fill-1" fill="#EF3124"/><path d="M11.352 6.95H4.766V0H0v18.633h4.766v-7.348h6.586v7.348h4.766V0h-4.766v6.95z" transform="translate(155.281 7.864)" id="Fill-2" fill="#EF3124"/><g id="Group-18"><path d="M2.515 10.094c-.114 3.474-.562 4.17-2.515 4.17v4.368h.728c4.87 0 6.042-2.515 6.222-8.108l.198-6.189h4.568v14.297h4.765V0H2.846l-.331 10.094z" transform="translate(25.781 7.865)" id="Fill-3" fill="#EF3124"/><path d="M4.766 5.66h3.441c4.535 0 7.116 2.316 7.116 6.42 0 3.177-1.853 6.553-7.05 6.553H0V0h4.766v5.66zm0 8.869h3.077c1.688 0 2.648-.761 2.648-2.45 0-1.555-.993-2.283-2.648-2.283H4.766v4.733z" transform="translate(45.9 7.864)" id="Fill-5" fill="#EF3124" fill-rule="evenodd"/><path d="M13.9 0v6.917c5.46.43 9.134 4.303 9.134 9.73 0 5.428-3.673 9.333-9.134 9.763v7.017H9.135V26.41C3.674 25.947 0 22.075 0 16.647c0-5.394 3.674-9.267 9.135-9.73V0H13.9zM9.135 21.91c-2.648-.365-4.303-2.35-4.303-5.263 0-2.912 1.655-4.898 4.303-5.262V21.91zm4.765 0V11.384c2.648.364 4.302 2.35 4.302 5.262 0 2.913-1.654 4.898-4.302 5.262z" transform="translate(62.845 .517)" id="Fill-7" fill="#EF3124" fill-rule="evenodd"/><path d="M16.25 7.447v6.255c0 1.026.33 1.423 1.191 1.423v4.302h-1.655c-1.82 0-3.21-.695-3.838-1.953-.706 1.041-2.32 2.417-5.23 2.417C2.753 19.89 0 17.243 0 13.37c0-3.707 2.515-5.924 6.752-5.924h4.733c0-2.25-1.192-3.111-3.045-3.111-2.25 0-2.98 1.191-3.144 1.886H.464C.695 3.045 3.376 0 8.44 0c4.898 0 7.81 2.88 7.81 7.447zm-8.274 8.406c1.986 0 3.509-1.225 3.509-3.376v-1.224H7.678c-1.29 0-2.78.297-2.78 2.118 0 1.853 1.357 2.482 3.078 2.482z" transform="translate(87.501 7.07)" id="Fill-9" fill="#EF3124" fill-rule="evenodd"/><path d="M4.998 9.994h5.328c5.725 0 9.001 2.98 9.001 7.91 0 5.23-3.276 8.076-9.001 8.076H0V0h17.342v4.732H4.998v5.262zm0 11.286h5.096c2.648 0 4.137-1.158 4.137-3.376 0-2.15-1.49-3.375-4.137-3.375H4.998v6.751z" transform="translate(113.845 .517)" id="Fill-11" fill="#EF3124" fill-rule="evenodd"/><path d="M16.25 7.447v6.255c0 1.026.33 1.423 1.191 1.423v4.302h-1.654c-1.82 0-3.21-.695-3.84-1.953-.705 1.041-2.32 2.417-5.228 2.417C2.752 19.89 0 17.243 0 13.37c0-3.707 2.515-5.924 6.752-5.924h4.733c0-2.25-1.192-3.111-3.045-3.111-2.25 0-2.98 1.191-3.144 1.886H.464C.695 3.045 3.376 0 8.44 0c4.898 0 7.81 2.88 7.81 7.447zm-8.274 8.406c1.986 0 3.509-1.225 3.509-3.376v-1.224H7.678c-1.29 0-2.78.297-2.78 2.118 0 1.853 1.357 2.482 3.078 2.482z" transform="translate(135.158 7.07)" id="Fill-13" fill="#EF3124" fill-rule="evenodd"/><path d="M0 39.53h193.006V0H0v39.53z" transform="translate(0 .205)" id="Clip-16" fill="none"/><g clip-path="url(#mask_1)" fill="#EF3124"><path d="M0 5.295h25.483V0H0v5.295z" transform="translate(0 34.44)" id="Fill-15"/><path d="M12.41 0c2.87 0 3.708 1.712 4.434 3.878l7.514 22.414h-5.56l-1.688-5.328H7.05l-1.82 5.328H0L7.885 3.878C8.65 1.705 9.541 0 12.411 0zm-.264 5.84L8.572 16.462h7.082L12.278 5.839h-.132z" transform="translate(.53 .205)" id="Fill-17" fill-rule="evenodd"/></g></g></g></svg>