<svg width="51" height="49" xmlns:xlink="http://www.w3.org/1999/xlink" xmlns="http://www.w3.org/2000/svg"><g id="Group-12" transform="translate(.5 .5)" fill="#8C0014" fill-rule="evenodd" stroke="none"><path d="M18 36c9.941 0 18-8.059 18-18S27.941 0 18 0 0 8.059 0 18s8.059 18 18 18z" id="Oval" fill-opacity=".149"/><path d="M42.496 9.39l5.827 3.882a2.628 2.628 0 11-2.916 4.374l-2.74-1.826v20.232a3.097 3.097 0 011.485 1.627c.314.79.296 1.673-.05 2.45a3.105 3.105 0 01-1.742 1.66l-13.183 5.028a14.763 14.763 0 01-10.86-.12l-6.37-2.646v.325a.853.853 0 01-.854.853H4.267a.853.853 0 01-.854-.853H0V42.67h3.413v-8.533H0V32.43h3.413c0-.47.382-.853.854-.853h6.826c.472 0 .854.382.854.853h1.706V15.82l-2.74 1.826a2.628 2.628 0 11-2.915-4.374L27.686.144a.853.853 0 01.948 0l8.06 5.376V3.416c0-.471.381-.853.853-.853h4.266c.472 0 .854.382.854.853v5.973h-.17zm3.857 6.838a.923.923 0 001.023-1.536L28.16 1.88 8.944 14.69a.92.92 0 00-.256 1.28.922.922 0 001.279.256l17.72-11.813a.853.853 0 01.947 0l17.72 11.815zM40.96 4.269H38.4v2.39l2.56 1.706V4.27zM24.954 34.99h6.62a2.987 2.987 0 012.986 2.987 2.895 2.895 0 01-.032.312l5.534-2.349c.286-.117.59-.19.898-.216V14.68l-12.8-8.533-12.8 8.533v17.792c2.667.17 5.273.87 7.665 2.062.6.298 1.26.454 1.93.455zM23.04 14.51a3.413 3.413 0 100 6.827 3.413 3.413 0 000-6.827zm11.343 1.104L20.73 29.266l1.206 1.207L35.59 16.819l-1.207-1.206zM23.04 19.629a1.707 1.707 0 110-3.413 1.707 1.707 0 010 3.413zm10.24 5.12a3.413 3.413 0 100 6.827 3.413 3.413 0 000-6.827zm0 5.12a1.707 1.707 0 110-3.413 1.707 1.707 0 010 3.413zM10.24 43.523H5.12v-10.24h5.12v10.24zm31.508-3.326a1.41 1.41 0 00.79-.757c.16-.36.168-.768.023-1.134a1.409 1.409 0 00-.768-.794 1.356 1.356 0 00-1.064 0l-7.135 3.028a5.256 5.256 0 01-1.97.418c-.017 0-.034.005-.05.005h-10.24v-1.707H31.52c.114 0 .223-.023.335-.033a1.28 1.28 0 00-.282-2.527h-6.619a6.039 6.039 0 01-2.692-.636 18.321 18.321 0 00-8.152-1.924h-2.163v8.067l7.017 2.917a13.055 13.055 0 009.601.103l13.183-5.026zm-34.921 1.62v-1.708h1.706v1.707H6.827z" transform="translate(0 .107)" id="Combined-Shape"/></g></svg>