<svg width="49" height="49" xmlns:xlink="http://www.w3.org/1999/xlink" xmlns="http://www.w3.org/2000/svg"><g id="Group-12" transform="translate(.5 .5)" fill="#8C0014" fill-rule="evenodd" stroke="none"><path d="M.75 18V0l10.5 3L.75 18zM16.5 32.25a8.25 8.25 0 11-16.5 0 8.25 8.25 0 0116.5 0z" transform="translate(23.25 6)" id="Combined-Shape" fill-opacity=".149"/><path d="M40.889 7.06C36.52 2.692 30.527 0 23.924 0A23.88 23.88 0 007.01 7.01 23.88 23.88 0 000 23.924c0 6.45 2.54 12.292 6.705 16.61a23.911 23.911 0 0016.355 7.314c.508 0 .965-.407.965-.915s-.406-.965-.914-.965a21.898 21.898 0 01-15.035-6.704c-3.81-4.013-6.146-9.397-6.146-15.34 0-6.095 2.49-11.581 6.451-15.594 3.962-3.962 9.448-6.4 15.543-6.4 6.095 0 11.58 2.49 15.543 6.451a22.037 22.037 0 016.45 15.594c0 1.93-.254 3.81-.71 5.638a19.924 19.924 0 01-2.134 5.18c-.254.458-.102 1.017.356 1.321.457.254 1.015.102 1.32-.355 1.016-1.778 1.778-3.708 2.337-5.69.508-1.98.812-4.063.812-6.094a23.88 23.88 0 00-7.01-16.915zM23.873 5.232c-5.13 0-9.803 2.082-13.206 5.485C7.314 14.07 5.18 18.743 5.18 23.925A18.807 18.807 0 008.94 35.2c2.387 3.15 5.79 5.587 9.803 6.705.508.152 1.016-.153 1.168-.66.152-.508-.152-1.016-.66-1.169-3.607-1.016-6.654-3.2-8.788-5.993-1.98-2.59-3.149-5.74-3.352-9.143h2.387a.965.965 0 100-1.93H7.111c.254-4.267 2.032-8.077 4.876-10.87a16.721 16.721 0 0110.87-4.877v2.388a.965.965 0 101.93 0V7.263c4.267.254 8.077 2.032 10.87 4.877a16.72 16.72 0 014.876 10.87h-2.387a.964.964 0 100 1.93h2.387c-.05.508-.05 1.016-.152 1.523-.102.813-.305 1.626-.559 2.439a.953.953 0 00.61 1.168c.66.152 1.168-.152 1.32-.66.254-.915.508-1.829.61-2.692.152-.915.203-1.83.203-2.794 0-5.13-2.082-9.803-5.486-13.207-3.352-3.352-8.025-5.485-13.206-5.485zm-.914 8.076c0-.559.457-.965.965-.965s.965.457.914.965v7.771c.457.153.864.407 1.168.712.508.558.864 1.32.864 2.133s-.305 1.575-.864 2.133c-.558.508-1.32.864-2.133.864a2.994 2.994 0 01-2.133-.864 3.014 3.014 0 01-.711-1.168h-5.79a.964.964 0 110-1.93h5.84c.153-.457.407-.864.712-1.168l.05-.051c.305-.305.711-.508 1.118-.66v-7.772zm1.727 11.428c.203-.203.355-.507.355-.812a1.03 1.03 0 00-.305-.762c-.152-.203-.457-.305-.761-.305-.305 0-.56.102-.762.305l-.051.05a1.034 1.034 0 00-.305.763c0 .304.102.558.305.761.152.204.457.305.762.305s.559-.101.762-.305zm7.11 3.607c-2.691 0-5.13 1.067-6.856 2.844a9.68 9.68 0 00-2.845 6.857c0 2.693 1.067 5.13 2.845 6.858a9.713 9.713 0 006.857 2.844c2.692 0 5.13-1.067 6.857-2.844a9.68 9.68 0 002.844-6.858c0-2.692-1.066-5.13-2.844-6.857a9.68 9.68 0 00-6.857-2.844zm5.537 15.187a7.748 7.748 0 01-5.536 2.286 7.748 7.748 0 01-5.537-2.286 7.748 7.748 0 01-2.285-5.536c0-2.134.863-4.115 2.285-5.537a7.747 7.747 0 015.537-2.285c2.184 0 4.114.863 5.536 2.285a7.747 7.747 0 012.286 5.537 7.747 7.747 0 01-2.286 5.536zm-3.135-1.066c-.493.494-1.276.909-2.482.909-1.026 0-1.786-.22-2.443-.776-.47-.407-.838-1.026-.838-1.707 0-.33.102-.58.282-.768.172-.18.43-.274.712-.274.306 0 .478.062.635.203.164.141.25.267.391.627.25.627.61.846 1.26.846.432 0 .745-.102.995-.352.36-.36.431-.948.431-1.661 0-1.277-.36-1.998-1.378-1.998-.564 0-.932.165-1.23.494-.125.14-.25.25-.407.344-.149.087-.297.126-.548.126-.282 0-.509-.063-.713-.267-.203-.203-.297-.517-.297-.87v-4.07c.003-.281.028-.611.282-.865.282-.282.657-.282.955-.282h3.915c.462 0 .642.016.838.118.267.14.447.423.447.806 0 .384-.18.666-.447.807-.196.102-.376.118-.838.118h-3.304v2.366c.321-.29.916-.549 1.691-.549.916 0 1.63.298 2.075.745.87.87 1.003 1.927 1.003 2.977 0 1.269-.165 2.13-.987 2.953z" transform="translate(0 .127)" id="Combined-Shape"/></g></svg>