<svg width="49" height="49" xmlns:xlink="http://www.w3.org/1999/xlink" xmlns="http://www.w3.org/2000/svg"><g id="checklist" transform="translate(.5 .5)" fill="#8C0014" fill-rule="evenodd" stroke="none"><path d="M18 36c9.941 0 18-8.059 18-18S27.941 0 18 0 0 8.059 0 18s8.059 18 18 18z" transform="translate(12 1.5)" id="Oval" fill-opacity=".149"/><path d="M35.179 3.656h-7.16a5.744 5.744 0 00-3.974-1.594h-.821A3.762 3.762 0 0019.874 0c-1.43 0-2.72.82-3.348 2.063h-.823c-1.54 0-2.938.607-3.973 1.593H4.57A4.576 4.576 0 000 8.227V43.43C0 45.949 2.05 48 4.571 48H35.18c2.52 0 4.57-2.05 4.57-4.571V8.227a4.574 4.574 0 00-4.57-4.57zm-19.476.281h1.461a.938.938 0 00.904-.687 1.88 1.88 0 011.807-1.375c.84 0 1.583.565 1.807 1.375a.938.938 0 00.904.688h1.459c2.035 0 3.71 1.57 3.877 3.562H11.826a3.896 3.896 0 013.877-3.563zm4.834.369a.945.945 0 00-.663-.275c-.246 0-.488.1-.663.275a.945.945 0 00-.274.663c0 .246.1.488.274.663a.945.945 0 00.663.274c.247 0 .489-.1.663-.274a.945.945 0 00.275-.663c0-.247-.1-.489-.275-.663zm17.338 39.123a2.7 2.7 0 01-2.696 2.696H4.57a2.7 2.7 0 01-2.696-2.696V8.227A2.7 2.7 0 014.57 5.531h5.845a5.732 5.732 0 00-.479 2.297v.61c0 .517.42.937.938.937h17.998c.518 0 .938-.42.938-.937v-.61a5.73 5.73 0 00-.48-2.297h5.848a2.7 2.7 0 012.696 2.696V43.43zM12.587 14.024a.938.938 0 011.326 1.327l-4.671 4.671a.934.934 0 01-1.326 0l-1.898-1.898A.938.938 0 017.344 16.8l1.235 1.235 4.008-4.01zm7.288.226h13.5a.937.937 0 110 1.875h-13.5a.937.937 0 110-1.875zm0 4.5h5.613a.937.937 0 110 1.875h-5.613a.937.937 0 110-1.875zm9.557 0c.246 0 .488.1.663.275a.944.944 0 01.274.663c0 .246-.1.488-.274.662a.945.945 0 01-.663.275.944.944 0 01-.663-.275.944.944 0 01-.275-.662c0-.247.1-.489.275-.663a.944.944 0 01.663-.275zM7.125 24.375h4.5c.518 0 .938.42.938.938v4.5c0 .517-.42.937-.938.937h-4.5a.937.937 0 01-.938-.938v-4.5c0-.517.42-.937.938-.937zm26.25 0h-13.5a.937.937 0 100 1.875h13.5a.937.937 0 100-1.875zm-25.313 4.5h2.626V26.25H8.062v2.625zm17.426 0h-5.613a.937.937 0 100 1.875h5.613a.937.937 0 100-1.875zm3.944 0c.246 0 .488.1.663.275a.944.944 0 01.274.663c0 .246-.1.488-.274.662a.945.945 0 01-.663.275.944.944 0 01-.663-.275.944.944 0 01-.275-.662c0-.247.1-.489.275-.663a.944.944 0 01.663-.275zM11.625 34.5h-4.5a.937.937 0 00-.938.938v4.5c0 .517.42.937.938.937h4.5c.518 0 .938-.42.938-.938v-4.5a.937.937 0 00-.938-.937zm8.25 0h13.5a.937.937 0 110 1.875h-13.5a.937.937 0 110-1.875zM10.687 39H8.063v-2.625h2.624V39zm9.188 0h5.613a.937.937 0 110 1.875h-5.613a.937.937 0 110-1.875zm10.22.275a.945.945 0 00-.663-.275c-.247 0-.489.1-.663.275a.944.944 0 00-.275.663c0 .246.1.488.275.662a.944.944 0 00.663.275c.246 0 .488-.1.663-.275a.944.944 0 00.274-.662c0-.247-.1-.489-.274-.663z" id="Combined-Shape"/></g></svg>