<svg width="49" height="49" xmlns:xlink="http://www.w3.org/1999/xlink" xmlns="http://www.w3.org/2000/svg"><g id="thumbs-up" transform="translate(.5 .5)" fill="#8C0014" fill-rule="evenodd" stroke="none"><path d="M18 36c9.941 0 18-8.059 18-18S27.941 0 18 0 0 8.059 0 18s8.059 18 18 18z" transform="translate(0 12)" id="Oval" fill-opacity=".149"/><path d="M36.88 3.79c11.127 7.14 14.36 21.948 7.221 33.076l3.674 9.683a.977.977 0 01-1.358 1.221l-8.5-4.416a23.695 23.695 0 01-13.973 4.524h-.01C10.714 47.875-.003 37.155 0 23.934.003 10.713 10.723-.003 23.944 0A23.938 23.938 0 0136.88 3.79zm.313 37.668a.977.977 0 011.036-.088l6.84 3.518-2.98-7.758v-.03a.977.977 0 01.107-.938A21.984 21.984 0 0045.9 23.921c-.016-12.142-9.87-21.972-22.013-21.957-12.141.015-21.972 9.87-21.957 22.012.015 12.142 9.87 21.973 22.013 21.957a21.78 21.78 0 0013.25-4.475zm-.625-21.877c2.364-.03 4.66.156 5.53 1.583.508.84.41 1.915-.283 3.166l-5.638 10.748-.098.146-.176.225c-.8 1.055-1.817 2.081-4.885 2.081H20.455a.977.977 0 01-.341-.058l-1.525-.577c-.379.49-.963.779-1.583.782h-6.742a2.022 2.022 0 01-1.954-1.984V22.6a2.023 2.023 0 011.954-2.061h6.762c.341-.006.678.078.977.244a3.293 3.293 0 011.954-1.202h.284a19.757 19.757 0 003.39-9.683 3.791 3.791 0 017.572 0 25.405 25.405 0 01-1.71 9.683h7.075zm3.166 4.583l.332-.635c.38-.714.46-1.066.332-1.27-.127-.206-.733-.636-3.85-.636H27.94a.977.977 0 01-.87-1.426 22.061 22.061 0 002.15-10.172 1.837 1.837 0 00-3.664 0c0 .088-.03.46-.098 1.065.47.123.951.195 1.437.215a.977.977 0 010 1.954 8.272 8.272 0 01-1.76-.234 19.855 19.855 0 01-3.683 8.227.977.977 0 01-.762.371h-.655a3.674 3.674 0 00-.977.977v12.37l1.583.636h10.416c2.335 0 2.795-.626 3.273-1.29l.108-.147h-1.583a.977.977 0 010-1.954h2.667l1.124-2.13h-2.1a.977.977 0 010-1.954h3.077l1.114-2.013h-2.619a.977.977 0 010-1.954h3.616zm-29.47 11.559l6.772.039.068-13.162-6.84-.107-.068 13.161a.059.059 0 00.068.068z" transform="translate(0 .008)" id="Combined-Shape"/></g></svg>