<svg width="14" height="14" xmlns:xlink="http://www.w3.org/1999/xlink" xmlns="http://www.w3.org/2000/svg"><defs><clipPath id="b"><use xlink:href="#a" clip-rule="evenodd"/></clipPath><path id="a" d="M0 0h14v14H0z"/></defs><g clip-path="url(#b)"><path d="M1.999 0h10.002q.098 0 .196.01t.194.028q.096.02.19.048.094.029.185.066.09.038.177.084.087.046.169.1.081.055.157.118.076.062.146.131.069.07.131.146.063.076.117.157.055.082.101.169.046.086.084.177.037.09.066.185.028.094.048.19.019.096.028.194.01.098.01.196v10.002q0 .098-.01.196t-.028.194q-.02.096-.048.19-.029.094-.066.185-.038.09-.084.177-.046.087-.1.169-.056.081-.118.157-.062.076-.131.146-.07.069-.146.131-.076.063-.157.117-.082.055-.169.101-.086.046-.177.084-.09.037-.185.066-.094.028-.19.048-.096.019-.194.028-.098.01-.196.01H1.999q-.098 0-.196-.01t-.194-.028q-.096-.02-.19-.048-.094-.029-.185-.066-.09-.038-.177-.084-.087-.046-.169-.1-.081-.056-.157-.118-.076-.062-.146-.131-.069-.07-.131-.146-.063-.076-.117-.157-.055-.082-.101-.169-.046-.086-.084-.177-.037-.09-.066-.185-.028-.094-.048-.19-.019-.096-.028-.194Q0 12.099 0 12V1.999q0-.098.01-.196t.028-.194q.02-.096.048-.19.029-.094.066-.185.038-.09.084-.177.046-.087.1-.169Q.392.807.455.731.516.655.585.585.655.516.731.454.807.39.888.337.97.282 1.057.236q.086-.046.177-.084.09-.037.185-.066.094-.028.19-.048.096-.019.194-.028Q1.901 0 2 0z" fill="#8C0014"/><path d="M6.224 8.958H7.68c-.008-.418.03-.707.11-.87.083-.162.293-.376.631-.642.654-.515 1.08-.922 1.28-1.221.2-.299.3-.616.3-.95 0-.606-.272-1.136-.816-1.592C8.641 3.228 7.91 3 6.99 3c-.875 0-1.581.225-2.12.675-.537.45-.827.998-.869 1.642l1.471.173c.103-.45.291-.785.565-1.005.274-.22.614-.329 1.021-.329.422 0 .758.105 1.007.316.249.21.373.464.373.759 0 .212-.07.407-.21.583-.092.112-.371.348-.84.708-.467.36-.779.684-.935.972-.155.288-.233.656-.233 1.102l.005.362zm0 .524V11h1.603V9.482H6.224z" fill="#FFF" fill-rule="evenodd"/></g></svg>