<svg width="50" height="36" viewBox="0 0 50 36" xmlns:xlink="http://www.w3.org/1999/xlink" xmlns="http://www.w3.org/2000/svg"><g id="dostavka-moskva" fill-rule="evenodd" stroke="none"><path d="M.74 24.71h27.2a.74.74 0 00.72-.71V2.19A2.21 2.21 0 0026.46 0H2.22A2.21 2.21 0 000 2.19V24a.74.74 0 00.74.71zM15.96 5.93l6.25 6.18a.9.9 0 01.01 1.28l-6.25 6.19a.92.92 0 01-1.57-.64v-2.56H7.14a.91.91 0 01-.92-.91v-5.44a.91.91 0 01.92-.91h7.25V6.57a.92.92 0 011.57-.64z" transform="translate(.34)" id="Shape" fill="#8C0014"/><path d="M45.81 26.04H50V12.46a5.81 5.81 0 00-1-3.3l-4.49-6.59A5.93 5.93 0 0039.61 0h-7a1.47 1.47 0 00-1.48 1.46v20.9H19.81a6 6 0 012 3.68h12a6.08 6.08 0 0112 0zM45 9.33l-3.6-5.06a.75.75 0 00-.61-.31h-5.56a.74.74 0 00-.74.73v5.05a.73.73 0 00.74.73h9.21A.73.73 0 0045 9.33zM15.74 22.36a4.55 4.55 0 11-4.6 4.55 4.57 4.57 0 014.6-4.55zm24.07 0a4.55 4.55 0 11-4.6 4.55 4.58 4.58 0 014.6-4.55zm-28.07 0h-11a.74.74 0 00-.74.73v2.22a.74.74 0 00.74.73h9a6 6 0 012-3.68zm6.24 4.54a2.27 2.27 0 01-2.24 2.29 2.29 2.29 0 01-2.3-2.27 2.27 2.27 0 014.54-.02zm24.07 0a2.27 2.27 0 01-2.24 2.29 2.29 2.29 0 01-2.3-2.27 2.27 2.27 0 014.54-.02z" transform="translate(0 4.54)" id="Shape" fill="#A6A6A6"/></g></svg>