<svg width="50" height="36" xmlns="http://www.w3.org/2000/svg"><g fill-rule="evenodd"><path d="M1.08 24.71h27.2A.74.74 0 0029 24V2.19A2.21 2.21 0 0026.8 0H2.56A2.21 2.21 0 00.34 2.19V24a.74.74 0 00.74.71zM16.3 5.93l6.25 6.18a.9.9 0 01.01 1.28l-6.25 6.19a.92.92 0 01-1.57-.64v-2.56H7.48a.91.91 0 01-.92-.91v-5.44a.91.91 0 01.92-.91h7.25V6.57a.92.92 0 011.57-.64z" fill="#8C0014"/><path d="M45.81 30.58H50V17a5.81 5.81 0 00-1-3.3l-4.49-6.59a5.93 5.93 0 00-4.9-2.57h-7A1.47 1.47 0 0031.13 6v20.9H19.81a6 6 0 012 3.68h12a6.08 6.08 0 0112 0zM45 13.87l-3.6-5.06a.75.75 0 00-.61-.31h-5.56a.74.74 0 00-.74.73v5.05a.73.73 0 00.74.73h9.21a.73.73 0 00.56-1.14zM15.74 26.9a4.55 4.55 0 11-4.6 4.55 4.57 4.57 0 014.6-4.55zm24.07 0a4.55 4.55 0 11-4.6 4.55 4.58 4.58 0 014.6-4.55zm-28.07 0h-11a.74.74 0 00-.74.73v2.22a.74.74 0 00.74.73h9a6 6 0 012-3.68zm6.24 4.54a2.27 2.27 0 01-2.24 2.29 2.29 2.29 0 01-2.3-2.27 2.27 2.27 0 014.54-.02zm24.07 0a2.27 2.27 0 01-2.24 2.29 2.29 2.29 0 01-2.3-2.27 2.27 2.27 0 014.54-.02z" fill="#A6A6A6"/></g></svg>