<svg width="22" height="22" xmlns="http://www.w3.org/2000/svg"><path d="M0 0h22v22H0V0z" fill="none"/><path d="M19.177 15.904l-.083-.25c-.193-.577-.83-1.18-1.418-1.34l-2.167-.593c-.589-.16-1.426.056-1.856.487l-.786.784a8.324 8.324 0 01-5.855-5.858l.783-.785c.431-.429.646-1.266.486-1.856l-.59-2.168c-.16-.586-.765-1.224-1.341-1.418l-.248-.082c-.58-.194-1.403.002-1.833.433L3.095 4.433c-.21.207-.344.803-.344.805a13.877 13.877 0 004.057 9.955 13.859 13.859 0 009.92 4.055c.02 0 .634-.131.843-.34l1.174-1.175c.43-.428.624-1.254.432-1.83" fill="#4B4B4B"/></svg>