<svg width="18" height="18" xmlns="http://www.w3.org/2000/svg"><path d="M17.92 14.351l-.092-.273c-.21-.63-.905-1.286-1.546-1.461l-2.364-.647c-.642-.174-1.556.06-2.025.53l-.857.856a9.081 9.081 0 01-6.387-6.39l.854-.857c.47-.468.704-1.382.53-2.025L5.39 1.719C5.214 1.079 4.555.383 3.927.172l-.27-.09c-.632-.211-1.531.002-2 .473L.376 1.835c-.23.227-.375.878-.375.88a15.141 15.141 0 004.425 10.86A15.116 15.116 0 0015.248 18c.022 0 .692-.143.92-.37l1.28-1.282c.47-.467.68-1.368.471-1.996" fill="#8C0014"/></svg>