<svg xmlns="http://www.w3.org/2000/svg" width="46" height="46" viewBox="0 0 46 46"><g fill="none" fill-rule="evenodd"><circle cx="23" cy="23" r="23" fill="#8C0014"/><path fill="#FFF" fill-rule="nonzero" d="M22.09 23.667V17.94h-1.777c-1.667 0-1.858-1.155-1.858-2.279 0-1.167.737-1.858 1.818-1.858 1.242 0 1.818 1.026 1.818 2.744v1.393h1.818v-1.393c0-1.718.576-2.744 1.818-2.744 1.081 0 1.818.691 1.818 1.858 0 1.124-.787 2.28-2.434 2.28H23.91v5.725h7.273c1.1 0 1.818-.454 1.818-1.61V19.55c0-1.145-.717-1.61-1.818-1.61h-2.808c.626-.605.99-1.426.99-2.355 0-2.084-1.677-3.586-3.637-3.586-1.454 0-2.212.864-2.727 2.398C22.485 12.864 21.727 12 20.273 12c-1.95 0-3.637 1.502-3.637 3.586 0 .93.2 1.75.837 2.355h-2.655c-1.04 0-1.818.465-1.818 1.61v2.506c0 1.156.727 1.61 1.818 1.61h7.273zM22.084 33v-8h-7.416v5.808c0 1.441.895 2.192 2.42 2.192h4.996zm1.834-8v8h4.996c1.525 0 2.42-.75 2.42-2.192V25h-7.416z"/></g></svg>