<svg width="40" height="40" viewBox="0 0 40 40" xmlns:xlink="http://www.w3.org/1999/xlink" xmlns="http://www.w3.org/2000/svg"><g id="hit" stroke="none"><path d="M20 40c11.046 0 20-8.954 20-20S31.046 0 20 0 0 8.954 0 20s8.954 20 20 20z" id="Oval" fill="#8C0014"/><path d="M3.031 4.273L0 8.696h2.174l1.963-2.982 1.95 2.982h2.236L5.292 4.248 8.199 0H6.025L4.186 2.82 2.36 0H.124l2.907 4.273zM17.242 0v8.696h-1.888V2.994l-3.801 5.702H9.752V0h1.888v5.702L15.466 0h1.776zm4.112 1.764v6.932h1.913V1.764h2.646V0h-7.205v1.764h2.646z" transform="translate(6.957 15.652)" id="ХИТ" fill="#FFF" fill-rule="evenodd"/></g></svg>