<svg width="24" height="24" viewBox="0 0 24 24" xmlns:xlink="http://www.w3.org/1999/xlink" xmlns="http://www.w3.org/2000/svg"><g id="location" fill-rule="evenodd" stroke="none"><path d="M0 0h24v24H0V0z" id="Rectangle-5" fill="none"/><path d="M8 9c-.827 0-1.5-.674-1.5-1.5C6.5 6.673 7.173 6 8 6s1.5.673 1.5 1.5C9.5 8.325 8.827 9 8 9m0-5C6.07 4 4.5 5.57 4.5 7.5S6.07 11 8 11s3.5-1.57 3.5-3.5S9.93 4 8 4m0 13.646c-1.675-1.584-6-6.031-6-9.724C2 4.657 4.691 2 8 2s6 2.657 6 5.922c0 3.693-4.325 8.14-6 9.724M8 0C3.589 0 0 3.553 0 7.922c0 5.475 7.049 11.579 7.349 11.836a.998.998 0 001.302 0C8.951 19.501 16 13.397 16 7.922 16 3.553 12.411 0 8 0" transform="translate(4 2)" id="๐จ-Icon-ะกolor" fill="#8C0014"/></g></svg>