<svg width="184" height="40" viewBox="0 0 184 40" xmlns:xlink="http://www.w3.org/1999/xlink" xmlns="http://www.w3.org/2000/svg"><g id="logo-raif" stroke="none"><path d="M.629 0v15.943h4.057v-5.429h2.343c4.285 0 5.542-3.085 5.542-5.257C12.571 3.086 11.371 0 7.03 0H.63zm46.285 16.114v4.457h3.772v-4.514c2.285 0 6-.914 6-5.6 0-4.628-3.715-5.543-6-5.543V.23h-3.772v4.74c-2.285-.057-6 .915-6 5.543 0 4.686 3.715 5.6 6 5.6zM64 20.571v-4.457c-2.286 0-6-.914-6-5.6 0-4.628 3.714-5.6 6-5.543V.23h3.771v4.685c2.286 0 6 .915 6 5.543 0 4.686-3.714 5.6-6 5.6v4.514H64zM33.829 3.714c1.714 0 3.485-.685 4.285-2.514L35.657.286C35.371 1.543 34.286 1.6 33.83 1.6c-.458 0-1.486-.057-1.829-1.314l-2.457.914c.8 1.829 2.571 2.514 4.286 2.514zm61.542 0c1.715 0 3.486-.685 4.286-2.514L97.2.286C96.914 1.543 95.829 1.6 95.371 1.6c-.457 0-1.485-.057-1.771-1.314l-2.457.914c.686 1.829 2.514 2.514 4.228 2.514zM4.743 3.43v3.6h1.371C8 7.029 8.171 5.886 8.171 5.2c0-.743-.228-1.771-2.057-1.771H4.743zm20.8 1.657v10.8H21.77v-1.2h-.057c-.685 1.085-2 1.543-3.2 1.543-3.143 0-5.371-2.686-5.371-5.772 0-3.086 2.171-5.771 5.371-5.771 1.2 0 2.515.457 3.315 1.428V5.086h3.714zm61.543 0v10.8h-3.772v-1.2h-.057c-.686 1.085-2 1.543-3.2 1.543-3.143 0-5.371-2.686-5.371-5.772 0-3.086 2.171-5.771 5.371-5.771 1.2 0 2.514.457 3.314 1.428V5.086h3.715zm19.257 2.171c-.914 0-2 .4-2.8.914l-.972-2.342c1.143-.629 2.858-1.086 4.4-1.086 1.6 0 4.286.514 4.286 3.028 0 1.143-.571 2.115-1.543 2.515 1.486.4 2.172 1.543 2.172 2.685 0 .8-.515 3.315-4.857 3.315a9.56 9.56 0 01-4.858-1.315l.972-2.571c1.086.686 1.943 1.029 3.257 1.029s1.543-.686 1.543-1.029c0-.857-1.029-.914-1.543-.914h-1.657V9.143h1.886c.342 0 1.257 0 1.257-.914 0-.915-1.086-.972-1.543-.972zm18.343 3.714v.4h-7.943c0 1.543.8 2.4 2.343 2.4.8 0 1.371-.285 1.828-.971h3.657c-.628 2.571-2.971 3.714-5.428 3.714-3.543 0-6.172-2-6.172-5.771 0-3.6 2.458-5.772 5.886-5.772 3.714 0 5.829 2.286 5.829 6zm-96.8 4.915v-10.8h3.771v5.771l3.772-5.771h3.657v10.8h-3.772V9.943l-3.771 5.943h-3.657zm61.543 0v-10.8h3.828v5.771l3.772-5.771h3.657v10.8h-3.772V9.943l-3.771 5.943h-3.714zm37.142.057h3.772V11.6h3.486v4.343h3.771V5.086h-3.771v3.828h-3.486V5.086h-3.772v10.857zm-5.371-6.8h-4.4c.229-1.086 1.143-1.714 2.229-1.714 1.028 0 2 .685 2.171 1.714zM47.2 7.6v6c-1.314 0-2.629-.971-2.571-2.971 0-2.115 1.314-3.029 2.571-3.029zm3.314 0v6c1.257 0 2.572-.914 2.572-2.971 0-2.115-1.315-3.029-2.572-3.029zm13.715 6v-6c-1.258 0-2.572.914-2.572 3.029 0 2 1.314 2.971 2.572 2.971zm3.371 0v-6c1.257 0 2.571.914 2.571 3.029 0 2.057-1.314 2.971-2.571 2.971zm-50.629-3.086c0-1.314.915-2.457 2.458-2.457 1.542 0 2.457 1.143 2.457 2.457 0 1.315-.915 2.4-2.457 2.4-1.543 0-2.458-1.028-2.458-2.4zm61.543 0c0-1.314.915-2.457 2.457-2.457 1.543 0 2.458 1.143 2.458 2.457 0 1.315-.915 2.4-2.458 2.4-1.542 0-2.457-1.028-2.457-2.4zM12.23 37.886c.8-.743 1.142-1.829 1.314-2.915.286-1.485-.229-2.685-1.257-3.485-1.257-1.086-3.029-1.257-4.457-1.257H5.943l.514-3.2h6.572l.514-3.143H2.686L0 39.77h6.343c1.6-.057 4.171-.171 5.886-1.885zm12.742-.857h-6l-1.6 2.742h-4.628l9.086-15.885h4.742L30.23 39.77H25.6l-.629-2.742zm11.772-7.2l.971-5.943h-4.228L30.914 39.77h4.229l1.086-6.857H42l-1.086 6.857h4.229l2.571-15.885h-4.228l-.972 5.943h-5.771zm17.771-5.943h-4.4L47.486 39.77h4.343l1.142-6.914h.058l4.457 6.914h5.657l-5.886-8.342 7.886-7.543H59.77l-6.342 6.571h-.058l1.143-6.571zM23.43 28.743l.914 5.086h-3.6l2.628-5.086h.058zM5.543 33.2l-.572 3.371h1.086c2.514 0 2.972-.685 3.143-1.6.171-1.028-.057-1.771-2.514-1.771H5.543z" transform="translate(45.77)" id="Shape" fill="#000" fill-rule="evenodd"/><g id="Group"><path d="M0 0h37.143v37.143H0V0z" transform="translate(1.314 1.314)" id="Rectangle" fill="#FAEB00"/><path d="M39.771 39.771H0V0h39.771v39.771zM38.457 1.314H1.314v37.143h37.143V1.314z" id="Shape" fill="#000" fill-rule="evenodd"/><path d="M17.257 20.573L5.83 32l-4.515-4.514 11.429-11.429-2.4-2.4V8.972L8.686 7.315v4.115l-1.429 1.428L1.43 7.087 0 8.515c0-1.085.229-4.228 2.857-6.8C5.714-1.028 8.8.23 9.886 1.258l5.828 5.772-1.485 1.485 3.028 3.029 3.029-3.029L18.8 7.03l5.829-5.83c1.085-1.029 4.171-2.286 7.028.457a9.707 9.707 0 012.857 6.8L33.086 7.03l-5.829 5.828-1.428-1.428V7.315L24.17 8.972v4.686l-2.4 2.4L33.2 27.487 28.686 32 17.257 20.573z" transform="translate(2.629 3.828)" id="Path" fill="#000"/></g></g></svg>