<svg width="240" height="17" viewBox="0 0 240 17" xmlns:xlink="http://www.w3.org/1999/xlink" xmlns="http://www.w3.org/2000/svg"><g id="logo-hc" fill="#C8102E" stroke="none"><path d="M6.76 0c3.84 0 6.415 2.092 6.415 5.437 0 2.035-.977 3.668-2.622 4.622l3.644 5.414H9.714l-2.93-4.483H3.851v4.483H0V0h6.76zM3.852 7.53h2.84c1.482 0 2.643-.816 2.643-2.093 0-1.253-1.16-2.046-2.644-2.046h-2.84V7.53z" transform="translate(100.66 .758)" id="Shape" fill-rule="evenodd"/><path d="M11.69 3.345V0H0v15.473h11.69v-3.345H3.853V9.45h6.862V6.173H3.852V3.345h7.839z" transform="translate(116.742 .758)" id="Path"/><path d="M6.207 0c4.863 0 8.347 3.161 8.347 7.69 0 4.599-3.484 7.783-8.347 7.783H0V0h6.207zm0 3.46H3.84v8.553h2.368c2.529 0 4.46-1.862 4.46-4.322 0-2.391-1.931-4.23-4.46-4.23z" transform="translate(131.031 .758)" id="Shape" fill-rule="evenodd"/><path d="M3.852 0H0v15.473h3.852V0z" transform="translate(147.7 .758)" id="Path"/><path d="M0 0v3.437h4.437v12.036h3.817V3.437h4.449V0H0z" transform="translate(153.574 .758)" id="Path"/><path d="M8.185 16.071c3.909 0 6.805-2.334 7.61-5.863h-4.07c-.597 1.426-1.827 2.265-3.563 2.265-2.53 0-4.277-1.862-4.277-4.437 0-2.576 1.748-4.438 4.277-4.438 1.724 0 2.966.85 3.564 2.265h4.07C14.99 2.333 12.094 0 8.185 0 3.529 0 0 3.368 0 8.036c0 4.667 3.53 8.035 8.185 8.035z" transform="translate(82.668 .459)" id="Path"/><path d="M12.668 4.127c0 1.426-.793 2.909-2.139 3.391 1.886.414 2.817 2.012 2.828 3.667 0 2.576-2.08 4.312-5.564 4.312H0V0h7.333c3.37 0 5.335 1.598 5.335 4.127zM3.851 3.15h2.885c1.484 0 2.253.529 2.253 1.506 0 1-.793 1.736-2.253 1.736H3.851V3.15zm0 9.162h3.437c1.598 0 2.3-.713 2.3-1.62 0-.955-.794-1.507-2.232-1.507H3.851v3.127z" transform="translate(175.797 .804)" id="Shape" fill-rule="evenodd"/><path d="M0 15.497L6.588 0h3.689l6.564 15.497h-4.104l-1.046-2.668H5.127l-1.023 2.668H0zM8.404 4.403L6.38 9.623h4.058l-2.034-5.22z" transform="translate(189.348 .804)" id="Shape" fill-rule="evenodd"/><path d="M10.415 8.726L2.943 0H0v15.497h3.852V7l7.425 8.496h2.966V0h-3.828v8.726z" transform="translate(207.477 .804)" id="Path"/><path d="M14.588 0h-4.552L3.852 7.116V0H0v15.497h3.852v-3.139l2.276-2.644 4.149 5.783h4.817L8.691 6.794 14.588 0z" transform="translate(224.906 .804)" id="Path"/><path d="M3.84 9.668h6.3v5.805h3.827V0H10.14v6.22h-6.3V0H0v15.473h3.84V9.668z" transform="translate(0 .679)" id="Path"/><path d="M3.816 7.668l3.46 5.345v.023h2.14v-.023l3.436-5.3v7.76h3.851V0H13.83L8.346 8.265 2.862 0H0v15.473h3.84l-.024-7.805z" transform="translate(41.477 .679)" id="Path"/><path d="M11.691 12.128h-7.84V9.45h6.863V6.173H3.851V3.345h7.84V0H0v15.473h11.691v-3.345z" transform="translate(61.363 .679)" id="Path"/><path d="M15.128 16.151h5.346c1.07-1.62 1.69-3.54 1.69-5.598C22.164 4.725 17.209 0 11.082 0 4.966 0 0 4.725 0 10.553c0 2.058.62 3.978 1.69 5.598h5.345a6.723 6.723 0 01-2.678-5.357 6.726 6.726 0 0113.45 0 6.756 6.756 0 01-2.679 5.357z" transform="translate(16.645)" id="Path"/><path d="M3.633 2.656c1.69 0 3.115-1.116 3.632-2.656H0c.529 1.54 1.954 2.656 3.633 2.656z" transform="translate(24.082 12.29)" id="Path"/></g></svg>