<svg width="197" height="75" xmlns="http://www.w3.org/2000/svg"><path d="M0 75h196.875V0H0v75z" fill="#8C0014"/><path d="M85.566 23.503l1.915 3.655-6.048 3.162-1.915-3.69 6.048-3.127zm-14.61 1.056h-14.8l-7.1 9.83-7.138-9.83H25.127v4.145h2.931v16.91h-2.931v4.14H35.76v-4.14h-2.969v-10.96l10.97 15.1 10.929-15.1v10.96h-2.97v4.14h19.236v-4.14h-2.967v-16.91h2.967v-4.145zm55.591 21.055h-2.93v4.14h19.796v-4.14h-2.968V24.56h-16.827v4.143h2.929v16.912zm-20.394-1.985v-1.93h16.189s.077-.508.077-1.4c0-5.339-5.324-10.51-14.219-10.51-10.298 0-14.22 5.71-14.22 10.508 0 4.498 3.396 10.384 14.236 10.384 8.314 0 12.838-4.06 13.935-7.479l-7.361.002a4.922 4.922 0 01-4.879 3.537c-2.293 0-3.758-1.49-3.758-3.112zm50.593-1.93v1.93c0 1.622 1.461 3.112 3.754 3.112a4.925 4.925 0 004.881-3.537l7.359-.002c-1.097 3.419-5.619 7.479-13.935 7.479-10.838 0-14.236-5.886-14.236-10.384 0-4.798 3.926-10.508 14.218-10.508 8.899 0 14.219 5.171 14.219 10.51 0 .892-.075 1.4-.075 1.4h-16.185zM89.886 30.81H73.622v4.143h2.965v10.66h-2.965v4.14h19.229v-4.14h-2.967V30.811zm16.267 7.643h4.124v-2.647c0-.8-.636-2.065-2.075-2.065-1.333 0-2.05 1.212-2.05 2.053v2.659zm54.715 0h-4.122v-2.659c0-.84.712-2.053 2.047-2.053 1.439 0 2.075 1.266 2.075 2.065v2.647z" fill="#FFF" fill-rule="evenodd"/></svg>