<svg xmlns="http://www.w3.org/2000/svg" width="261" height="75" viewBox="0 0 261 75"><defs><linearGradient id="ml-russia-a" x1="50%" x2="50%" y1="100.153%" y2=".003%"><stop offset="0%" stop-color="#FFF"/><stop offset="100%" stop-color="#B3CFF2"/></linearGradient><linearGradient id="ml-russia-b" x1="50%" x2="50%" y1="100.153%" y2=".003%"><stop offset="0%" stop-color="#FFF"/><stop offset="100%" stop-color="#B3CFF2"/></linearGradient></defs><g fill="none" fill-rule="evenodd"><path fill="url(#ml-russia-a)" d="M24.91 55.056c1.054-.302 1.958.753 1.506 1.657-.15.301-.452.301-.301.452l1.506 2.109.603.15.452-2.711c.15-.15.301-.302.602-.302.151.151.302.302.302.603l-.452 2.712c0 .15.15.15.15.15l2.26-1.506v-.15c-.452-.603-.15-1.357.603-1.658a.96.96 0 01.904 0c.602.301.904.904.602 1.507l-.452.451c-.452.302-.753.151-.753.302l-.452 2.56.15.151 2.411-1.506c.15-.15.452 0 .603.15.15.151 0 .453-.15.603l-2.411 1.507v.15l2.711.452h.151c.301-1.054 1.808-1.054 2.26 0 .301 1.055-.603 1.959-1.657 1.507-.302-.15-.302-.452-.452-.301l-2.26 1.506v.15l2.862.453c.302.15.452.3.452.602-.15.15-.301.301-.602.301l-2.863-.451-.15.15 1.506 2.11h.15c.905-.453 2.11.451 1.658 1.506-.452.904-1.657.904-2.11.15-.3-.452-.15-.753-.3-.753l-2.712-.452c-.15 0-.15.15-.15.15l1.656 2.26c.302.453-.452.905-.753.453l-1.657-2.26h-.15l-.453 2.56v.152l.122.059c.931.511.89 1.911-.122 2.2-.903.302-1.958-.602-1.506-1.657.15-.301.452-.301.301-.452l-1.506-2.109h-.15l-.453 2.712c-.15.15-.301.301-.602.301-.302-.15-.452-.301-.452-.603l.452-2.711c0-.15-.151-.15-.151-.15l-2.26 1.506c-.15.15.301.452 0 1.205-.15.301-.452.452-.753.602-.301.151-.753.151-.904 0l-.123-.07c-.78-.495-.745-1.608-.028-2.039.452-.301.754-.15.754-.301l.452-2.561-.151-.15-2.41 1.506c-.603.301-1.055-.452-.603-.753l2.41-1.507v-.15l-2.711-.453h-.151v.151c-.452.904-1.958.753-2.26-.15-.301-1.055.603-1.959 1.657-1.507.302.15.302.452.452.301l2.26-1.506v-.15l-2.862-.453c-.302-.15-.452-.301-.452-.602.15-.151.301-.302.602-.302l2.863.452.15-.15-1.506-2.11s-.15.151-.603.151l-.602-.15c-.603-.151-.904-.904-.603-1.507.301-.904 1.657-1.055 2.11-.15.3.451.15.753.3.753l2.712.452.15-.151-1.656-2.26c-.151-.15 0-.452.15-.602.15-.151.452 0 .603.15l1.657 2.26h.15l.453-2.561v-.15l-.127-.062c-.926-.502-.884-1.765.127-2.198zm53.33 15.818c1.054 0 2.109.753 1.958 1.808 0 1.054-.753 1.807-1.959 1.807-.903 0-1.958-.753-1.958-1.807 0-1.055.753-1.808 1.958-1.808zM64.68 60.63c.753-.302 1.356.452 1.055 1.054 0 .15-.151.301-.151.301l1.054 1.507.302-2.11c0-.15.15-.3.301-.3.15 0 .301.15.301.3l-.3 1.809h.15l1.506-1.055v-.15c-.15-.302 0-.904.452-1.055.15-.15.452-.15.603 0 .452.15.602.753.452 1.054 0 .151-.151.151-.302.302-.3.15-.452 0-.452.15l-.3 1.658h.15l1.506-1.055c.15 0 .302 0 .452.15 0 .151 0 .302-.15.453l-1.507 1.054v.15l1.808.302.052-.091c.343-.525 1.169-.623 1.454.091.302.603-.3 1.205-1.054.904-.15 0-.15-.15-.301-.15l-1.507 1.054v.15l1.808.302c.15 0 .301.15.301.301 0 .15-.15.301-.301.301l-1.808-.3v.15l1.055 1.506h.15c.603-.301 1.356.302 1.055 1.055-.15.602-1.055.602-1.356.15-.15-.3 0-.452-.15-.452l-1.809-.3v.15l1.055 1.506c.301.302-.15.603-.452.302L68.75 70.27h-.151l-.301 1.657.112.053c.639.342.601 1.168-.112 1.454-.754.15-1.356-.452-1.055-1.055 0-.15.15-.15.15-.301l-1.054-1.507h-.15l-.302 1.808c0 .15-.15.302-.301.302a.324.324 0 01-.301-.302l.3-1.808h-.15l-1.506 1.055c-.15 0 .15.301 0 .753-.15.302-.302.452-.452.452a.458.458 0 01-.603 0l-.101-.058c-.516-.33-.617-1.014-.05-1.298.302-.15.453 0 .453-.15l.3-1.657h-.15l-1.506 1.054c-.302.301-.603-.301-.302-.452l1.507-1.054v-.151l-1.808-.301v.15c-.301.754-1.205.603-1.506 0-.302-.602.452-1.205 1.054-.904.15 0 .15.151.301.151l1.507-1.055v-.15l-1.808-.301a.324.324 0 01-.301-.302c0-.15.15-.301.301-.301l1.808.301v-.15l-1.055-1.507c-.15-.15-.15 0-.452 0h-.3c-.453-.15-.603-.602-.453-1.054.15-.603 1.055-.754 1.356-.151.15.301 0 .452.15.452l1.808.301v-.15l-1.054-1.507c0-.15 0-.301.15-.452.151 0 .302 0 .453.15l1.054 1.507h.15l.302-1.657-.113-.052c-.638-.343-.6-1.169.113-1.454zm1.958 7.381h-.15l-.301 1.808 1.054 1.507h.15l.302-1.808-1.055-1.507zM27.47 66.204h-.151l-.452 2.711 1.657 2.26h.15l.453-2.712-1.657-2.26zm38.566 1.657h-.15l-1.507 1.054-.302 1.808h.151l1.507-1.054.3-1.808zm-17.927-.754c1.355 0 1.958.754 1.958 1.808 0 1.055-.753 1.808-1.958 1.808-.904 0-1.959-.753-1.959-1.808 0-1.054.753-1.808 1.959-1.808zm-21.694-1.054l-2.41 1.506-.452 2.712.15.15 2.41-1.506.453-2.711-.15-.151zm40.826 1.506l1.055 1.658 1.807.3v-.15l-1.054-1.506-1.808-.302zm-3.616-.602L62.12 68.01v.151l1.808.301 1.506-1.054v-.15l-1.808-.302zm-35.25-1.507l1.506 2.41 2.862.453c.151 0 .151-.151.151-.151l-1.657-2.26-2.862-.452zm40.524.452l-1.506 1.055 1.807.452 1.507-1.055v-.15l-1.808-.302zm-6.327-1.054c-.15 0 0 .15 0 .15l1.054 1.507 1.808.301v-.15l-.904-1.507-1.958-.301zm-39.62-.302l-2.411 1.507v.15l2.862.453 2.41-1.507V65l-2.862-.453zm45.947-1.054h-.15l-1.507 1.054-.301 1.808 1.657-1.054.301-1.808zm-3.314-.603h-.15l-.302 1.808 1.055 1.507h.15l.301-1.808-1.054-1.507zm-34.65 0l-2.41 1.507v.15l2.863.452 2.41-1.506v-.15l-2.862-.453zm-9.34-1.807c-.15 0-.15.15-.15.15l1.657 2.26 2.862.452.15-.15-1.656-2.11-2.863-.602zm9.19-1.658l-2.41 1.507-.452 2.712 2.56-1.356.453-2.712-.151-.15zm-4.971-.904h-.151l-.452 2.712 1.657 2.26h.15l.453-2.712-1.657-2.26zm-17.174.904c.903 0 1.958.754 1.958 1.808 0 1.055-.753 1.808-1.958 1.808-1.206 0-2.11-.753-1.959-1.808 0-1.054.753-1.808 1.959-1.808zm58.753-2.56c1.054 0 1.958.903 1.958 1.807 0 1.055-.753 1.808-1.958 1.808-.904 0-1.959-.753-1.959-1.808 0-1.054.754-1.808 1.959-1.808zm10.696-.603c.904 0 1.958.753 1.958 1.808 0 1.054-.753 1.807-1.958 1.807s-2.26-.753-1.959-1.807c0-1.055.754-1.808 1.959-1.808zm-29.377-4.218c1.657-.754 3.465 0 4.218 1.807.904 1.808.302 3.917-1.205 4.67-1.657.754-3.465 0-4.218-1.807-.753-1.808-.15-3.917 1.205-4.67zm-9.49 2.56c1.204 0 2.108.905 1.958 1.808 0 1.055-.754 1.808-1.959 1.808-.904 0-1.958-.753-1.958-1.808 0-1.054.753-1.807 1.958-1.807zm-22.749-1.506c1.055 0 1.959.753 1.959 1.808 0 1.054-.754 1.808-1.959 1.808-.904 0-1.958-.754-1.958-1.808 0-1.055.753-1.808 1.958-1.808zm43.237-.452c.903 0 1.958.904 1.958 1.808 0 1.055-.753 1.808-1.958 1.808-.904 0-1.959-.753-1.959-1.808 0-1.055.753-1.808 1.959-1.808zM39.07 40.141c.754-.301 1.356.452 1.055 1.055 0 .15-.15.301-.15.301l1.054 1.507.301-2.11c0-.15.151-.3.302-.3.15 0 .301.15.301.3l-.301 1.808h.15l1.507-1.054v-.15l-.032-.082c-.092-.317.07-.835.484-.973a.457.457 0 01.602 0c.452.15.603.753.452 1.054 0 .15-.15.15-.301.301-.301.151-.452 0-.452.151l-.301 1.657h.15l1.507-1.054c.15 0 .301 0 .452.15 0 .151 0 .302-.15.452l-1.507 1.055v.15l1.808.302.052-.092c.342-.524 1.169-.622 1.454.092.301.602-.301 1.205-1.055.904-.15 0-.15-.151-.3-.151l-1.507 1.055v.15l1.807.302c.151 0 .302.15.302.3 0 .151-.15.302-.302.302l-1.807-.301v.15l1.054 1.507h.15l.084-.036c.586-.21 1.259.371.971 1.09-.15.603-1.054.603-1.355.151-.151-.301 0-.452-.151-.452l-1.808-.301v.15l1.055 1.507c.301.301-.151.603-.452.301l-1.055-1.506h-.15l-.302 1.657.113.052c.638.343.6 1.169-.113 1.454-.753.151-1.356-.451-1.054-1.054 0-.15.15-.15.15-.301l-1.054-1.507h-.15l-.302 1.808c0 .15-.15.301-.301.301a.324.324 0 01-.302-.301l.302-1.808h-.151l-1.507 1.055c-.15 0 .151.301 0 .753-.15.301-.3.452-.452.452a.458.458 0 01-.602 0l-.102-.058c-.516-.33-.616-1.014-.049-1.298.302-.15.452 0 .452-.15l.301-1.658h-.15l-1.507 1.055c-.301.301-.602-.302-.301-.452l1.507-1.055v-.15l-1.808-.302v.151c-.302.753-1.205.603-1.507 0-.301-.603.452-1.205 1.055-.904.15 0 .15.15.301.15l1.507-1.054v-.15l-1.808-.302a.324.324 0 01-.302-.301c0-.15.151-.301.302-.301l1.808.301v-.15l-1.055-1.507c-.15-.15-.15 0-.452 0h-.301c-.452-.15-.603-.603-.452-1.055.15-.602 1.054-.753 1.356-.15.15.3 0 .452.15.452l1.808.3v-.15L36.962 42.1c0-.15 0-.302.15-.452.15 0 .302 0 .452.15l1.055 1.507h.15l.302-1.657-.113-.053c-.639-.342-.601-1.168.113-1.454zM5.176 49.783c0-1.055.903-2.11 1.958-1.808.904 0 1.958.753 1.958 1.808 0 1.054-.753 1.808-1.958 1.808-.904 0-1.958-.754-1.958-1.808zm35.854-2.11h-.15l-.302 1.809 1.055 1.506h.15l.302-1.808-1.055-1.506zm-.753-.15h-.15l-1.507 1.055-.302 1.807h.151l1.507-1.054.3-1.808zM60.01 27.637c1.054-.3 2.109.754 1.657 1.808-.15.452-.452.452-.301.603l1.808 2.41.602.301.603-3.013c0-.3.301-.451.602-.451.302 0 .452.3.452.602l-.602 3.013c0 .15.15.15.15.15l2.561-1.656v-.151c-.3-.603 0-1.507.754-1.808.3-.15.753-.15 1.054 0 .603.301.904 1.055.603 1.657 0 .302-.302.452-.452.603-.603.301-.904.15-.904.301l-.603 2.863.15.15 2.562-1.808c.301-.15.603-.15.753.151.15.301.15.603-.15.753l-2.561 1.808v.15l3.013.453c.15.15.15 0 .15 0 .452-1.055 2.11-1.205 2.561 0 .452 1.054-.602 2.109-1.808 1.657-.452-.15-.452-.452-.602-.301l-2.561 1.657v.15l3.163.603c.302 0 .452.301.452.603 0 .3-.3.451-.602.451l-3.164-.602-.15.15 1.807 2.41h.15c1.055-.602 2.411.453 1.809 1.658-.452.904-1.808 1.055-2.41.15-.302-.602-.151-.903-.302-.903l-3.013-.452c-.15 0-.15.15-.15.15l1.807 2.562c.301.602-.452 1.205-.904.602l-1.807-2.56h-.151l-.603 2.861c-.15.151 0 .151 0 .151l.134.057c1.07.51 1.025 1.919-.134 2.353-1.054.302-2.109-.753-1.657-1.807.15-.452.452-.452.301-.603l-1.807-2.41h-.151l-.603 3.013c0 .301-.3.452-.602.452s-.452-.302-.452-.603l.602-3.013c0-.15-.15-.15-.15-.15l-2.561 1.657c-.15 0 .301.452 0 1.205-.15.301-.452.452-.753.602a1.285 1.285 0 01-1.055 0l-.132-.063c-.92-.492-.883-1.62-.019-2.196.603-.302.904-.151.904-.302l.15-3.013-.15-.15-2.56 1.807c-.603.302-1.206-.451-.603-.903l2.56-1.808v-.15l-3.012-.453c-.151-.15-.151 0-.151 0v.15c-.603 1.055-2.11.905-2.561-.15-.452-1.054.753-2.109 1.808-1.657.452.15.452.452.602.301l2.561-1.657v-.15l-3.163-.603c-.302 0-.452-.301-.452-.603 0-.3.301-.452.602-.452l3.164.603.15-.15-1.807-2.411c-.15-.15-.301.15-.753.15l-.603-.15c-.603-.15-.904-.904-.603-1.657.452-.904 1.808-1.055 2.41-.15.302.602.151.903.302.903l3.013.452.15-.15-1.807-2.562c-.15-.301-.15-.602.15-.753.302-.15.603-.15.754.15l1.808 2.562h.15l.603-2.863c.15-.15 0-.15 0-.15-1.205-.302-1.205-1.959 0-2.41zM41.48 47.222l1.055 1.657 1.807.301v-.15l-1.054-1.507-1.808-.301zm-3.616-.753l-1.506 1.054v.15l1.808.302 1.506-1.054v-.151l-1.808-.301zm5.273-1.055l-1.506 1.055 1.807.452 1.507-1.055v-.15l-1.808-.302zm-6.176-1.055c-.151 0 0 .151 0 .151l1.054 1.507 1.808.3v-.15l-.904-1.506-1.958-.302zm6.176-1.355h-.15l-1.507 1.054-.301 1.808 1.657-1.055.301-1.807zm20.037-2.712h-.151l-.603 3.013 1.808 2.561h.15l.603-3.013-1.807-2.561zm-23.351 2.26h-.15l-.302 1.807 1.054 1.507h.151l.301-1.808-1.054-1.506zm-22.899-1.055c1.055 0 1.959.753 1.959 1.808 0 1.054-.754 1.808-1.959 1.808s-1.958-.754-1.958-1.808c0-1.055.753-1.808 1.958-1.808zm62.67 0c1.205 0 2.26.753 1.959 1.808 0 1.054-.754 1.808-1.959 1.808-.904 0-1.958-.754-1.958-1.808 0-1.055.753-1.808 1.958-1.808zm-17.927-1.506l-2.561 1.807-.603 3.013.151.151 2.561-1.808.603-3.013-.151-.15zm-30.732-.452c1.054 0 1.958.753 1.958 1.807 0 1.055-.753 1.808-1.958 1.808-.904 0-1.959-.753-1.959-1.808 0-1.054.753-1.807 1.959-1.807zm33.142 0l-.15.15 1.808 2.561 3.163.603c.15 0 .15-.15.15-.15l-1.807-2.562-3.164-.602zm-6.026-1.055l-2.711 1.808v.15l3.163.603h.151l2.561-1.808v-.15l-3.164-.603zm8.889-1.958h-.15l-2.562 1.807v.151l3.164.603h.15l2.561-1.808v-.15l-3.163-.603zm-56.494-1.507c.904 0 1.959.753 1.959 1.808 0 1.055-.754 1.808-1.959 1.808s-1.958-.753-1.958-1.808c0-1.055.753-1.808 1.958-1.808zm15.065-9.34c.753-.301 1.356.452 1.055 1.055 0 .15-.15.3-.15.3l1.054 1.507.301-2.109c0-.15.15-.301.301-.301.15 0 .302.15.302.301l-.302 1.808h.15l1.507-1.055v-.15c-.15-.301 0-.904.452-1.055a.46.46 0 01.603 0c.452.15.603.754.452 1.055 0 .15-.15.15-.301.301-.302.15-.452 0-.452.15l-.302 1.658h.151l1.506-1.055c.151 0 .302 0 .452.151 0 .15 0 .301-.15.452l-1.507 1.054v.151l1.808.301.052-.09c.343-.526 1.17-.623 1.455.09.3.603-.302 1.206-1.055.904-.15 0-.15-.15-.301-.15l-1.507 1.054v.15l1.808.302c.15 0 .301.15.301.301s-.15.302-.301.302l-1.808-.302v.151l1.055 1.507h.15c.603-.302 1.356.3 1.055 1.054-.15.603-1.055.603-1.356.15-.15-.3 0-.451-.15-.451l-1.808-.301v.15l1.054 1.507c.302.301-.15.602-.452.301l-1.054-1.506h-.15l-.302 1.657.112.052c.639.342.601 1.169-.112 1.454-.753.15-1.356-.452-1.055-1.054 0-.151.15-.151.15-.302l-1.054-1.506h-.15l-.302 1.808c0 .15-.15.3-.3.3a.324.324 0 01-.302-.3l.301-1.808h-.15l-1.507 1.054c-.15 0 .15.302 0 .754-.15.3-.301.452-.452.452a.458.458 0 01-.603 0l-.101-.058c-.516-.33-.616-1.015-.05-1.298.302-.15.453 0 .453-.15l.301-1.658h-.15l-1.507 1.054c-.301.302-.603-.3-.301-.451l1.506-1.055v-.15l-1.808-.302v.15c-.301.754-1.205.603-1.506 0-.302-.602.452-1.205 1.054-.903.151 0 .151.15.302.15l1.506-1.054v-.15l-1.808-.302a.324.324 0 01-.301-.301c0-.151.15-.302.301-.302l1.808.302v-.151l-1.054-1.507c-.151-.15-.151 0-.452 0h-.302c-.452-.15-.602-.602-.452-1.054.151-.603 1.055-.753 1.356-.15.15.3 0 .451.15.451l1.809.302v-.151l-1.055-1.507c0-.15 0-.3.15-.452.151 0 .302 0 .453.151l1.054 1.507h.15l.302-1.658-.112-.052c-.639-.342-.601-1.169.112-1.454zm23.803 9.039c.904 0 1.958.753 1.958 1.808 0 1.054-.753 1.807-1.958 1.807-1.205.151-1.959-.602-1.959-1.807 0-1.055.754-1.808 1.959-1.808zm7.08 0c-.15 0-.15.15-.15.15l1.807 2.562 3.164.602.15-.15-1.807-2.561-3.164-.603zm10.244-2.11l-2.56 1.809-.603 3.013.15.15 2.562-1.808.602-3.013-.15-.15zm-5.423-1.054h-.15l-.603 3.013 1.808 2.561h.15l.603-3.013-1.808-2.56zm-23.05 1.657c.905 0 1.96.754 1.96 1.808 0 1.055-.754 1.808-1.96 1.808-.903 0-1.958-.753-1.958-1.808 0-1.054.754-1.808 1.959-1.808zm-10.695 0h-.151l-.301 1.808 1.054 1.507h.15l.302-1.808-1.054-1.507zm-.754-.15h-.15l-1.507 1.054-.301 1.808h.15l1.507-1.054.301-1.808zm1.356-.302l1.055 1.658 1.808.3v-.15l-1.055-1.506-1.808-.302zm-3.766-.602L22.8 33.211v.151l1.807.301 1.507-1.054v-.15l-1.808-.302zm5.273-1.205l-1.507 1.054 1.808.452 1.507-1.054v-.151l-1.808-.301zm-6.177-1.055c-.15 0 0 .15 0 .15l1.055 1.507 1.807.302v-.151l-.903-1.507-1.959-.3zm6.177-1.205h-.15l-1.507 1.054-.302 1.808 1.657-1.054.302-1.808zm-3.315-.603h-.15l-.301 1.808 1.054 1.507h.15l.302-1.808-1.055-1.507zm-14.311-1.355c1.054 0 1.958.753 1.958 1.807 0 1.055-.753 1.808-1.958 1.808-.904 0-1.959-.753-1.959-1.808 0-1.054.754-1.807 1.959-1.807zm62.52-6.63c1.656-.752 3.464 0 4.217 1.809.754 1.808.151 3.917-1.205 4.67-1.657.753-3.465 0-4.218-1.808-.753-1.808-.15-3.917 1.205-4.67zm-47.305-4.368c2.561-.301 4.821 1.808 4.821 4.218.15 2.41-1.958 4.37-4.67 4.52-2.561.301-4.82-1.657-4.82-4.218s2.108-4.52 4.67-4.52zm27.72 3.314c.904 0 1.958.754 1.958 1.808 0 1.055-.753 1.808-1.958 1.808-.904 0-1.959-.753-1.959-1.808 0-1.054 1.055-1.808 1.959-1.808zm-12.203-1.506c1.055 0 1.959.753 1.959 1.808 0 1.054-.754 1.807-1.959 1.807-.904 0-1.958-.753-1.958-1.807 0-1.055.753-1.808 1.958-1.808zM8.188.67c1.054-.452 1.958.603 1.506 1.507-.15.301-.452.301-.301.452l1.506 2.109h.15l.453-2.712c.15-.15.301-.301.602-.301.151 0 .302.15.302.452l-.452 2.711c0 .151.15.151.15.151l2.26-1.356v-.15c-.301-.603-.15-1.356.603-1.658a.96.96 0 01.904 0c.602.302.904.904.602 1.507l-.452.452c-.452.301-.753.15-.753.301l-.452 2.561.15.15 2.26-1.506c.151-.15.452 0 .603.151.15.15 0 .452-.15.603L15.418 7.6v.15l2.711.453h.151c.301-1.055 1.808-1.055 2.26 0 .301 1.054-.603 1.958-1.657 1.506-.302-.15-.302-.452-.452-.301l-2.26 1.506v.151l2.712.452c.15 0 .301.15.301.452-.15.15-.301.301-.603.301l-2.711-.452-.151.15 1.507 2.11h.15c.904-.452 2.11.452 1.657 1.506-.452.904-1.657.904-2.109.151-.301-.452-.15-.753-.301-.753l-2.712-.452c-.15 0-.15.15-.15.15l1.657 2.26c.301.452-.452.904-.754.452l-1.657-2.26h-.15l-.452 2.562v.15l.126.044c.926.381.884 1.777-.126 2.065-.904.452-1.959-.452-1.507-1.506.15-.301.452-.301.302-.452l-1.507-2.11h-.15l-.453 2.712c-.15.151-.3.302-.602.302-.15 0-.301-.15-.301-.452l.452-2.712c0-.15-.151-.15-.151-.15l-2.26 1.506c-.15 0 .301.452 0 1.055 0 .3-.301.451-.602.602-.302.15-.754.15-.904 0l-.118-.046c-.785-.363-.752-1.48-.033-1.912.452-.302.753-.151.753-.302l.452-2.56-.15-.151-2.26 1.506c-.452.301-.904-.452-.452-.753l2.26-1.507v-.15l-2.712-.452h-.15v.15c-.453.904-1.96.754-2.26-.15-.302-1.055.753-1.959 1.657-1.507.3.151.3.452.452.302l2.26-1.507v-.15L1.71 9.107c-.151 0-.302-.151-.302-.452.151-.151.302-.302.603-.302l2.712.452.15-.15-1.506-2.11s-.15.151-.603.151l-.452-.15c-.602-.302-.904-.904-.602-1.507.3-.753 1.657-.904 2.109-.15.301.451.15.753.301.753l2.712.452.15-.151-1.657-2.26c-.15-.15 0-.452.15-.602.152-.151.453 0 .603.15l1.507 2.26h.15l.453-2.561v-.15l-.127-.044c-.926-.37-.884-1.633.127-2.066zm2.56 10.998h-.15l-.452 2.711 1.657 2.26h.15l.453-2.712-1.657-2.26zm61.315-8.286c.753-.301 1.356.452 1.054 1.054 0 .151-.15.302-.15.302l1.054 1.506.302-2.109c0-.15.15-.301.3-.301.152 0 .302.15.302.301l-.301 1.808h.15l1.507-1.055v-.15c-.15-.302 0-.904.452-1.055.15-.15.452-.15.603 0 .451.15.602.753.451 1.055 0 .15-.15.15-.3.301-.302.15-.453 0-.453.15l-.301 1.658h.15l1.507-1.055c.15 0 .301 0 .452.15 0 .152 0 .302-.15.453L77.184 7.45v.151l1.808.301.052-.091c.342-.525 1.169-.622 1.454.091.301.603-.301 1.206-1.054.904-.151 0-.151-.15-.302-.15L77.637 9.71v.15l1.808.302c.15 0 .3.15.3.301s-.15.302-.3.302l-1.808-.302v.151l1.054 1.507h.151c.603-.302 1.356.3 1.055 1.054-.151.603-1.055.603-1.356.15-.15-.3 0-.451-.15-.451l-1.809-.302v.151l1.055 1.507c.301.3-.15.602-.452.3l-1.055-1.506h-.15l-.302 1.658.113.052c.639.342.601 1.169-.113 1.454-.753.15-1.355-.452-1.054-1.054 0-.151.15-.151.15-.302l-1.054-1.506h-.15l-.302 1.808c0 .15-.15.3-.301.3a.324.324 0 01-.302-.3l.302-1.808h-.15L71.31 14.38c-.151 0 .15.302 0 .754-.151.3-.302.451-.452.451a.458.458 0 01-.603 0l-.102-.057c-.516-.33-.616-1.015-.049-1.298.302-.151.452 0 .452-.151l.302-1.657h-.151L69.2 13.476c-.3.302-.602-.3-.3-.452l1.506-1.054v-.15l-1.808-.302v.15c-.301.754-1.205.603-1.507 0-.3-.602.452-1.205 1.055-.903.15 0 .15.15.301.15l1.507-1.054v-.15l-1.808-.302a.324.324 0 01-.301-.301c0-.151.15-.302.3-.302l1.809.302v-.151L68.899 7.45c-.15-.15-.15 0-.452 0h-.301c-.452-.15-.603-.602-.452-1.054.15-.603 1.055-.753 1.356-.15.15.3 0 .451.15.451l1.808.301v-.15L69.954 5.34c0-.15 0-.301.15-.452.151 0 .302 0 .452.151l1.055 1.507h.15l.302-1.658-.113-.052c-.638-.342-.6-1.169.113-1.454zm-62.52 8.135l-2.26 1.506-.451 2.712.15.15 2.26-1.506.452-2.711-.15-.151zm50.167-.904c.903 0 1.958.753 1.958 1.808 0 1.054-.753 1.808-1.958 1.808-.904 0-1.959-.754-1.959-1.808 0-1.055.753-1.808 1.959-1.808zm14.311.15h-.15l-.302 1.808 1.055 1.507h.15l.302-1.808-1.055-1.506zm-62.369.151l1.507 2.41 2.712.453c.15 0 .15-.151.15-.151l-1.657-2.26-2.712-.452zm61.767-.301h-.151l-1.506 1.055-.302 1.807h.15l1.507-1.054.302-1.808zM44.946.069c.753-.302 1.356.452 1.055 1.054 0 .15-.151.301-.151.301l1.054 1.507.603-1.959c0-.15.15-.3.301-.3s.302.15.302.3l-.302 1.808h.151l1.506-1.054v-.15l-.03-.082c-.093-.318.068-.835.482-.973a.458.458 0 01.603 0c.452.15.603.753.452 1.054 0 .15-.15.15-.301.301-.302.151-.452 0-.452.151l-.302 1.657h.151l1.507-1.054c.15 0 .3 0 .451.15 0 .15 0 .302-.15.452l-1.507 1.055v.15l1.808.302.053-.092c.342-.524 1.168-.622 1.454.092.3.602-.302 1.205-1.055.904-.15 0-.15-.151-.301-.151L50.82 6.547v.15l1.808.301c.15 0 .301.151.301.302 0 .15-.15.301-.3.301L50.82 7.3v.15l1.055 1.507h.15c.603-.301 1.356.301 1.055 1.054-.15.603-1.055.603-1.356.151-.15-.301 0-.452-.15-.452l-1.808-.301v.15l1.054 1.507c.302.301-.15.603-.452.301l-1.054-1.506h-.15l-.302 1.657.113.052c.638.343.6 1.169-.113 1.454-.753.151-1.356-.452-1.055-1.054 0-.15.151-.15.151-.301l-1.055-1.507h-.15l-.302 1.808c0 .15-.15.301-.3.301a.324.324 0 01-.302-.301l.301-1.808H46l-1.507 1.055c-.15 0 .15.3 0 .753-.15.301-.301.452-.452.452a.458.458 0 01-.603 0l-.101-.058c-.516-.33-.616-1.014-.05-1.298.302-.15.453 0 .453-.15l.301-1.658h-.15l-1.507 1.055c-.301.301-.603-.302-.301-.452l1.506-1.055v-.15l-1.808-.302v.151c-.301.753-1.205.603-1.506 0-.301-.603.452-1.205 1.054-.904.151 0 .151.15.302.15l1.506-1.054v-.15l-1.808-.302a.324.324 0 01-.3-.301c0-.15.15-.301.3-.301l1.808.3v-.15l-1.054-1.506c-.151-.15-.151 0-.452 0h-.302c-.452-.15-.602-.603-.452-1.055.151-.602 1.055-.753 1.356-.15.15.3 0 .452.15.452l1.507.15v-.15l-1.054-1.507c0-.15 0-.301.15-.452.151 0 .302 0 .452.15l1.055 1.507h.15l.302-1.657-.113-.052c-.638-.343-.6-1.169.113-1.454zm29.678 10.244l1.054 1.657 1.808.301v-.15l-1.054-1.507-1.808-.301zM6.38 10.01l-2.26 1.507v.15l2.712.453 2.26-1.507v-.15L6.38 10.01zm64.628-.3l-1.506 1.054v.15l1.808.302 1.506-1.055v-.15l-1.808-.302zM46.904 7.6h-.15l-.302 1.808 1.055 1.506h.15l.302-1.807L46.904 7.6zm-32.841.753l-2.26 1.507v.15l2.712.452 2.26-1.506v-.15l-2.712-.453zm32.239-.904h-.15l-1.507 1.055-.302 1.808h.151l1.507-1.055.3-1.808zM76.28 8.656L74.775 9.71l1.807.452 1.507-1.054v-.151l-1.808-.301zM30.484 6.095c1.054 0 1.958.753 1.958 1.807 0 1.055-.753 1.808-1.958 1.808-.904 0-1.959-.753-1.959-1.808 0-1.054.753-1.807 1.959-1.807zm-25.61.753c-.151 0-.151.15-.151.15l1.657 2.26 2.711.452.151-.15L7.736 7.3l-2.863-.452zm65.08.753c-.15 0 0 .15 0 .15l1.054 1.507 1.808.301v-.15l-.904-1.507-1.958-.3zm6.327-1.356h-.15L74.623 7.3l-.301 1.808 1.657-1.055.301-1.808zm-28.774.904l1.055 1.657 1.807.302v-.151L49.315 7.45l-1.808-.3zM13.912 4.89l-2.26 1.507-.451 2.712L13.61 7.6l.452-2.561-.15-.15zm-4.82-.904H8.94l-.452 2.712 1.657 2.26h.15l.453-2.712-1.658-2.26zm63.875 1.658h-.15l-.302 1.807 1.054 1.507h.151l.301-1.808-1.054-1.506zm-29.076.753L42.385 7.45v.151l1.808.301 1.506-1.054v-.15l-1.808-.302zm19.585-3.013c.904 0 1.958.753 1.958 1.808 0 1.054-.753 1.807-1.958 1.807s-2.26-.753-1.959-1.807c0-1.055.754-1.808 1.959-1.808zM49.164 5.34l-1.506 1.055 1.807.452 1.507-1.055v-.15l-1.808-.302zm-6.327-1.054c-.15 0 0 .15 0 .15l1.054 1.507 1.808.301v-.15l-.904-1.507-1.958-.301zm3.013-1.808h-.15l-.302 1.808 1.054 1.506h.151l.301-1.808L45.85 2.48zm3.314.452h-.15l-1.507 1.054-.301 1.808 1.657-1.054.301-1.808zM22.5 1.876c1.205 0 2.26.754 1.959 1.808 0 1.055-.754 1.808-1.959 1.808-.904 0-1.958-.753-1.958-1.808 0-1.054.753-1.808 1.958-1.808z"/><path fill="url(#ml-russia-b)" d="M206.269 62.22c.741-.297 1.335.445 1.038 1.038 0 .149-.148.297-.148.297l1.038 1.483V63.11a.32.32 0 01.297-.297c.148 0 .296.149.296.297l-.296 1.78h.148l1.483-1.038v-.149c-.148-.296 0-.89.445-1.038a.451.451 0 01.594 0c.445.148.593.742.445 1.038 0 .149-.149.149-.297.297-.297.148-.445 0-.445.148l-.297 1.632h.149l1.483-1.038c.148 0 .297 0 .445.148 0 .148 0 .297-.148.445l-1.484 1.038v.149l1.78.296.052-.09c.337-.516 1.15-.612 1.432.09.297.594-.297 1.187-1.039.89-.148 0-.148-.148-.296-.148l-1.484 1.04v.148l1.78.297c.149 0 .297.148.297.296a.319.319 0 01-.297.297l-1.78-.297v.149l1.039 1.483h.148c.593-.297 1.335.297 1.038 1.038-.148.594-1.038.594-1.335.149-.148-.297 0-.445-.148-.445l-1.78-.297v.148l1.038 1.484c.297.296-.148.593-.445.296l-1.038-1.483h-.148l-.297 1.632.111.051c.629.337.592 1.15-.11 1.432-.743.148-1.336-.445-1.04-1.038 0-.149.15-.149.15-.297l-1.04-1.483h-.148l-.296 1.78a.319.319 0 01-.297.296.319.319 0 01-.297-.296l.594-1.929h-.149l-1.483 1.039c-.148 0 .148.296 0 .741-.148.297-.297.445-.445.445a.451.451 0 01-.593 0l-.1-.057c-.509-.325-.607-.999-.049-1.278.297-.148.445 0 .445-.148l.445-1.483h-.148l-1.483 1.038c-.297.297-.594-.297-.297-.445l1.483-1.038v-.149l-1.78-.296v.148c-.296.742-1.186.593-1.483 0-.297-.593.445-1.187 1.038-.89.149 0 .149.148.297.148l1.483-1.038V68.6l-1.78-.297a.319.319 0 01-.296-.297c0-.148.148-.296.296-.296l1.78.296v-.148l-1.038-1.484c-.148-.148-.148 0-.445 0h-.297c-.445-.148-.593-.593-.445-1.038.149-.593 1.039-.742 1.335-.148.149.296 0 .445.149.445l1.78.296v-.148l-1.039-1.483c0-.149 0-.297.149-.445h.296l1.039 1.483h.148l.297-1.632-.111-.051c-.629-.337-.592-1.15.11-1.432zm1.928 7.269h-.148l-.297 1.78 1.038 1.483h.149l.296-1.78-1.038-1.483zm-.742-.149h-.148l-1.483 1.039-.297 1.928h.148l1.484-1.038.296-1.929zm1.335-.296l1.039 1.631 1.78.297v-.148l-1.039-1.484-1.78-.296zm14.834-2.226c1.038 0 1.928.742 1.928 1.78 0 1.039-.741 1.78-1.928 1.78-.89 0-1.928-.741-1.928-1.78 0-1.038.741-1.78 1.928-1.78zm-18.542 1.632l-1.483 1.039v.148l1.78.297 1.483-1.039v-.148l-1.78-.297zm-21.657-5.34c1.632-.742 3.412 0 4.153 1.78.742 1.78.445 3.857-1.186 4.599-1.632.741-3.412 0-4.154-1.78-.741-1.78-.148-3.857 1.187-4.599zm26.849 4.302l-1.484 1.038 1.78.445 1.484-1.038v-.148l-1.78-.297zm21.953-18.839c1.039-.296 1.929.742 1.484 1.632-.149.297-.445.297-.297.445l1.483 2.077.742.296.445-2.67c.148-.148.297-.296.593-.296.149.148.297.296.297.593l-.445 2.67c0 .148.148.148.148.148l2.226-1.483v-.148c-.445-.594-.149-1.335.593-1.632a.946.946 0 01.89 0c.593.297.89.89.593 1.483l-.445.445c-.445.297-.741.149-.741.297l-.445 2.522.148.148 2.373-1.483c.149-.149.445 0 .594.148.148.148 0 .445-.149.593l-2.373 1.484v.148l2.67.445h.148c.297-1.038 1.78-1.038 2.225 0 .297 1.038-.593 1.928-1.631 1.483-.297-.148-.297-.445-.445-.296l-2.225 1.483v.148l2.818.445c.297.149.445.297.445.594-.148.148-.297.296-.593.296l-2.819-.445-.148.149 1.483 2.076h.149c.89-.445 2.076.445 1.631 1.484-.445.89-1.631.89-2.076.148-.297-.445-.149-.742-.297-.742l-2.67-.445c-.148 0-.148.149-.148.149l1.631 2.225c.297.445-.445.89-.741.445l-1.632-2.225h-.148l-.446 2.521v.148l.125.062c.912.505.87 1.88-.125 2.164-.89.297-1.928-.593-1.483-1.632.148-.297.445-.297.297-.445l-1.484-2.077h-.148l-.445 2.67c-.148.149-.297.297-.593.297-.297-.148-.445-.297-.445-.593l.445-2.67c0-.149-.149-.149-.149-.149l-2.225 1.484c-.148.148.297.445 0 1.186-.148.297-.445.445-.741.594-.297.148-.742.148-.89 0l-.121-.069c-.768-.488-.734-1.584-.028-2.008.445-.297.742-.148.742-.297l.445-2.521-.148-.149-2.374 1.484c-.593.296-1.038-.445-.593-.742l2.373-1.483v-.149l-2.67-.445h-.147l-.001.149c-.445.89-1.928.741-2.225-.149-.297-1.038.593-1.928 1.632-1.483.296.148.296.445.445.297l2.225-1.484v-.148l-2.819-.445c-.296-.148-.445-.297-.445-.593.149-.149.297-.297.594-.297l2.67.297.148-.149-1.483-2.076s-.149.148-.594.148l-.593-.148a.923.923 0 01-.607-.522c-.096.921-.814 1.56-1.915 1.56-.89 0-1.928-.742-1.928-1.78s.742-1.78 1.928-1.78c.967 0 1.639.493 1.854 1.237l.026-.086.049-.113c.296-.89 1.631-1.038 2.076-.148.297.445.149.742.297.742l2.67.445.148-.149-1.631-2.225c-.149-.148 0-.445.148-.593.148-.148.445 0 .593.148l1.632 2.225h.148l.445-2.521v-.148l-.124-.06c-.912-.495-.87-1.74.124-2.166zm-28.035 17.8c-.148 0 0 .149 0 .149l1.038 1.483 1.78.297v-.148l-.89-1.484-1.928-.297zm6.082-1.335h-.149l-1.483 1.039-.297 1.78 1.632-1.039.297-1.78zm-3.264-.593h-.148l-.297 1.78 1.039 1.484h.148l.297-1.78-1.039-1.484zm27.74-4.747h-.15l-.444 2.67 1.631 2.225h.149l.445-2.67-1.632-2.225zm-37.233.742c1.187 0 2.077.89 1.928 1.78 0 1.038-.741 1.78-1.928 1.78-.89 0-1.928-.742-1.928-1.78s.741-1.78 1.928-1.78zm36.194-1.038l-2.374 1.483-.593 2.67.148.148 2.374-1.483.593-2.67-.148-.148zm21.063-.297c1.335 0 1.929.742 1.929 1.78s-.742 1.78-1.929 1.78c-.89 0-1.928-.742-1.928-1.78s.742-1.78 1.928-1.78zm-18.987-.148l1.484 2.373 2.818.445c.149 0 .149-.148.149-.148l-1.632-2.225-2.819-.445zm-5.488-.89l-2.373 1.483v.148l2.818.445 2.373-1.483v-.148l-2.818-.445zm-15.723-1.632c1.186 0 1.928.742 1.928 1.78s-.742 1.78-1.928 1.78c-.89 0-1.929-.742-1.929-1.78s.742-1.78 1.929-1.78zm23.733 0l-2.373 1.483v.149l2.818.445 2.374-1.484v-.148l-2.819-.445zm-9.345-1.78c-.148 0-.148.148-.148.148l1.631 2.225 2.819.445.148-.148-1.632-2.077-2.818-.593zm9.049-1.78l-2.374 1.483-.445 2.67 2.522-1.483.445-2.522-.148-.148zm-4.896-.89h-.148l-.445 2.67 1.632 2.225h.148l.445-2.67-1.632-2.225zm-42.72-17.652c1.038-.297 2.077.742 1.632 1.78-.149.445-.445.445-.297.593l1.78 2.374.297-.149.593-2.966c0-.297.297-.445.593-.445.297 0 .445.296.445.593l-.593 2.967c0 .148.148.148.148.148l2.522-1.632v-.148c-.297-.593 0-1.483.742-1.78a1.267 1.267 0 011.038 0c.593.297.89 1.038.593 1.632 0 .296-.296.445-.445.593-.593.297-.89.148-.89.297l-.593 2.818.148.148 2.522-1.78c.297-.148.593-.148.742.149.148.296.148.593-.149.741l-2.521 1.78v.149l2.966.445c.149.148.149 0 .149 0 .445-1.039 2.076-1.187 2.521 0 .445 1.038-.593 2.077-1.78 1.632-.445-.149-.445-.445-.593-.297l-2.522 1.632v.148l3.115.593c.297 0 .445.297.445.594 0 .296-.296.445-.593.445l-3.115-.594-.148.149 2.076 2.966h.149c1.038-.593 2.373.445 1.78 1.632-.445.89-1.78 1.038-2.374.148-.296-.593-.148-.89-.296-.89l-2.967-.445c-.148 0-.148.149-.148.149l1.78 2.521c.296.594-.445 1.187-.89.594l-1.78-2.522h-.149l-.593 2.818c-.148.149 0 .149 0 .149l.132.055c1.053.502 1.009 1.89-.132 2.318-1.038.297-2.077-.742-1.632-1.78.149-.445.445-.445.297-.593l-1.78-2.374h-.148l-.594 2.967c0 .297-.296.445-.593.445s-.445-.297-.445-.593l.593-2.967c0-.148-.148-.148-.148-.148l-2.522 1.631c-.148 0 .297.445 0 1.187-.148.297-.445.445-.742.593a1.267 1.267 0 01-1.038 0l-.13-.062c-.907-.485-.87-1.595-.018-2.163.593-.296.89-.148.89-.296l.593-2.819-.148-.148-2.522 1.78c-.593.297-1.187-.445-.593-.89l2.521-1.78v-.148l-2.966-.445c-.149-.149-.149 0-.149 0v.148c-.593 1.038-2.076.89-2.521-.148-.445-1.039.741-2.077 1.78-1.632.185.062.293.15.367.22l.075.073c.053.05.09.065.151.004l2.373-1.78v-.149l-2.966-.445c-.297 0-.445-.296-.445-.593s.296-.445.593-.445l2.967.445.148-.149-1.78-2.373c-.148-.148-.297.148-.742.148l-.593-.148c-.593-.148-.89-.89-.593-1.632.445-.89 1.78-1.038 2.373-.148.297.593.148.89.297.89l2.966.445.149-.148-1.78-2.522c-.149-.297-.149-.593.148-.742.148-.148.593 0 .445 0l1.78 2.522h.148l.594-2.818c.148-.149 0-.149 0-.149-1.187-.296-1.187-1.928 0-2.373zm58.147 12.905c2.374 0 4.302 1.78 4.45 4.154.297 2.521-1.78 4.45-4.153 4.45-2.522.296-4.45-1.78-4.45-4.154-.297-2.521 1.78-4.45 4.153-4.45zm-55.032-.445h-.148l-.594 2.967 1.78 2.522h.149l.593-2.967-1.78-2.522zm-1.335-.445l-2.522 1.78-.593 2.967.148.148 2.522-1.78.593-2.966-.148-.149zm2.373-.445l-.148.149 1.78 2.521 3.115.594c.148 0 .148-.149.148-.149l-1.78-2.521-3.115-.594zm-6.082-1.038l-2.67 1.78v.148l3.115.594h.149l2.522-1.78v-.149l-3.116-.593zm21.806-1.484c.89 0 1.928.742 1.928 1.78 0 1.039-.742 1.78-1.928 1.78-.89 0-1.929-.741-1.929-1.78 0-1.038.742-1.78 1.929-1.78zm-13.054-.445h-.148l-2.522 1.78.149.297 2.966.445h.149l2.521-1.78v-.148l-3.115-.594zm29.222-10.531c.742-.297 1.335.445 1.039 1.038 0 .148-.149.297-.149.297l1.039 1.483.148-1.483c0-.149.148-.297.297-.297.148 0 .296.148.296.297l-.296 1.78h.148l1.483-1.039v-.147l-.03-.08c-.091-.313.067-.823.475-.96a.451.451 0 01.594 0c.445.149.593.742.445 1.039 0 .148-.149.148-.297.297-.297.148-.445 0-.445.148l-.297 1.632h.149l1.483-1.039c.148 0 .297 0 .445.149 0 .148 0 .296-.148.445l-1.484 1.038v.148l1.78.149.052-.09c.337-.517 1.15-.613 1.432.09.296.593-.297 1.186-1.039.89-.148 0-.148-.149-.296-.149l-1.484 1.039v.148h2.077a.32.32 0 01.297.297.319.319 0 01-.297.296l-1.78-.296v.148l1.038 1.483h.148l.086-.036c.576-.203 1.236.368.953 1.075-.148.593-1.038.593-1.335.148-.148-.297 0-.445-.148-.445l-1.78-.297v.149l1.038 1.483c.297.297-.148.594-.445.297l-1.038-1.484h-.149l-.296 1.632.11.052c.63.337.592 1.15-.11 1.432-.742.148-1.335-.445-1.039-1.039 0-.148.149-.148.149-.296l-1.039-1.484h-.148l-.297 1.78a.319.319 0 01-.296.297.319.319 0 01-.297-.297l.297-1.78h-.149l-1.483 1.038c-.148 0 .148.297 0 .742-.148.297-.297.445-.445.445a.451.451 0 01-.593 0l-.1-.057c-.509-.325-.607-.999-.049-1.278.297-.148.445 0 .445-.148l.297-1.632h-.148l-1.484 1.038c-.296.297-.593-.296-.296-.445l1.483-1.038v-.148l-1.78-.297v.148c-.297.742-1.187.594-1.483 0-.297-.593.445-1.186 1.038-.89.148 0 .148.149.297.149l1.483-1.039v-.148l-1.78-.297a.319.319 0 01-.297-.296.32.32 0 01.297-.297l1.78.297v-.149l-1.038-1.483c-.149-.148-.149 0-.445 0h-.297c-.445-.148-.593-.593-.445-1.038.148-.594 1.038-.742 1.335-.149.148.297 0 .445.148.445l1.78.297v-.148l-1.038-1.484c0-.148 0-.296.148-.445.149 0 .297 0 .445.149l1.039 1.483h.148l.148-1.78-.11-.052c-.63-.337-.592-1.15.11-1.431zm-39.457 8.751c-.148 0-.148.149-.148.149l1.78 2.522 3.115.593.148-.148-1.78-2.522-3.115-.594zm9.939-2.076l-2.522 1.78-.593 2.967.148.148 2.522-1.78.593-2.967-.148-.148zm-5.34-.89h-.149l-.593 2.966 1.78 2.522h.148l.594-2.967-1.78-2.521zm36.638 1.631h-.148l-.297 1.78 1.039 1.484h.148l.297-1.78-1.039-1.484zm-.593-.296h-.148l-1.484 1.038-.296 1.78h.148l1.483-1.038.297-1.78zm1.187-.297l1.038 1.632 1.78.296v-.148l-1.038-1.483-1.78-.297zm-12.164-2.077c1.039 0 1.929.89 1.929 1.78 0 1.039-.742 1.78-1.929 1.78-.89 0-1.928-.741-1.928-1.78 0-1.038.742-1.78 1.928-1.78zm22.992-.148c.89 0 1.929.742 1.929 1.78s-.742 1.78-1.929 1.78c-1.186 0-2.076-.742-1.928-1.78 0-1.038.742-1.78 1.928-1.78zm-14.388 1.632l-1.484 1.038v.148l1.78.297 1.484-1.038v-.149l-1.78-.296zm21.212-20.916c1.038-.445 2.076.742 1.631 1.78-.148.445-.445.445-.296.594l1.78 2.373.445-.296.593-2.967c0-.297.297-.445.593-.445.297 0 .445.296.445.593l-.593 2.967c0 .148.148.148.148.148l2.522-1.631v-.149c-.297-.593 0-1.483.742-1.78a1.267 1.267 0 011.038 0c.593.297.89 1.187.593 1.78-.148.297-.445.445-.593.594-.593.296-.89.148-.89.296l-.593 2.967h.148l2.67-1.78c.297-.148.593-.148.742.148.148.297.148.594-.149.742l-2.67 1.78v.148l2.967.594c.148.148.148 0 .148 0 .297-1.187 2.077-1.187 2.522 0 .445 1.038-.593 2.076-1.78 1.631-.445-.148-.445-.445-.593-.296l-2.522 1.631v.149l3.263.741c.297 0 .445.297.445.594 0 .296-.296.445-.593.445l-3.115-.594-.148.149 1.78 2.373h.148c1.038-.445 2.373.593 1.78 1.78-.445 1.038-1.78 1.038-2.373.148-.297-.593-.149-.89-.297-.89l-2.967-.593c-.148 0-.148.148-.148.148l1.78 2.522c.297.593-.445 1.187-.89.593l-1.78-2.521h-.148l-.594 2.966c-.148.149 0 .149 0 .149l.127.038c1.058.378 1.016 1.907-.127 2.335-1.038.445-2.076-.593-1.631-1.78.148-.445.445-.445.296-.593l-1.78-2.374h-.148l-.593 2.967c0 .297-.297.445-.594.445-.296 0-.445-.297-.445-.593l.594-2.967c0-.148-.149-.148-.149-.148l-2.521 1.631c-.149.149.296.594 0 1.335-.149.445-.445.594-.742.742a1.267 1.267 0 01-1.038 0l-.13-.063c-.907-.497-.87-1.743-.019-2.31.594-.297.89-.149.89-.297l.297-2.67-.148-.148-2.67 1.78c-.594.296-1.187-.445-.594-.89l2.67-1.78v-.149l-2.966-.593c-.149-.148-.149 0-.149 0v.148c-.593 1.039-2.076.89-2.521-.148-.446-1.038.741-2.077 1.78-1.632.445.149.445.445.593.297l2.522-1.632v-.148l-3.115-.593c-.297 0-.445-.297-.445-.594 0-.296.296-.445.593-.445l3.115.594.148-.149-1.78-2.373c-.148-.148-.296.148-.741.148l-.594-.148c-.593-.297-.89-1.038-.593-1.78.445-.89 1.78-1.038 2.373-.148.297.593.149.89.297.89l2.967.593.148-.148-1.78-2.522c-.148-.297-.148-.593.148-.742.297-.148.594-.148.742.149l1.78 2.521h.148l.594-2.967c.148-.148 0-.148 0-.148a1.338 1.338 0 010-2.522zm-16.02 19.877l-1.484 1.039 1.78.445 1.483-1.039v-.148l-1.78-.297zm-6.082-1.038c-.149 0 0 .148 0 .148l1.038 1.484 1.78.296v-.148l-1.038-1.483-1.78-.297zm6.081-1.335h-.148l-1.483 1.038-.297 1.78 1.632-1.038.296-1.78zm-3.263-.593h-.148l-.297 1.78 1.038 1.483h.149l.296-1.78-1.038-1.483zm22.25-4.45h-.148l-.593 3.115 1.78 2.67h.148l.593-3.115v-.15l-1.78-2.521zm-45.242-1.039c1.78 0 3.412 1.335 3.412 3.115 0 1.78-1.335 3.412-3.115 3.412-1.78 0-3.115-1.335-3.412-3.115 0-1.78 1.335-3.412 3.115-3.412zm44.056.742l-2.67 1.78-.594 3.115.149.148 2.67-1.78.593-3.115-.148-.148zm-16.466-.593c1.187 0 1.929.89 1.929 1.78 0 1.038-.742 1.78-1.929 1.78-.89 0-1.928-.742-1.928-1.78 0-1.039.742-1.78 1.928-1.78zm18.69.148l-.148.148 1.78 2.522 3.115.593c.149 0 .149-.148.149-.148l-1.78-2.522-3.115-.593zm-6.081-1.038l-2.818 1.78v.148l3.115.593h.148l2.67-1.78v-.148l-3.115-.593zm-31.299-10.384c.742-.297 1.335.445 1.039 1.038 0 .149-.149.297-.149.297l1.039 1.335.148-1.632c0-.148.148-.296.297-.296.148 0 .296.148.296.296l-.296 1.78h.148l1.483-1.038v-.148c-.148-.297 0-.89.445-1.039a.451.451 0 01.594 0c.445.149.593.742.445 1.039 0 .148-.149.148-.297.296-.297.149-.445 0-.445.149l-.297 1.632h.149l1.483-1.039c.148 0 .297 0 .445.149 0 .148 0 .296-.148.445l-1.484 1.038v.148l1.78.297.052-.09c.337-.517 1.15-.613 1.432.09.296.593-.297 1.187-1.039.89-.148 0-.148-.148-.296-.148l-1.484 1.038v.148h1.929c.148 0 .296.149.296.297a.319.319 0 01-.296.297l-1.78-.297v.148l1.038 1.484h.148c.594-.297 1.335.296 1.039 1.038-.149.593-1.039.593-1.335.148-.149-.296 0-.445-.149-.445l-1.78-.296v.148l1.039 1.483c.296.297-.149.594-.445.297l-1.039-1.483h-.148l-.297 1.631.111.052c.629.337.592 1.15-.11 1.432-.742.148-1.336-.445-1.04-1.039 0-.148.15-.148.15-.296l-1.04-1.484h-.147l-.297 1.78a.319.319 0 01-.297.297.319.319 0 01-.297-.297l.297-1.78h-.148l-1.484 1.039c-.148 0 .149.296 0 .741-.148.297-.296.445-.445.445a.451.451 0 01-.593 0l-.1-.056c-.508-.326-.607-1-.048-1.279.296-.148.445 0 .445-.148l.296-1.632h-.148l-1.483 1.039c-.297.296-.594-.297-.297-.445l1.483-1.039v-.148l-1.78-.297v.149c-.296.741-1.186.593-1.483 0-.297-.594.445-1.187 1.038-.89.149 0 .149.148.297.148l1.483-1.038v-.149l-1.78-.296a.319.319 0 01-.296-.297c0-.148.148-.297.296-.297l1.78.297v-.148l-1.038-1.484c-.148-.148-.148 0-.445 0h-.297c-.445-.148-.593-.593-.445-1.038.149-.594 1.039-.742 1.335-.148.149.296 0 .445.149.445l1.78.296v-.148l-1.039-1.484c0-.148 0-.296.149-.445.148 0 .296 0 .445.149l1.038 1.483h.148l.297-1.632-.11-.051c-.63-.337-.592-1.15.11-1.432zm-27.294 8.01c.89 0 1.929.742 1.929 1.78 0 .89-.89 1.78-1.929 1.78-1.038 0-1.928-.741-1.928-1.78 0-1.038.742-1.78 1.928-1.78zm10.087 0c.89 0 1.929.742 1.929 1.78 0 1.039-.742 1.78-1.929 1.78-.89 0-1.928-.741-1.928-1.78 0-1.038.742-1.78 1.928-1.78zm57.554.445h-.147l-2.671 1.78v.149l3.115.593h.148l2.67-1.78v-.148l-3.115-.594zm-38.418-1.186h-.149l-.296 1.78 1.038 1.483h.148l.297-1.78-1.038-1.483zm-.742-.297h-.148l-1.484 1.038-.297 1.929h.149l1.483-1.039.297-1.928zm28.48-.445c-.148 0-.148.148-.148.148l1.78 2.522 3.115.593.148-.148-1.631-2.522-3.264-.593zm10.384-2.077l-2.67 1.78-.594 3.115.149.149 2.67-1.78.593-3.115-.148-.149zm-5.489-1.038h-.148l-.593 3.115v.148l1.78 2.522h.148l.593-3.115-1.78-2.67zm-32.188 3.412l1.038 1.631 1.78.297v-.148l-1.038-1.484-1.78-.296zm12.163-.445c0-1.039.89-2.077 1.928-1.78.89 0 1.929.741 1.929 1.78 0 1.038-.742 1.78-1.929 1.78-.89 0-1.928-.742-1.928-1.78zm-15.724-.297l-1.483 1.038v.149l1.78.296 1.483-1.038v-.148l-1.78-.297zm5.192-1.038l-1.483 1.038 1.78.445 1.483-1.038v-.149l-1.78-.296zm-6.082-1.039c-.148 0 0 .149 0 .149l1.039 1.483 1.78.297v-.15l-.89-1.483-1.929-.297zm6.082-1.335h-.148l-1.483 1.039-.297 1.78 1.632-1.039.296-1.78zm-3.263-.445h-.149l-.296 1.78 1.038 1.484h.149l.296-1.78-1.038-1.484zM188.617 3.183c1.038-.445 1.928.593 1.483 1.483-.148.445-.297.445-.297.593l1.484 2.077h.297l.296-2.818c.149-.149.297-.297.594-.297.148 0 .296.148.296.445l-.445 2.67c0 .148.149.148.149.148l2.225-1.483-.052-.12c-.204-.571.091-1.245.645-1.66a.946.946 0 01.89 0c.593.297.89.89.593 1.483l-.445.445c-.445.297-.741.149-.741.297l-.445 2.522.148.148 2.225-1.483c.148-.149.445 0 .593.148.149.148 0 .445-.148.593l-2.225 1.484v.148l2.67.445h.148c.297-1.038 1.78-1.038 2.225 0 .297 1.038-.593 1.928-1.631 1.483a.872.872 0 01-.18-.115l-.008-.007-2.186 1.457v.149l2.67.445c.149 0 .297.148.297.445-.148.148-.297.296-.593.296l-2.522-.148-.148.148 1.483 2.077h.148c.89-.445 2.077.445 1.632 1.483-.445.89-1.632.89-2.077.149-.296-.445-.148-.742-.296-.742l-2.67-.445c-.149 0-.149.148-.149.148l1.632 2.225c.297.445-.445.89-.742.445l-1.631-2.225h-.149l-.445 2.522v.148l.125.044c.912.375.87 1.749-.125 2.033-.89.445-1.928-.445-1.483-1.483.148-.297.445-.297.297-.445l-1.484-2.077h-.148l-.445 2.67c-.149.149-.297.297-.594.297-.148 0-.296-.148-.296-.445l.445-2.67c0-.149-.149-.149-.149-.149l-2.225 1.484c-.148 0 .297.445 0 1.038 0 .297-.296.445-.593.594-.297.148-.742.148-.89 0l-.121-.049c-.767-.36-.734-1.456-.027-1.88.445-.297.741-.148.741-.297l.445-2.521-.148-.149-2.225 1.484c-.445.296-.89-.445-.445-.742l2.225-1.483v-.149l-2.67-.445h-.148v.149c-.445.89-1.929.741-2.225-.149-.297-1.038.741-1.928 1.631-1.483.297.148.445.297.297.148l2.225-1.483v-.148l-2.67-.445c-.148 0-.297-.149-.297-.445.149-.149.297-.297.594-.297l2.67.445v-.148l-1.484-2.077s-.148.148-.593.148l-.445-.148c-.593-.297-.89-.89-.593-1.483.296-.89 1.483-1.039 1.928-.149.297.445.148.742.297.742l2.67.445.148-.148-1.632-2.225c-.148-.149-.148-.445.149-.594.148-.148.445-.148.593.149l1.632 2.076h.148l.445-2.373v-.148c-1.187-.445-1.187-1.78-.148-2.225zm2.67 10.828h-.148l-.446 2.67 1.632 2.225h.149l.445-2.67-1.632-2.225zm-1.039-.148h-.148l-2.225 1.483-.593 2.67h.296l2.225-1.483.445-2.67zm44.056-.89c1.187 0 1.928.741 1.928 1.78 0 1.038-.741 1.78-1.928 1.78-.89 0-1.928-.742-1.928-1.78 0-1.039.741-1.78 1.928-1.78zm-42.127.445l1.483 2.373 2.67.445c.149 0 .149-.148.149-.148l-1.632-2.225-2.67-.445zm18.987-.445c0-1.039 1.038-1.929 2.225-1.78 1.335 0 2.373.741 2.373 1.78 0 1.038-1.038 1.78-2.225 1.78s-2.373-.742-2.373-1.78zm-24.327-.445l-2.225 1.483v.148l2.67.445 2.225-1.483v-.148l-2.67-.445zm35.749-1.632c.89 0 1.928.742 1.928 1.78s-.742 1.78-1.928 1.78c-1.187 0-2.077-.742-1.929-1.78 0-1.038.742-1.78 1.929-1.78zm-28.036 0l-2.225 1.483v.149l2.67.445 2.225-1.484v-.148l-2.67-.445zM249.286.068c.742-.297 1.335.445 1.038 1.038 0 .148-.148.297-.148.297l1.038 1.483.297-1.335a.32.32 0 01.297-.297c.148 0 .296.149.296.297l-.296 1.78h.148l1.483-1.038v-.148l-.03-.08c-.091-.313.067-.823.475-.96a.451.451 0 01.594 0c.445.15.593.743.445 1.04 0 .148-.149.148-.297.296-.297.148-.445 0-.445.148l-.297 1.632h.149l1.483-1.038c0-.149.297-.149.445-.594 0 .149 0 .297-.148.445l-1.484 1.039v.148l1.78.297.052-.09c.337-.517 1.15-.613 1.432.09.296.593-.297 1.186-1.039.89-.148 0-.148-.149-.296-.149l-1.484 1.039v.148l1.78.297c.149 0 .297.148.297.296a.319.319 0 01-.297.297l-1.78-.297v.149l1.039 1.483h.148c.593-.297 1.335.297 1.038 1.038-.148.594-1.038.594-1.335.149-.148-.297 0-.445-.148-.445l-1.78-.297v.148l1.038 1.484c.297.296-.148.593-.445.296l-1.038-1.483h-.148l-.297 1.632.111.051c.629.337.592 1.151-.11 1.432-.743.148-1.336-.445-1.04-1.038 0-.149.149-.149.149-.297l-1.038-1.483h-.149l-.296 1.78a.319.319 0 01-.297.296.319.319 0 01-.297-.296l.297-1.78h-.148l-1.484 1.038c-.148 0 .149.297 0 .742-.148.296-.296.445-.445.445a.451.451 0 01-.593 0l-.1-.057c-.508-.326-.607-1-.048-1.278.296-.149.445 0 .445-.149l.296-1.631h-.148l-1.483 1.038c-.297.297-.594-.297-.297-.445l1.483-1.038v-.149l-1.78-.296v.148c-.296.742-1.186.593-1.483 0-.297-.593.445-1.187 1.038-.89.149 0 .149.148.297.148l1.483-1.038v-.148L245.43 6a.319.319 0 01-.296-.297c0-.148.148-.296.296-.296l1.78.296v-.148l-1.038-1.483c-.148-.149-.148 0-.445 0h-.297c-.445-.149-.593-.594-.445-1.039.149-.593 1.039-.741 1.335-.148.149.297 0 .445.149.445l1.78.297v-.149l-1.039-1.483c0-.148 0-.297.149-.445.148 0 .296 0 .445.148l1.038 1.484h.148l.297-1.632-.11-.052c-.63-.337-.593-1.15.11-1.431zm-63.784 9.196c-.149 0-.149.149-.149.149l1.632 2.225 2.67.445.148-.149-1.483-2.225-2.818-.445zm9.048-1.78h-.148l-2.225 1.484-.593 2.521 2.521-1.483.445-2.522zm-4.895-.89h-.148l-.445 2.67 1.483 2.077h.149l.593-2.522-1.632-2.225zm61.56.89h-.149l-.297 1.78 1.039 1.484h.148l.297-1.78-1.039-1.484zm-.742-.296h-.149l-1.483 1.038-.297 1.78h.149l1.483-1.038.297-1.78zm1.335-.149l1.038 1.632 1.78.297v-.149l-1.038-1.483-1.78-.297zm-47.913-2.076c1.187 0 1.929.741 1.929 1.78 0 1.038-.742 1.78-1.929 1.78-.89 0-1.928-.742-1.928-1.78 0-1.039.742-1.78 1.928-1.78zm44.353 1.335l-1.632 1.038v.148l1.928.297 1.484-1.038v-.149l-1.78-.296zm5.191-1.039l-1.483 1.039 1.78.445 1.483-1.039v-.148l-1.78-.297zm-42.572-2.076c.89 0 1.928.741 1.928 1.78 0 1.038-.741 1.78-1.928 1.78-1.038 0-1.928-.742-1.928-1.78 0-1.039.741-1.78 1.928-1.78zM247.21 4.22c-.148 0 0 .148 0 .148l1.039 1.484 1.78.296V6l-.89-1.483-1.929-.297zm-12.757-1.632c.89 0 1.929.742 1.929 1.78 0 1.039-.742 1.78-1.929 1.78-1.186 0-1.928-.741-1.928-1.78 0-1.038.742-1.78 1.928-1.78zm18.987.297h-.148l-1.483 1.038-.297 1.78 1.632-1.038.296-1.78zm-3.263-.445h-.148l-.297 1.78 1.038 1.483h.149l.296-1.78-1.038-1.483z"/><path fill="#8C0014" fill-rule="nonzero" d="M32 75h196.875V0H32z"/><path fill="#FFF" d="M117.566 23.503l1.915 3.655-6.048 3.162-1.915-3.69 6.048-3.127zm-14.61 1.056h-14.8l-7.1 9.83-7.137-9.83H57.127v4.144h2.931v16.91h-2.931v4.141H67.76v-4.14h-2.969v-10.96l10.97 15.1 10.929-15.1v10.96h-2.97v4.14h19.237v-4.14H99.99V28.703h2.967v-4.144h-.001zm55.591 21.054h-2.93v4.141h19.796v-4.14h-2.968V24.558h-16.827v4.143h2.929v16.912zm-20.394-1.985v-1.93h16.189s.077-.508.077-1.4c0-5.339-5.324-10.51-14.219-10.51-10.298 0-14.22 5.71-14.22 10.508 0 4.498 3.396 10.384 14.236 10.384 8.314 0 12.838-4.06 13.935-7.479l-7.361.002a4.922 4.922 0 01-4.879 3.537c-2.293 0-3.758-1.49-3.758-3.112zm50.593-1.93v1.93c0 1.622 1.461 3.112 3.754 3.112a4.925 4.925 0 004.881-3.537l7.359-.002c-1.097 3.419-5.619 7.479-13.935 7.479-10.838 0-14.236-5.886-14.236-10.384 0-4.798 3.926-10.508 14.218-10.508 8.899 0 14.219 5.171 14.219 10.51 0 .892-.075 1.4-.075 1.4h-16.185zm-66.86-10.887h-16.264v4.142h2.965v10.66h-2.965v4.141h19.229v-4.14h-2.967V30.811h.002zm16.267 7.642h4.124v-2.647c0-.8-.636-2.065-2.075-2.065-1.332 0-2.05 1.212-2.05 2.053v2.659h.001zm54.715 0h-4.122v-2.659c0-.84.712-2.053 2.047-2.053 1.439 0 2.075 1.266 2.075 2.065v2.647z"/></g></svg>