<svg width="197" height="75" xmlns="http://www.w3.org/2000/svg"><path d="M0 75h196.875V0H0v75z" fill="#8C0014"/><path d="M85.566 23.503l1.915 3.655-6.048 3.162-1.915-3.691 6.048-3.126zm-14.61 1.056h-14.8l-7.1 9.83-7.137-9.83H25.127v4.144h2.932v16.91h-2.932v4.142H35.76v-4.141h-2.968v-10.96l10.97 15.1 10.928-15.1v10.96h-2.97v4.14h19.235v-4.14h-2.967v-16.91h2.967v-4.145zm55.591 21.055h-2.93v4.14h19.796v-4.14h-2.968V24.559h-16.827V28.7h2.93v16.913zm-20.394-1.986v-1.93h16.19s.076-.507.076-1.4c0-5.338-5.324-10.51-14.218-10.51-10.299 0-14.22 5.71-14.22 10.509 0 4.498 3.395 10.383 14.235 10.383 8.314 0 12.838-4.06 13.935-7.478l-7.361.002a4.922 4.922 0 01-4.879 3.537c-2.293 0-3.758-1.49-3.758-3.113zm50.593-1.93v1.93c0 1.623 1.461 3.113 3.754 3.113a4.925 4.925 0 004.881-3.537l7.36-.002c-1.098 3.418-5.62 7.478-13.936 7.478-10.838 0-14.236-5.885-14.236-10.383 0-4.798 3.926-10.508 14.218-10.508 8.9 0 14.22 5.17 14.22 10.51 0 .892-.076 1.399-.076 1.399h-16.185zm-66.86-10.887H73.622v4.143h2.965v10.66h-2.965v4.14h19.23v-4.14h-2.968V30.81zm16.267 7.642h4.125v-2.646c0-.8-.636-2.065-2.076-2.065-1.332 0-2.049 1.212-2.049 2.053v2.658zm54.715 0h-4.122v-2.658c0-.841.712-2.053 2.047-2.053 1.44 0 2.075 1.265 2.075 2.065v2.646z" fill="#FFF" fill-rule="evenodd"/></svg>