<svg width="39" height="24" viewBox="0 0 39 24" xmlns:xlink="http://www.w3.org/1999/xlink" xmlns="http://www.w3.org/2000/svg"><g id="maestro" stroke="none"><path d="M19.296 20.2a11.672 11.672 0 000-17.2A11.328 11.328 0 0011.6 0C5.194 0 0 5.194 0 11.6s5.194 11.6 11.6 11.6a11.33 11.33 0 007.696-3z" id="Path" fill="#009DDD"/><path d="M0 17.2A11.672 11.672 0 000 0v17.2z" transform="translate(19.296 3)" id="Path" fill="#009DDD"/><path d="M11.256 0a11.43 11.43 0 00-7.72 3 14.87 14.87 0 00-1.144 1.224h2.32c.312.384.608.8.88 1.224h-4.08c-.245.41-.47.819-.672 1.224h5.4c.184.408.36.8.496 1.224h-6.4C.2 8.306.088 8.722 0 9.144h7.048c.164.808.247 1.631.248 2.456a11.776 11.776 0 01-.584 3.68H.336c.133.41.29.819.472 1.224h5.4c-.196.42-.415.828-.656 1.224h-4.04c.267.426.561.835.88 1.224h2.32c-.362.443-.755.86-1.176 1.248a11.464 11.464 0 0019.2-8.592A11.544 11.544 0 0011.256 0z" transform="translate(15.76)" id="Path" fill="#ED1B2E"/><path d="M6.264 5.888h-1.44l.848-4.528L3.72 5.888H2.504l-.248-4.504-.944 4.504H0L1.104 0h2.28L3.4 3.64 4.976 0h2.408l-1.12 5.888z" transform="translate(3.536 8.952)" id="Path" fill="#003473"/><path d="M2.16 5.816a3.592 3.592 0 01-1.032.16C.408 5.976 0 5.616 0 4.928c.005-.145.02-.29.048-.432l.088-.48.064-.36L.856 0h1.416L2.08 1.088h.72l-.184 1.16h-.744l-.384 2v.208c0 .248.16.344.496.344a.93.93 0 00.384-.048l-.184 1.064H2.16z" transform="translate(23.616 8.952)" id="Path" fill="#003473"/><path d="M.528 1.6c0 .592.336 1.024 1.08 1.32.608.248.696.32.696.544 0 .224-.272.432-.8.432A4.456 4.456 0 01.2 3.688L0 4.8h.064l.272.048c.125.033.254.05.384.048.336 0 .608.048.8.048 1.528 0 2.232-.496 2.232-1.6a1.328 1.328 0 00-1.056-1.312c-.608-.224-.672-.296-.672-.52 0-.224.248-.384.696-.384.353.004.706.028 1.056.072l.2-1.088A8.656 8.656 0 002.696 0C1.096 0 .512.752.536 1.6H.528z" transform="translate(19.568 9.968)" id="Path" fill="#003473"/><path d="M2.794 4.968h1.192l.016-.064v-.296l.048-.248.048-.32.296-1.68c.082-.311.128-.63.136-.952C4.53.496 3.882 0 2.642 0A5.856 5.856 0 00.93.272l-.2 1.072h.136l.2-.072a5.92 5.92 0 011.168-.136c.672 0 .92.136.92.456 0 .1-.016.2-.048.296-.194-.01-.39-.01-.584 0-1.6 0-2.52.68-2.52 1.84a1.24 1.24 0 001.28 1.312 1.944 1.944 0 001.512-.568v.496zm-.112-2.136c.112-.01.224-.01.336 0v.024A1.088 1.088 0 011.986 4.04a.464.464 0 01-.52-.48c0-.48.416-.728 1.216-.728z" transform="translate(10.445 9.872)" id="Shape" fill="#003473" fill-rule="evenodd"/><path d="M2.411 5.022c.496 0 .989-.07 1.464-.208l.032-.04.248-1.208a3.504 3.504 0 01-1.488.32c-.84 0-1.264-.296-1.264-.84a.52.52 0 010-.16h2.84c.105-.373.156-.758.152-1.144A1.72 1.72 0 002.46.014 2.608 2.608 0 00.011 2.862c0 1.408.8 2.16 2.4 2.16zm.792-3.296v.248H1.611c.12-.568.472-.864.92-.864a.592.592 0 01.672.616z" transform="translate(15.236 9.914)" id="Shape" fill="#003473" fill-rule="evenodd"/><path d="M4.151 4.495a2.504 2.504 0 00.898-1.734 2.52 2.52 0 00.048-.592A2.08 2.08 0 002.825.01 2.672 2.672 0 00.009 2.85a2.032 2.032 0 002.272 2.208 2.504 2.504 0 001.87-.562zM2.81 1.217c.6 0 .8.48.8.976h.008c-.003.19-.019.38-.048.568a1.432 1.432 0 01-1.152 1.144c-.488 0-.8-.376-.8-1.088 0-.712.472-1.6 1.192-1.6z" transform="translate(29.327 9.895)" id="Shape" fill="#003473" fill-rule="evenodd"/><path d="M0 .9A.94.94 0 01.96 0a.9.9 0 01.9.9.94.94 0 01-.9.96A1 1 0 010 .9zm1.457.514a.7.7 0 01-.497.226A.74.74 0 01.22.9.7.7 0 01.96.22a.66.66 0 01.68.68.7.7 0 01-.183.514zM.84 1.3H.62V.5h.56c.06 0 .12.12.12.18s0 .22-.16.22l.16.34h-.22L.96.96H.84v.34zm.22-.46H.84V.66h.22v.18z" transform="translate(34.496 13.752)" id="Shape" fill="#FFF" fill-rule="evenodd"/><path d="M6.24 5.88H4.8l.856-4.52-1.96 4.52H2.392L2.16 1.384 1.312 5.88H0L1.104 0h2.248l.12 3.632L5.048 0H7.36L6.24 5.88z" transform="translate(3.92 8.616)" id="Path" fill="#FFF"/><path d="M2.16 5.816a3.592 3.592 0 01-1.032.16C.408 5.976 0 5.616 0 4.928a3.12 3.12 0 01.048-.432l.088-.48.064-.36L.856 0h1.416l-.2 1.088h.744l-.2 1.16h-.744l-.36 2a1.16 1.16 0 00-.048.208c0 .248.16.36.496.36a1.6 1.6 0 00.384-.048L2.16 5.816z" transform="translate(23.976 8.584)" id="Path" fill="#FFF"/><path d="M3.584.976v-.16l.272-.752h-.112a.272.272 0 01-.112 0h-.16c-.472 0-.8.208-1.264.8L2.368 0H.88L0 4.8h1.416c.2-1.112.296-1.728.408-2.248.184-.864.8-1.248 1.28-1.16a.44.44 0 01.16 0l.088.048.224-.408.008-.056z" transform="translate(26.224 10.112)" id="Path" fill="#003473"/><path d="M3.72.096a.384.384 0 00-.16-.048c-.064 0-.112 0-.112-.048h-.16c-.472 0-.8.208-1.24.8l.136-.728H.88L0 4.872h1.44c.52-2.928.72-3.456 1.416-3.456h.184l.16.048.52-1.36V.096z" transform="translate(26.584 9.656)" id="Path" fill="#FFF"/><path d="M.536 1.604c0 .592.336 1.024 1.104 1.32.584.248.672.32.672.544 0 .224-.272.432-.8.432a4.576 4.576 0 01-1.344-.184L0 4.804h.064l.248.072h.384c.265.034.533.05.8.048 1.512 0 2.232-.496 2.232-1.6 0-.656-.296-1.048-1.032-1.344-.608-.224-.672-.296-.672-.52 0-.224.248-.384.72-.384.345.004.69.028 1.032.072l.2-1.088A8.432 8.432 0 002.72.004c-1.6 0-2.184.728-2.184 1.6z" transform="translate(19.928 9.596)" id="Path" fill="#FFF"/><path d="M2.817 4.896h1.168l.04-.016v-.296l.048-.248.048-.296.296-1.704c.067-.313.105-.632.112-.952C4.53.48 3.897 0 2.657 0A6.456 6.456 0 00.93.224l-.2 1.064h.136l.2-.072a6.016 6.016 0 011.168-.112c.672 0 .92.112.92.432 0 .1-.016.2-.048.296-.194-.01-.39-.01-.584 0-1.6 0-2.52.68-2.52 1.84a1.24 1.24 0 001.304 1.296A1.944 1.944 0 002.817 4.4v.496zM2.641 2.76c.104-.009.209-.009.312 0v.016a1.112 1.112 0 01-1.032 1.208.464.464 0 01-.496-.496c0-.48.416-.728 1.216-.728z" transform="translate(10.807 9.6)" id="Shape" fill="#FFF" fill-rule="evenodd"/><path d="M2.411 5.02a5.408 5.408 0 001.464-.208l.232-1.184c-.47.198-.977.299-1.488.296-.832 0-1.24-.296-1.24-.84v-.16h2.856c.102-.387.156-.785.16-1.184A1.712 1.712 0 002.483.012 2.608 2.608 0 00.011 2.86c0 1.408.8 2.16 2.4 2.16zm.664-3.296v.248H1.5c.104-.544.456-.864.904-.864a.592.592 0 01.672.616z" transform="translate(15.62 9.588)" id="Shape" fill="#FFF" fill-rule="evenodd"/><path d="M4.158 4.454a2.536 2.536 0 00.915-1.733l-.006.032a2.52 2.52 0 00.046-.584A2.08 2.08 0 002.841.01 2.672 2.672 0 00.01 2.817a2.024 2.024 0 002.272 2.2 2.536 2.536 0 001.877-.563zm-1.373-3.3c.6 0 .8.455.8.951l-.016-.04a2.52 2.52 0 01-.048.592 1.4 1.4 0 01-1.104 1.16c-.488 0-.8-.424-.8-1.064 0-.736.448-1.6 1.168-1.6z" transform="translate(29.687 9.59)" id="Shape" fill="#FFF" fill-rule="evenodd"/></g></svg>