<svg width="39" height="24" xmlns="http://www.w3.org/2000/svg"><path d="M19.296 20.2a11.672 11.672 0 000-17.2A11.328 11.328 0 0011.6 0C5.194 0 0 5.194 0 11.6s5.194 11.6 11.6 11.6a11.33 11.33 0 007.696-3z" fill="#009DDD"/><path d="M19.296 20.2a11.672 11.672 0 000-17.2v17.2z" fill="#009DDD"/><path d="M27.016 0a11.43 11.43 0 00-7.72 3 14.87 14.87 0 00-1.144 1.224h2.32c.312.384.608.8.88 1.224h-4.08c-.246.41-.47.819-.672 1.224H22c.184.408.36.8.496 1.224h-6.4c-.136.41-.248.826-.336 1.248h7.048c.164.808.247 1.631.248 2.456a11.776 11.776 0 01-.584 3.68h-6.376c.133.41.29.819.472 1.224h5.4c-.197.42-.416.828-.656 1.224h-4.04c.267.426.561.835.88 1.224h2.32c-.362.443-.755.86-1.176 1.248a11.464 11.464 0 0019.2-8.592A11.544 11.544 0 0027.016 0z" fill="#ED1B2E"/><path d="M9.8 14.84H8.36l.848-4.528-1.952 4.528H6.04l-.248-4.504-.944 4.504H3.536L4.64 8.952h2.28l.016 3.64 1.576-3.64h2.408L9.8 14.84zm15.976-.072a3.592 3.592 0 01-1.032.16c-.72 0-1.128-.36-1.128-1.048.005-.145.021-.29.048-.432l.088-.48.064-.36.656-3.656h1.416l-.192 1.088h.72l-.184 1.16h-.744l-.384 2v.208c0 .248.16.344.496.344a.927.927 0 00.384-.048l-.184 1.064h-.024zm-5.68-3.2c0 .592.336 1.024 1.08 1.32.608.248.696.32.696.544 0 .224-.272.432-.8.432a4.456 4.456 0 01-1.304-.208l-.2 1.112h.064l.272.048c.126.033.255.049.384.048.336 0 .608.048.8.048 1.528 0 2.232-.496 2.232-1.6A1.328 1.328 0 0022.264 12c-.608-.224-.672-.296-.672-.52 0-.224.248-.384.696-.384.353.004.706.028 1.056.072l.2-1.088a8.656 8.656 0 00-1.28-.112c-1.6 0-2.184.752-2.16 1.6h-.008z" fill="#003473"/><path d="M13.24 14.84h1.191l.016-.064v-.296l.048-.248.048-.32.296-1.68c.082-.311.128-.63.136-.952 0-.912-.648-1.408-1.888-1.408a5.856 5.856 0 00-1.712.272l-.2 1.072h.136l.2-.072a5.92 5.92 0 011.168-.136c.672 0 .92.136.92.456 0 .1-.015.2-.048.296a5.688 5.688 0 00-.584 0c-1.6 0-2.52.68-2.52 1.84a1.24 1.24 0 001.28 1.312 1.944 1.944 0 001.512-.568v.496zm-.113-2.136c.112-.01.225-.01.336 0v.024a1.088 1.088 0 01-1.032 1.184.464.464 0 01-.52-.48c0-.48.416-.728 1.216-.728zm4.521 2.232c.495 0 .988-.07 1.464-.208l.032-.04.248-1.208a3.504 3.504 0 01-1.488.32c-.84 0-1.264-.296-1.264-.84a.52.52 0 010-.16h2.84a4.14 4.14 0 00.152-1.144 1.72 1.72 0 00-1.936-1.728 2.608 2.608 0 00-2.448 2.848c0 1.408.8 2.16 2.4 2.16zm.792-3.296v.248h-1.592c.12-.568.472-.864.92-.864a.592.592 0 01.672.616zm15.038 2.75a2.504 2.504 0 00.898-1.734 2.52 2.52 0 00.048-.592 2.08 2.08 0 00-2.272-2.16 2.672 2.672 0 00-2.816 2.84 2.032 2.032 0 002.272 2.208 2.504 2.504 0 001.87-.562zm-1.342-3.278c.6 0 .8.48.8.976h.008c-.003.19-.019.38-.048.568a1.432 1.432 0 01-1.152 1.144c-.488 0-.8-.376-.8-1.088 0-.712.472-1.6 1.192-1.6z" fill="#003473" fill-rule="evenodd"/><path d="M34.496 14.652a.94.94 0 01.96-.9.9.9 0 01.9.9.94.94 0 01-.9.96 1 1 0 01-.96-.96zm1.457.514a.7.7 0 01-.497.226.74.74 0 01-.74-.74.7.7 0 01.74-.68.66.66 0 01.68.68.7.7 0 01-.183.514zm-.617-.114h-.22v-.8h.56c.06 0 .12.12.12.18s0 .22-.16.22l.16.34h-.22l-.12-.28h-.12v.34zm.22-.46h-.22v-.18h.22v.18z" fill="#FFF" fill-rule="evenodd"/><path d="M10.16 14.496H8.72l.856-4.52-1.96 4.52H6.312L6.08 10l-.848 4.496H3.92l1.104-5.88h2.248l.12 3.632 1.576-3.632h2.312l-1.12 5.88zm15.976-.096a3.592 3.592 0 01-1.032.16c-.72 0-1.128-.36-1.128-1.048a3.12 3.12 0 01.048-.432l.088-.48.064-.36.656-3.656h1.416l-.2 1.088h.744l-.2 1.16h-.744l-.36 2a1.16 1.16 0 00-.048.208c0 .248.16.36.496.36a1.6 1.6 0 00.384-.048l-.184 1.048z" fill="#FFF"/><path d="M29.808 11.088v-.16l.272-.752h-.112a.272.272 0 01-.112 0h-.16c-.472 0-.8.208-1.264.8l.16-.864h-1.488l-.88 4.8h1.416c.2-1.112.296-1.728.408-2.248.184-.864.8-1.248 1.28-1.16a.44.44 0 01.16 0l.088.048.224-.408.008-.056z" fill="#003473"/><path d="M30.304 9.752a.384.384 0 00-.16-.048c-.064 0-.112 0-.112-.048h-.16c-.472 0-.8.208-1.24.8l.136-.728h-1.304l-.88 4.8h1.44c.52-2.928.72-3.456 1.416-3.456h.184l.16.048.52-1.36v-.008zm-9.84 1.448c0 .592.336 1.024 1.104 1.32.584.248.672.32.672.544 0 .224-.272.432-.8.432a4.576 4.576 0 01-1.344-.184l-.168 1.088h.064l.248.072h.384c.265.034.532.05.8.048 1.512 0 2.232-.496 2.232-1.6 0-.656-.296-1.048-1.032-1.344-.608-.224-.672-.296-.672-.52 0-.224.248-.384.72-.384.345.004.69.028 1.032.072l.2-1.088a8.432 8.432 0 00-1.256-.056c-1.6 0-2.184.728-2.184 1.6z" fill="#FFF"/><path d="M13.624 14.496h1.168l.04-.016v-.296l.048-.248.048-.296.296-1.704c.067-.313.105-.632.112-.952 0-.904-.632-1.384-1.872-1.384a6.456 6.456 0 00-1.728.224l-.2 1.064h.136l.2-.072a6.016 6.016 0 011.168-.112c.672 0 .92.112.92.432 0 .1-.016.2-.048.296-.195-.01-.39-.01-.584 0-1.6 0-2.52.68-2.52 1.84a1.24 1.24 0 001.304 1.296A1.944 1.944 0 0013.624 14v.496zm-.176-2.136c.104-.01.208-.01.312 0v.016a1.112 1.112 0 01-1.032 1.208.464.464 0 01-.496-.496c0-.48.416-.728 1.216-.728zm4.583 2.248a5.408 5.408 0 001.464-.208l.232-1.184c-.47.198-.977.299-1.488.296-.832 0-1.24-.296-1.24-.84v-.16h2.856c.102-.387.156-.785.16-1.184A1.712 1.712 0 0018.103 9.6a2.608 2.608 0 00-2.472 2.848c0 1.408.8 2.16 2.4 2.16zm.664-3.296v.248H17.12c.104-.544.456-.864.904-.864a.592.592 0 01.672.616zm15.15 2.733a2.536 2.536 0 00.915-1.733l-.007.032a2.52 2.52 0 00.047-.584 2.08 2.08 0 00-2.272-2.16 2.672 2.672 0 00-2.832 2.808 2.024 2.024 0 002.272 2.2 2.536 2.536 0 001.877-.563zm-1.373-3.301c.6 0 .8.456.8.952l-.016-.04a2.52 2.52 0 01-.048.592 1.4 1.4 0 01-1.104 1.16c-.488 0-.8-.424-.8-1.064 0-.736.448-1.6 1.168-1.6z" fill="#FFF" fill-rule="evenodd"/></svg>