<svg width="41" height="24" xmlns="http://www.w3.org/2000/svg"><path d="M11.966 24c6.609 0 11.966-5.373 11.966-12S18.575 0 11.966 0C5.357 0 0 5.373 0 12s5.357 12 11.966 12z" fill="#D81E05"/><path d="M28.034 0A11.867 11.867 0 0020 3.103c-.432.393-.836.817-1.208 1.268h2.417c.333.406.64.833.919 1.278h-4.256c-.254.408-.485.832-.689 1.268H22.8c.194.413.365.836.51 1.269h-6.629c-.139.407-.255.822-.349 1.243h7.328c.453 2.11.332 4.304-.35 6.351h-6.629c.143.432.31.856.502 1.269h5.626c-.2.448-.428.883-.681 1.303h-4.256c.276.442.58.866.911 1.268H21.2c-.371.452-.775.876-1.208 1.269a11.85 11.85 0 0014.283 1.31c4.518-2.822 6.634-8.317 5.185-13.468C38.012 3.579 33.35.017 28.034 0z" fill="#FCA311"/><path d="M9.039 15.514h1.08v.008c.035-.377.273-1.911.384-2.665a6.47 6.47 0 00.06-1.003c0-.943-.588-1.449-1.703-1.449a5.141 5.141 0 00-1.557.266l-.18 1.114a4.32 4.32 0 011.38-.223c.62 0 .85.129.85.455a1.22 1.22 0 01-.05.317 4.445 4.445 0 00-.528 0c-1.43 0-2.281.703-2.281 1.911A1.211 1.211 0 007.677 15.6a1.629 1.629 0 001.362-.6v.514zm-.153-2.203h.289l.008.026c-.025.728-.408 1.234-.936 1.234a.45.45 0 01-.35-.144.456.456 0 01-.118-.362c0-.497.366-.754 1.107-.754z" fill="#192168" fill-rule="evenodd"/><path d="M5.974 15.523H4.672l.749-4.68-1.668 4.68h-.885l-.102-4.654-.783 4.654H.766l1.012-6.086h1.873l.11 3.403 1.14-3.402h2.077l-1.004 6.085z" fill="#192168"/><path d="M29.507 15.514h1.08v.008c.051-.377.273-1.911.383-2.665.047-.332.067-.668.06-1.003 0-.943-.587-1.449-1.702-1.449a5.141 5.141 0 00-1.558.266l-.178 1.114a4.33 4.33 0 011.378-.223c.622 0 .851.129.851.455-.003.107-.02.214-.05.317a4.453 4.453 0 00-.528 0c-1.43 0-2.281.703-2.281 1.911a1.211 1.211 0 001.183 1.355 1.629 1.629 0 001.362-.6v.514zm-.154-2.203h.29l.008.026c-.025.728-.408 1.234-.936 1.234a.45.45 0 01-.35-.144.456.456 0 01-.118-.362c0-.497.366-.754 1.106-.754z" fill="#192168" fill-rule="evenodd"/><path d="M15.89 15.429a2.962 2.962 0 01-.937.162.94.94 0 01-.78-.29.956.956 0 01-.25-.798c.035-.443.094-.884.18-1.32l.561-3.377h1.294l-.153.745h.783l-.18 1.192h-.782c-.153.943-.366 2.117-.366 2.271 0 .155.136.369.442.369.118.005.236-.01.35-.043l-.162 1.089z" fill="#192168"/><path d="M18.52 15.626a4.38 4.38 0 001.327-.197l.238-1.235c-.42.204-.879.31-1.345.309-.749 0-1.208-.3-1.123-1.02h2.553c.1-.398.155-.807.162-1.217.04-.48-.129-.955-.464-1.3a1.636 1.636 0 00-1.28-.492c-1.303 0-2.265 1.226-2.265 2.94a1.98 1.98 0 00.557 1.651 1.95 1.95 0 001.64.56zm.606-3.174l-.003.045h-1.455c.145-.54.443-.857.851-.857.67 0 .622.619.607.812z" fill="#192168" fill-rule="evenodd"/><path d="M10.893 12.137a1.447 1.447 0 001.022 1.38c.527.249.604.326.604.549 0 .223-.23.446-.75.446a3.636 3.636 0 01-1.165-.197l-.196 1.114c.444.1.898.148 1.353.146 1.37 0 2-.523 2-1.655a1.354 1.354 0 00-.919-1.38c-.544-.248-.604-.308-.604-.54 0-.231.213-.403.638-.403.314.006.626.031.936.078l.188-1.15a8.705 8.705 0 00-1.14-.093c-1.465.025-1.967.788-1.967 1.705zm15.277-1.551c.407.01.804.123 1.158.325l.213-1.32a3.812 3.812 0 00-1.43-.514 2.549 2.549 0 00-2.12 1.149c-.757-.249-1.063.257-1.446.763l-.34.077a2.52 2.52 0 000-.497h-1.192c-.162 1.534-.451 3.085-.681 4.62l-.06.334h1.303c.212-1.414.332-2.314.408-2.932l.494-.274c.076-.274.298-.368.757-.351a5.593 5.593 0 00-.093 1.011c0 1.62.85 2.632 2.272 2.632a4.04 4.04 0 001.191-.18l.23-1.389a2.54 2.54 0 01-1.106.309c-.758 0-1.209-.558-1.209-1.483 0-1.337.681-2.28 1.651-2.28z" fill="#192168"/><path d="M36.877 11.186l.289-1.757h1.285l-1.004 6.085h-1.192l.06-.462a1.527 1.527 0 01-1.2.548c-.945 0-1.566-.823-1.566-2.057 0-.55.107-1.094.315-1.603-.353-.02-.565.19-.853.476-.08.08-.166.165-.262.253-.102.754-.23 1.705-.409 2.845h-1.327l.06-.334c.23-1.534.518-3.086.68-4.62h1.192a7.45 7.45 0 01-.06.746c.363.123.732.226 1.106.308a2.01 2.01 0 011.643-1.234c.518.053.98.352 1.243.806zm-2 2.211q0 .977.663.977c.605 0 1.056-.66 1.03-1.671 0-.626-.247-.969-.69-.969-.586 0-1.003.695-1.003 1.663z" fill="#192168" fill-rule="evenodd"/><path d="M6.35 15.154H5.046l.749-4.671-1.668 4.671h-.885l-.102-4.646-.783 4.646H1.14l1.012-6.086h1.873l.05 3.772 1.26-3.772h2.017L6.35 15.154z" fill="#FEFEFE"/><path d="M9.413 15.155h1.08c.035-.369.273-1.912.367-2.675.059-.322.093-.649.102-.977 0-.943-.588-1.448-1.702-1.448a5.167 5.167 0 00-1.558.265l-.179 1.115c.445-.15.91-.224 1.38-.223.62 0 .85.12.85.446-.002.11-.02.22-.05.325a4.329 4.329 0 00-.529 0c-1.43 0-2.28.703-2.28 1.912-.036.335.068.67.288.926.22.255.534.407.869.42a1.629 1.629 0 001.362-.6v.514zm-.153-2.203h.289l.008.026c-.025.728-.408 1.234-.936 1.234a.45.45 0 01-.35-.144.456.456 0 01-.118-.362c0-.497.366-.754 1.107-.754z" fill="#FEFEFE" fill-rule="evenodd"/><path d="M27.915 9.24l-.213 1.32a2.48 2.48 0 00-1.157-.326c-.97 0-1.651.943-1.651 2.28 0 .926.46 1.483 1.208 1.483a2.538 2.538 0 001.132-.283l-.23 1.389a4.05 4.05 0 01-1.149.18c-1.395 0-2.272-1.012-2.272-2.632 0-2.177 1.209-3.694 2.928-3.694.48.018.954.114 1.404.283z" fill="#FEFEFE"/><path d="M29.88 15.154h1.081c.026-.368.273-1.911.426-2.631.06-.323.094-.65.102-.977 0-.943-.587-1.449-1.702-1.449a5.165 5.165 0 00-1.643.215l-.178 1.114c.444-.15.91-.224 1.378-.223.622 0 .851.12.851.446-.002.11-.02.22-.05.325a4.309 4.309 0 00-.528 0c-1.43 0-2.281.703-2.281 1.912-.039.341.068.683.293.941.226.258.549.408.89.413a1.629 1.629 0 001.362-.6v.514zm-.161-2.202h.29l.008.025c-.026.729-.409 1.235-.936 1.235a.45.45 0 01-.35-.145.456.456 0 01-.119-.361c0-.497.366-.754 1.107-.754z" fill="#FEFEFE" fill-rule="evenodd"/><path d="M16.264 15.086c-.302.104-.618.16-.937.163a.94.94 0 01-.78-.29.956.956 0 01-.25-.799c.033-.437.09-.872.17-1.302l.563-3.378h1.31l-.153.746h.664l-.179 1.192h-.664c-.153.942-.366 2.117-.366 2.271 0 .154.137.369.443.369a1.04 1.04 0 00.349-.043l-.17 1.071z" fill="#FEFEFE"/><path d="M18.894 15.24c.45.002.898-.064 1.328-.197h-.009l.213-1.234c-.411.2-.862.306-1.32.308-.748 0-1.208-.3-1.123-1.02h2.554c.1-.398.154-.806.161-1.217a1.661 1.661 0 00-.464-1.3 1.636 1.636 0 00-1.28-.491c-1.294 0-2.256 1.225-2.256 2.94a1.98 1.98 0 00.557 1.65 1.95 1.95 0 001.64.561zm.607-3.174l-.003.045h-1.455c.145-.54.443-.857.851-.857.67 0 .622.619.607.812z" fill="#FEFEFE" fill-rule="evenodd"/><path d="M11.268 11.777a1.448 1.448 0 00.987 1.38c.528.248.604.325.604.548 0 .223-.23.446-.749.446a3.653 3.653 0 01-1.166-.197l-.178 1.14c.444.1.898.148 1.353.146 1.37 0 2-.523 2-1.655a1.354 1.354 0 00-.92-1.38c-.544-.248-.604-.308-.604-.54 0-.231.213-.403.639-.403.313.006.626.031.936.078l.187-1.149a8.824 8.824 0 00-1.14-.094c-1.447 0-1.95.763-1.95 1.68z" fill="#FEFEFE"/><path d="M36.596 15.154h1.234l.987-6.086h-1.285l-.29 1.757A1.461 1.461 0 0036 10.148c-1.14 0-2.11 1.389-2.11 3.035 0 1.2.62 2.057 1.566 2.057a1.53 1.53 0 001.2-.549l-.06.463zm.349-2.811c0 .985-.426 1.671-1.03 1.671-.442 0-.664-.3-.664-.977 0-.977.417-1.663 1.005-1.663.45 0 .689.343.689.969z" fill="#FEFEFE" fill-rule="evenodd"/><path d="M32.128 10.208c-.162 1.535-.45 3.086-.68 4.62l-.06.335h1.302c.468-3.026.579-3.617 1.302-3.54.088-.504.255-.99.494-1.44-.545-.112-.851.197-1.243.78a4.54 4.54 0 00.077-.755h-1.192zm-10.698 0c-.162 1.535-.451 3.086-.681 4.62l-.06.335h1.303c.468-3.026.578-3.617 1.302-3.54a4.9 4.9 0 01.536-1.44c-.545-.112-.851.197-1.243.78.047-.25.073-.501.077-.755H21.43z" fill="#FEFEFE"/><path d="M38.408 15.29c0-.501.403-.907.9-.907s.9.406.9.906-.403.907-.9.907a.903.903 0 01-.9-.907zm.9.684c.376 0 .68-.307.68-.685a.682.682 0 00-.68-.685.682.682 0 00-.68.685c0 .378.305.685.68.685zm-.12-.302v-.322h.14l.12.322h.2l-.14-.342a.222.222 0 00.14-.202.242.242 0 00-.1-.201.377.377 0 00-.2 0h-.34v.805l.18-.06zm0-.443h.22-.22z" fill="#FEFEFE" fill-rule="evenodd"/></svg>