<svg width="41" height="24" viewBox="0 0 41 24" xmlns:xlink="http://www.w3.org/1999/xlink" xmlns="http://www.w3.org/2000/svg"><g id="master" stroke="none"><path d="M11.966 24c6.609 0 11.966-5.373 11.966-12S18.575 0 11.966 0C5.357 0 0 5.373 0 12s5.357 12 11.966 12z" id="Oval" fill="#D81E05"/><path d="M11.702 0a11.867 11.867 0 00-8.034 3.103c-.432.393-.836.817-1.208 1.268h2.417c.333.406.64.833.919 1.278H1.54c-.254.408-.485.832-.689 1.268h5.617c.194.413.365.836.51 1.269H.349C.21 8.593.095 9.008 0 9.429h7.328c.453 2.11.332 4.304-.35 6.351H.349c.144.432.312.856.503 1.269h5.626c-.2.448-.428.883-.681 1.303H1.54c.276.442.58.866.911 1.268h2.417c-.371.452-.775.876-1.208 1.269a11.85 11.85 0 0014.283 1.31c4.518-2.822 6.634-8.317 5.185-13.468C21.68 3.579 17.018.017 11.702 0z" transform="translate(16.332)" id="Path" fill="#FCA311"/><path d="M2.552 5.109h1.081v.008c.034-.377.273-1.911.383-2.666.047-.332.066-.667.06-1.002C4.076.506 3.489 0 2.374 0A5.141 5.141 0 00.816.266L.638 1.38a4.32 4.32 0 011.378-.223c.622 0 .851.129.851.454-.003.108-.02.215-.05.318a4.445 4.445 0 00-.528 0C.859 1.929.008 2.63.008 3.84c-.039.341.068.683.293.941.225.258.549.408.89.413a1.629 1.629 0 001.361-.6v.515zM2.4 2.906h.29l.008.025c-.025.729-.408 1.235-.936 1.235a.45.45 0 01-.35-.144.456.456 0 01-.118-.362c0-.497.366-.754 1.106-.754z" transform="translate(6.486 10.405)" id="Shape" fill="#192168" fill-rule="evenodd"/><path d="M5.209 6.086H3.906l.75-4.68-1.669 4.68h-.885L2 1.43l-.783 4.655H0L1.013 0h1.872l.11 3.403L4.137 0h2.077L5.209 6.086z" transform="translate(.766 9.438)" id="Path" fill="#192168"/><path d="M2.552 5.109h1.081v.008c.051-.377.273-1.911.383-2.666a6.22 6.22 0 00.06-1.002C4.076.506 3.489 0 2.374 0A5.141 5.141 0 00.816.266L.638 1.38a4.33 4.33 0 011.378-.223c.622 0 .851.129.851.454-.003.108-.02.215-.05.318a4.453 4.453 0 00-.528 0C.859 1.929.008 2.63.008 3.84c-.039.341.068.683.293.941.225.258.549.408.89.413a1.629 1.629 0 001.361-.6v.515zM2.4 2.906h.29l.008.025c-.025.729-.408 1.235-.936 1.235a.45.45 0 01-.35-.144.456.456 0 01-.118-.362c0-.497.366-.754 1.106-.754z" transform="translate(26.954 10.405)" id="Shape" fill="#192168" fill-rule="evenodd"/><path d="M1.977 5.623c-.302.104-.618.16-.937.163a.94.94 0 01-.78-.29.956.956 0 01-.25-.799c.035-.443.094-.884.18-1.32L.75 0h1.294L1.89.746h.783l-.178 1.191h-.783c-.153.943-.366 2.117-.366 2.272 0 .154.136.368.442.368.118.005.236-.009.35-.043l-.162 1.089z" transform="translate(13.913 9.806)" id="Path" fill="#192168"/><path d="M2.212 5.155a4.38 4.38 0 001.328-.197l.238-1.234c-.419.204-.879.31-1.344.308-.75 0-1.209-.3-1.124-1.02h2.553c.101-.398.156-.806.162-1.217.04-.48-.129-.955-.464-1.3a1.636 1.636 0 00-1.28-.491C.978.004.017 1.229.017 2.944a1.98 1.98 0 00.556 1.65 1.95 1.95 0 001.64.561zm.607-3.174l-.002.045H1.36c.145-.54.443-.857.851-.857.671 0 .623.619.607.812z" transform="translate(16.307 10.47)" id="Shape" fill="#192168" fill-rule="evenodd"/><path d="M.485 1.706a1.447 1.447 0 001.021 1.38c.528.248.605.325.605.548 0 .223-.23.446-.75.446a3.636 3.636 0 01-1.165-.197L0 4.997c.444.1.898.149 1.353.146 1.37 0 2-.523 2-1.654a1.354 1.354 0 00-.919-1.38c-.545-.249-.604-.309-.604-.54 0-.232.213-.403.638-.403.313.005.626.03.936.077L3.591.094A8.705 8.705 0 002.451 0C.987.026.485.789.485 1.706z" transform="translate(10.408 10.432)" id="Path" fill="#192168"/><path d="M5.898 1.509c.406.01.804.123 1.157.325l.213-1.32A3.812 3.812 0 005.838 0 2.549 2.549 0 003.72 1.149c-.757-.249-1.064.257-1.447.762l-.34.078a2.52 2.52 0 000-.498H.74C.58 3.026.29 4.577.06 6.111L0 6.446h1.302c.213-1.415.332-2.315.409-2.932l.493-.274c.077-.274.298-.369.758-.351A5.593 5.593 0 002.868 3.9c0 1.62.851 2.631 2.272 2.631.404 0 .806-.06 1.192-.18l.23-1.388a2.54 2.54 0 01-1.107.308c-.757 0-1.208-.557-1.208-1.482 0-1.338.68-2.28 1.65-2.28z" transform="translate(20.272 9.077)" id="Path" fill="#192168"/><path d="M5.864 1.757L6.154 0h1.284L6.434 6.086H5.243l.06-.463a1.527 1.527 0 01-1.2.548c-.946 0-1.567-.822-1.567-2.057 0-.55.108-1.094.315-1.603-.353-.02-.565.191-.853.477-.08.08-.166.164-.262.252-.102.754-.23 1.706-.408 2.846H0l.06-.335c.23-1.534.519-3.085.68-4.62h1.192c-.007.25-.027.499-.06.746.363.123.733.226 1.107.309A2.01 2.01 0 014.62.95c.519.053.98.353 1.243.806zm-2 2.212q0 .977.664.977c.604 0 1.055-.66 1.03-1.672 0-.625-.247-.968-.69-.968-.587 0-1.004.694-1.004 1.663z" transform="translate(31.013 9.429)" id="Shape" fill="#192168" fill-rule="evenodd"/><path d="M5.209 6.086H3.906l.75-4.672-1.669 4.672h-.885L2 1.44l-.783 4.646H0L1.013 0h1.872l.051 3.771L4.196 0h2.017L5.209 6.086z" transform="translate(1.14 9.068)" id="Path" fill="#FEFEFE"/><path d="M2.526 5.1h1.08c.035-.369.273-1.911.367-2.674a6.3 6.3 0 00.102-.977C4.075.506 3.488 0 2.373 0A5.167 5.167 0 00.815.266L.637 1.38c.444-.149.91-.224 1.378-.223.622 0 .851.12.851.446-.002.11-.019.22-.05.326a4.329 4.329 0 00-.528 0C.858 1.929.007 2.63.007 3.84c-.036.336.069.671.288.926.22.255.534.407.87.42a1.629 1.629 0 001.361-.6V5.1zm-.153-2.203h.29l.008.026c-.026.728-.409 1.234-.936 1.234a.45.45 0 01-.35-.144.456.456 0 01-.119-.362c0-.497.366-.754 1.107-.754z" transform="translate(6.887 10.055)" id="Shape" fill="#FEFEFE" fill-rule="evenodd"/><path d="M4.332.283l-.213 1.32a2.48 2.48 0 00-1.157-.326c-.97 0-1.651.943-1.651 2.28 0 .926.46 1.483 1.208 1.483a2.538 2.538 0 001.132-.283l-.23 1.389a4.05 4.05 0 01-1.149.18C.877 6.326 0 5.314 0 3.694 0 1.517 1.209 0 2.928 0c.48.018.954.114 1.404.283z" transform="translate(23.583 8.957)" id="Path" fill="#FEFEFE"/><path d="M2.552 5.06h1.081c.026-.369.273-1.912.426-2.632.06-.322.093-.649.102-.977C4.16.508 3.574.003 2.459.003A5.165 5.165 0 00.816.217L.638 1.33c.444-.149.91-.224 1.378-.223.622 0 .851.12.851.446-.002.11-.02.22-.05.326a4.309 4.309 0 00-.528 0C.859 1.88.008 2.583.008 3.79a1.22 1.22 0 00.293.941c.225.258.549.408.89.413a1.629 1.629 0 001.361-.6v.515zm-.161-2.203h.29l.008.026c-.026.728-.409 1.234-.937 1.234a.45.45 0 01-.35-.144.456.456 0 01-.118-.362c0-.497.366-.754 1.107-.754z" transform="translate(27.328 10.095)" id="Shape" fill="#FEFEFE" fill-rule="evenodd"/><path d="M1.977 5.606a2.992 2.992 0 01-.937.163.94.94 0 01-.78-.29.956.956 0 01-.25-.799c.032-.437.09-.872.17-1.303L.744 0h1.31L1.9.746h.664l-.179 1.191h-.664c-.153.943-.366 2.117-.366 2.272 0 .154.136.368.443.368a1.04 1.04 0 00.349-.043l-.17 1.072z" transform="translate(14.287 9.48)" id="Path" fill="#FEFEFE"/><path d="M2.212 5.155c.45.002.898-.064 1.328-.197h-.008l.212-1.234c-.411.2-.862.306-1.319.308-.749 0-1.208-.3-1.123-1.02h2.553c.1-.398.155-.806.162-1.217.04-.48-.129-.955-.464-1.3a1.636 1.636 0 00-1.281-.49C.978.004.017 1.229.017 2.944a1.98 1.98 0 00.556 1.65 1.95 1.95 0 001.64.561zm.607-3.174l-.002.045H1.36c.145-.54.443-.857.851-.857.671 0 .623.619.607.812z" transform="translate(16.682 10.085)" id="Shape" fill="#FEFEFE" fill-rule="evenodd"/><path d="M.502 1.68a1.448 1.448 0 00.987 1.38c.528.249.605.326.605.549 0 .222-.23.445-.75.445A3.653 3.653 0 01.18 3.857L0 4.997c.444.1.898.149 1.353.146 1.37 0 2-.523 2-1.654a1.354 1.354 0 00-.919-1.38c-.545-.249-.604-.309-.604-.54 0-.232.213-.403.638-.403.313.005.626.03.936.077L3.591.094A8.824 8.824 0 002.451 0C1.004 0 .502.763.502 1.68z" transform="translate(10.766 10.097)" id="Path" fill="#FEFEFE"/><path d="M2.706 6.086H3.94L4.928 0H3.643l-.29 1.757a1.461 1.461 0 00-1.242-.677C.97 1.08 0 2.469 0 4.114c0 1.2.621 2.057 1.566 2.057.462.009.902-.192 1.2-.548l-.06.463zm.35-2.812c0 .986-.426 1.672-1.03 1.672-.443 0-.664-.3-.664-.977 0-.978.417-1.663 1.004-1.663.451 0 .69.343.69.968z" transform="translate(33.89 9.068)" id="Shape" fill="#FEFEFE" fill-rule="evenodd"/><path d="M.74.048C.58 1.583.29 3.134.06 4.668L0 5.003h1.302c.468-3.026.579-3.618 1.302-3.54.088-.504.255-.99.494-1.44-.545-.112-.851.197-1.243.78a4.54 4.54 0 00.077-.755H.74z" transform="translate(31.388 10.16)" id="Path" fill="#FEFEFE"/><path d="M.74.048C.58 1.583.29 3.134.06 4.668L0 5.003h1.302c.468-3.026.579-3.618 1.302-3.54A4.9 4.9 0 013.14.023c-.544-.112-.85.197-1.242.78.047-.25.072-.502.076-.755H.74z" transform="translate(20.69 10.16)" id="Path" fill="#FEFEFE"/><path d="M0 .906C0 .406.403 0 .9 0s.9.406.9.906a.904.904 0 01-.9.907.903.903 0 01-.9-.907zm.9.685c.376 0 .68-.306.68-.685A.682.682 0 00.9.222a.682.682 0 00-.68.684c0 .379.304.685.68.685zM.78 1.29V.967h.14l.12.322h.2L1.1.947a.222.222 0 00.14-.202.242.242 0 00-.1-.201.377.377 0 00-.2 0H.6v.806l.18-.06zm0-.443H1 .78z" transform="translate(38.408 14.383)" id="Shape" fill="#FEFEFE" fill-rule="evenodd"/></g></svg>