<svg width="40" height="40" viewBox="0 0 40 40" xmlns:xlink="http://www.w3.org/1999/xlink" xmlns="http://www.w3.org/2000/svg"><g id="new" stroke="none"><path d="M20 40c11.046 0 20-8.954 20-20S31.046 0 20 0 0 8.954 0 20s8.954 20 20 20z" id="Oval" fill="#31B64B"/><path d="M17.293.025l2.94 8.67h1.648l1.943-5.632 1.943 5.633h1.648l2.94-8.671h-1.98l-1.784 5.83L24.661 0h-1.624l-1.931 5.854-1.784-5.83h-2.03zM0 .025v8.61h1.87V3.16l4.169 5.473H7.65V.024H5.78v5.302L1.748.025H0zm9.716 8.61V.024h6.495V1.71h-4.613v1.746h4.06v1.685h-4.06V6.95h4.674v1.685H9.717z" transform="translate(5.217 15.652)" id="NEW" fill="#FFF" fill-rule="evenodd"/></g></svg>