<svg width="40" height="40" xmlns="http://www.w3.org/2000/svg"><path d="M20 40c11.046 0 20-8.954 20-20S31.046 0 20 0 0 8.954 0 20s8.954 20 20 20z" fill="#31B64B"/><path d="M22.51 15.677l2.94 8.67h1.648l1.943-5.632 1.944 5.633h1.648l2.94-8.671h-1.981l-1.783 5.83-1.931-5.855h-1.624l-1.93 5.855-1.784-5.83h-2.03zm-17.293 0v8.61h1.87v-5.474l4.17 5.473h1.61v-8.61h-1.869v5.302l-4.034-5.301H5.217zm9.717 8.61v-8.61h6.494v1.685h-4.612v1.746h4.058v1.685h-4.058v1.808h4.673v1.685h-6.555z" fill="#FFF" fill-rule="evenodd"/></svg>