<svg width="240" height="38" viewBox="0 0 240 38" xmlns:xlink="http://www.w3.org/1999/xlink" xmlns="http://www.w3.org/2000/svg"><g id="Otkr_logo_bank" stroke="none"><path d="M0 0h.857v37.114H0V0z" transform="translate(201.941 .343)" id="Rectangle" fill="#000"/><g id="Group" transform="translate(214.285 14.571)" fill="#000"><path d="M0 8.571h2.914c1.715 0 2.743-.857 2.829-2.485V6c0-1.714-1.114-2.4-2.829-2.4H1.03V.857h4.028V0H0v8.571zm4.629-2.4c0 1.029-.515 1.629-1.8 1.629H.943V4.457h1.8c1.286 0 1.886.6 1.886 1.629v.085z" id="Shape" fill-rule="evenodd"/><path d="M3.171 2.743C1.543 2.743 0 3.257 0 4.714 0 6 .857 6.6 2.057 6.6 3 6.6 3.6 6.257 4.03 5.657v.772h1.028v-4.2C5.057.514 3.943 0 2.743 0S.429.514.257 1.971h1.029C1.37 1.2 1.886.857 2.743.857c1.028 0 1.371.429 1.371 1.457v.429h-.943zm.858.771v.772c0 .943-.858 1.457-1.8 1.457-.858 0-1.2-.343-1.2-1.029 0-.857.857-1.2 2.142-1.2h.858z" transform="translate(6.686 2.143)" id="Shape" fill-rule="evenodd"/><path d="M4.114 3.514H1.03v2.743H0V0h1.029v2.657h3.085V0h1.029v6.257H4.114V3.514z" transform="translate(13.371 2.314)" id="Path"/><path d="M1.029 3.086v3.171H0V0h1.029v2.914L3.6 0h1.2L2.143 2.914l2.914 3.343h-1.2L1.03 3.086z" transform="translate(20.143 2.314)" id="Path"/></g><g id="Group" fill-rule="evenodd"><path d="M18.6 0C8.314 0 0 8.314 0 18.6c0 10.286 8.314 18.6 18.6 18.6 10.286 0 18.6-8.314 18.6-18.6C37.2 8.314 28.886 0 18.6 0zm-2.571 26.486l-1.372 4.028c-5.143-1.714-8.571-6.6-8.571-12.085 0-5.486 3.428-10.286 8.657-12.086l1.371 4.028c-3.428 1.115-5.657 4.372-5.657 7.972-.171 3.771 2.143 7.028 5.572 8.143zm5.057 0L22.37 30.6c5.315-1.629 8.915-6.514 8.915-12.171a12.713 12.713 0 00-8.743-12.086l-1.372 4.114c3.429 1.114 5.743 4.286 5.743 7.972 0 3.685-2.314 6.942-5.828 8.057z" transform="translate(0 .429)" id="Shape" fill="#00BEF0"/><path d="M69.857 8.571C69.857 3.6 66.43 0 61.8 0c-2.229 0-4.029.771-5.4 2.4V.429h-3.514v23.228h3.6v-8.571c1.285 1.371 3.085 2.143 5.314 2.143 4.714 0 8.057-3.772 8.057-8.658zM8.83.086C3.77.086 0 3.77 0 8.657c0 4.886 3.857 8.572 8.829 8.657 5.057 0 8.828-3.771 8.828-8.657S13.8.086 8.83.086zm135.771 14.4L142.543 12c-1.457 1.457-3.086 1.971-4.714 1.971-1.458 0-2.572-.257-3.515-.857-1.114-.685-1.885-1.971-1.971-3.343H145.2c.429-5.485-2.314-9.685-7.971-9.685-5.058 0-8.486 3.771-8.486 8.828 0 3.343 1.371 6.086 4.114 7.457 1.286.6 2.743.943 4.8.943 2.143 0 4.8-.6 6.943-2.828zM50.743 16.8h-4.629l-5.485-6.6H39v6.514h-3.514V.343H39v6.343h1.629L46.114.343h4.543l-7.2 7.971 7.286 8.486zM18.257.429H33v3.257h-5.571V16.8h-3.6V3.686h-5.572V.429zM79.971 16.8c3.429 0 5.829-2.314 5.829-5.571 0-3.258-2.057-5.486-5.486-5.486h-4.028V.429H72.77V16.8h7.2zm7.886 0h3.514V.429h-3.514V16.8zM108.6.429H93.857v3.257h5.572V16.8h3.6V3.686h5.571V.429zm17.314 0V16.8H122.4V6.257L113.829 16.8H111V.429h3.514V10.97L123.086.43h2.828zm6.515 6.342h9.085c-.257-1.971-1.885-3.685-4.457-3.685-2.657 0-4.286 1.885-4.628 3.685zM13.971 8.657c0-3.086-2.142-5.314-5.142-5.314-2.915 0-5.143 2.228-5.143 5.314s2.143 5.314 5.143 5.314c2.914 0 5.142-2.228 5.142-5.314zM61.2 3.343c-3 0-4.971 2.314-4.971 5.228 0 2.915 1.971 5.229 4.971 5.229s4.886-2.229 4.886-5.229c.085-2.828-1.8-5.228-4.886-5.228zm21.086 7.886c0-1.458-1.029-2.486-2.4-2.486h-3.6V13.8h3.6c1.371 0 2.4-1.114 2.4-2.571z" transform="translate(46.371 10.371)" id="Shape" fill="#000"/></g></g></svg>