<svg width="16" height="16" xmlns:xlink="http://www.w3.org/1999/xlink" xmlns="http://www.w3.org/2000/svg"><defs><clipPath id="clip_1"><use xlink:href="#path_1"/></clipPath><path d="M7.999 0h.002q.196 0 .392.01.197.01.392.029.195.019.39.048.194.028.387.067.192.038.383.086.19.047.378.104.188.057.373.124.185.066.366.14.181.076.359.16t.35.177q.174.092.342.193.169.101.332.21.163.11.321.226.158.117.31.242.151.124.297.256.145.132.284.27.139.14.27.285.133.146.257.297.125.152.242.31.117.158.226.321t.21.332q.1.168.194.341.092.173.176.351.084.178.16.359.074.181.14.366.067.185.124.373.057.188.104.378.048.19.086.383.039.193.067.387.03.195.048.39.02.195.03.392.009.196.009.392v.002q0 .196-.01.392-.01.197-.029.392-.019.195-.048.39-.028.194-.067.387-.038.192-.086.383-.047.19-.104.378-.057.188-.124.373-.066.185-.14.366-.076.181-.16.359t-.176.35q-.093.174-.194.342-.101.169-.21.332-.11.163-.226.321-.117.158-.242.31-.124.151-.256.297-.132.145-.27.284-.14.139-.285.27-.146.133-.297.257-.152.125-.31.242-.158.117-.321.226t-.332.21q-.168.1-.341.194-.174.092-.351.176-.178.084-.359.16-.181.074-.366.14-.185.067-.373.124-.188.057-.378.104-.19.048-.383.086-.193.039-.387.067-.195.03-.39.048-.195.02-.392.03-.196.009-.392.009h-.002q-.196 0-.392-.01-.197-.01-.392-.029-.195-.019-.39-.048-.194-.028-.387-.067-.192-.038-.383-.086-.19-.047-.378-.104-.188-.057-.373-.124-.185-.066-.366-.14-.181-.076-.359-.16t-.35-.176q-.174-.093-.342-.194-.169-.101-.332-.21-.163-.11-.321-.226-.158-.117-.31-.242-.151-.124-.297-.256-.145-.132-.284-.27-.139-.14-.27-.285-.133-.146-.257-.297-.125-.152-.242-.31-.117-.158-.226-.321t-.21-.332q-.1-.168-.193-.341-.093-.174-.177-.351-.084-.178-.16-.359-.074-.181-.14-.366-.067-.185-.124-.373-.057-.188-.104-.378-.048-.19-.086-.383-.039-.193-.067-.387-.03-.195-.048-.39-.02-.195-.03-.392Q0 8.197 0 8.001v-.002q0-.196.01-.392.01-.197.029-.392.019-.195.048-.39.028-.194.067-.387.038-.192.086-.383.047-.19.104-.378.057-.188.124-.373.066-.185.14-.366.076-.181.16-.359t.177-.35q.092-.174.193-.342.101-.169.21-.332.11-.163.226-.321.117-.158.242-.31.124-.151.256-.297.132-.145.27-.284.14-.139.285-.27.146-.133.297-.257.152-.125.31-.242.158-.117.321-.226t.332-.21q.168-.1.341-.193.173-.093.351-.177.178-.084.359-.16.181-.074.366-.14Q5.49.4 5.677.344q.188-.057.378-.104.19-.048.383-.086.193-.039.387-.067.195-.03.39-.048.195-.02.392-.03Q7.803 0 7.999 0z" id="path_1"/></defs><g id="Rectangle-3"><use fill="#FFF" xlink:href="#path_1" fill-rule="evenodd"/><g clip-path="url(#clip_1)"><use xlink:href="#path_1" fill="none" stroke="#A6A6A6" stroke-width="2"/></g></g><path d="M3.999 0h.002q.196 0 .392.02.195.019.388.057.193.038.38.095.189.057.37.132.182.076.355.168.173.093.337.202.163.11.315.234.152.124.29.263.14.14.264.291.125.152.234.315.11.164.202.337.092.173.168.355.075.181.132.37.057.187.095.38t.058.388Q8 3.803 8 3.999v.002q0 .196-.02.392-.019.195-.057.388-.038.193-.095.38-.057.189-.132.37-.076.182-.168.355-.093.173-.202.337-.11.163-.234.315-.124.152-.263.29-.14.14-.291.264-.152.125-.315.234-.164.11-.337.202-.173.092-.355.168-.181.075-.37.132-.187.057-.38.095t-.388.058Q4.197 8 4.001 8h-.002q-.196 0-.392-.02-.195-.019-.388-.057-.193-.038-.38-.095-.189-.057-.37-.132-.182-.076-.355-.168-.173-.093-.337-.202-.163-.11-.315-.234-.152-.124-.29-.263-.14-.14-.264-.291-.125-.152-.234-.315-.11-.164-.202-.337-.092-.173-.168-.355-.075-.181-.132-.37-.057-.187-.095-.38t-.058-.388Q0 4.197 0 4.001v-.002q0-.196.02-.392.019-.195.057-.388.038-.193.095-.38.057-.189.132-.37.076-.182.168-.355.093-.173.202-.337.11-.163.234-.315.124-.152.263-.29.14-.14.291-.264.152-.125.315-.234.164-.11.337-.202.173-.092.355-.168.181-.075.37-.132.187-.057.38-.095t.388-.058Q3.803 0 3.999 0z" transform="translate(4 4)" id="Rectangle-7" fill="#8C0014" fill-rule="evenodd" stroke="none"/></svg>