<svg width="29" height="24" xmlns:xlink="http://www.w3.org/1999/xlink" xmlns="http://www.w3.org/2000/svg"><path d="M1.837 17.917a1.56 1.56 0 01-.23-2.192L12.15 2.71a1.552 1.552 0 011.7-.496L4.034 14.331a2.82 2.82 0 00.417 3.964l4.96 4.018c-.56.53-1.437.576-2.048.08l-5.526-4.476zm8.934 3.876l-.064-.052-.49-.397-4.972-4.028a1.559 1.559 0 01-.231-2.19l9.881-12.197.397-.49.265-.327a1.55 1.55 0 011.96-.383l-.833 1.027-.396.49-.398.49-8.361 10.32a2.824 2.824 0 00.415 3.967l2.997 2.427.49.397.49.397.74.6a1.558 1.558 0 01-1.89-.051zm16-15.71A1.56 1.56 0 0127 8.277L16.456 21.29a1.558 1.558 0 01-1.961.381 1.249 1.249 0 01-.231-.152l-.276-.224-.49-.396-.784-.635-.49-.397-.49-.397-2.996-2.428a1.563 1.563 0 01-.23-2.192L16.87 4.53l.397-.49.397-.49.85-1.049.396-.49.141-.175c.09-.11.189-.204.299-.28a1.557 1.557 0 011.893.05l5.526 4.478zM18.34.756a2.824 2.824 0 00-3.663.443 2.827 2.827 0 00-3.507.72L.628 14.93a2.822 2.822 0 00.416 3.966l5.525 4.477c1.166.945 2.867.8 3.865-.3 1.052.557 2.36.39 3.237-.429a2.82 2.82 0 003.766-.561L27.98 9.07a2.822 2.822 0 00-.416-3.966L22.038.627a2.824 2.824 0 00-3.697.128z" id="Fill-1" fill="#000" fill-rule="evenodd" stroke="none"/></svg>