<svg width="32" height="32" xmlns="http://www.w3.org/2000/svg"><path d="M16 32c8.837 0 16-7.163 16-16S24.837 0 16 0 0 7.163 0 16s7.163 16 16 16z" fill="#FFF"/><path d="M23.544 8.459l-.001-.002q-.046-.046-.101-.083-.054-.036-.115-.061-.06-.025-.125-.038-.064-.013-.13-.013-.065 0-.13.013-.064.013-.125.038-.06.025-.115.061-.054.037-.1.083L16 15.057l-6.6-6.6q-.047-.046-.102-.083-.054-.036-.115-.061-.06-.025-.125-.038-.064-.013-.13-.013-.065 0-.13.013-.064.013-.124.038t-.115.061q-.055.037-.101.083l-.002.002q-.046.046-.083.1-.036.055-.061.116-.025.06-.038.124-.013.065-.013.13 0 .066.013.13.013.065.038.125t.061.115q.037.055.083.101l6.6 6.6-6.6 6.602q-.046.046-.083.1-.036.055-.061.116-.025.06-.038.124-.013.065-.013.13 0 .066.013.13t.038.125q.025.06.061.115.037.055.083.1l.002.002q.046.047.1.083.055.037.116.062.06.025.124.038.065.012.13.012.066 0 .13-.012.065-.013.125-.038t.115-.062q.055-.036.101-.083l6.6-6.6 6.602 6.6q.046.047.1.083.055.037.116.062.06.025.124.038.065.012.13.012.066 0 .13-.012.064-.013.125-.038.06-.025.115-.062.055-.036.1-.083l.002-.001q.047-.046.083-.101.037-.054.062-.115.025-.06.038-.125.012-.064.012-.13 0-.065-.012-.13-.013-.064-.038-.124-.025-.061-.062-.116-.036-.054-.083-.1L16.944 16l6.6-6.6q.047-.047.083-.102.037-.054.062-.115.025-.06.038-.125.012-.064.012-.13 0-.065-.012-.13-.013-.064-.038-.124t-.062-.115q-.036-.055-.083-.101z" fill="#8C0014" fill-rule="evenodd"/></svg>