<svg width="24" height="24" xmlns="http://www.w3.org/2000/svg"><path d="M12 24c6.627 0 12-5.373 12-12S18.627 0 12 0 0 5.373 0 12s5.373 12 12 12z" fill="#8C0014"/><path d="M12.001 4h-.002q-.05 0-.097.01-.049.01-.094.028-.045.019-.086.046-.041.027-.076.062-.035.035-.062.076-.027.04-.046.086-.019.045-.028.094-.01.048-.01.097V11.5H4.499q-.05 0-.097.01-.049.01-.094.028-.045.019-.086.046-.041.027-.076.062-.035.035-.062.076-.027.04-.046.086-.019.045-.028.094-.01.048-.01.097v.002q0 .05.01.097.01.049.028.094.019.045.046.086.027.041.062.076.035.035.076.062.04.027.086.046.045.019.094.028.048.01.097.01H11.5v7.001q0 .05.01.097.01.049.028.094.019.045.046.086.027.041.062.076.035.035.076.062.04.027.086.046.045.019.094.028.048.01.097.01h.002q.05 0 .097-.01.049-.01.094-.028.045-.019.086-.046.041-.027.076-.062.035-.035.062-.076.027-.04.046-.086.019-.045.028-.094.01-.048.01-.097V12.5h7.001q.05 0 .097-.01.049-.01.094-.028.045-.019.086-.046.041-.027.076-.062.035-.035.062-.076.027-.04.046-.086.019-.045.028-.094.01-.048.01-.097v-.002q0-.05-.01-.097-.01-.049-.028-.094-.019-.045-.046-.086-.027-.041-.062-.076-.035-.035-.076-.062-.04-.027-.086-.046-.045-.019-.094-.028-.048-.01-.097-.01H12.5V4.499q0-.05-.01-.097-.01-.049-.028-.094-.019-.045-.046-.086-.027-.041-.062-.076-.035-.035-.076-.062-.04-.027-.086-.046-.045-.019-.094-.028Q12.05 4 12.001 4z" fill="#FFF" fill-rule="evenodd"/></svg>