<svg width="32" height="32" viewBox="0 0 32 32" xmlns:xlink="http://www.w3.org/1999/xlink" xmlns="http://www.w3.org/2000/svg"><g id="plus" stroke="none"><path d="M16 32c8.837 0 16-7.163 16-16S24.837 0 16 0 0 7.163 0 16s7.163 16 16 16z" id="Oval" fill="#FFF"/><path d="M10.668 0h-.002q-.065 0-.13.013-.064.013-.125.038-.06.025-.115.061-.054.037-.1.083-.047.046-.083.1-.037.055-.062.116-.025.06-.038.125-.012.064-.012.13V10H.665q-.066 0-.13.012-.064.013-.125.038-.06.025-.115.062-.055.036-.101.082-.046.047-.083.101-.036.055-.061.115-.025.061-.038.125-.013.065-.013.13v.002q0 .066.013.13t.038.125q.025.06.061.115.037.055.083.1.046.047.1.084.055.036.116.061.06.025.125.038.064.013.13.013H10v9.335q0 .065.012.13.013.064.038.125.025.06.062.114.036.055.082.101.047.047.101.083.055.037.115.062.061.025.125.038.065.012.13.012h.002q.066 0 .13-.012.064-.013.125-.038.06-.025.115-.062.055-.036.1-.083.047-.046.084-.1.036-.055.061-.116.025-.06.038-.124.013-.065.013-.13v-9.335h9.335q.065 0 .13-.013.064-.013.125-.038.06-.025.114-.061.055-.037.101-.083.047-.046.083-.101.037-.055.062-.115.025-.06.038-.125.012-.064.012-.13v-.002q0-.065-.012-.13-.013-.064-.038-.125-.025-.06-.062-.115-.036-.054-.083-.1-.046-.047-.1-.083-.055-.037-.116-.062-.06-.025-.124-.038-.065-.012-.13-.012h-9.335V.665q0-.066-.013-.13T11.283.41q-.025-.06-.061-.115-.037-.055-.083-.101-.046-.046-.101-.083-.055-.036-.115-.061-.06-.025-.125-.038Q10.734 0 10.668 0z" transform="rotate(45 6.896 19.772)" id="Combined-Shape" fill="#8C0014" fill-rule="evenodd"/></g></svg>