<svg width="40" height="40" viewBox="0 0 40 40" xmlns:xlink="http://www.w3.org/1999/xlink" xmlns="http://www.w3.org/2000/svg"><g id="hit" stroke="none"><path d="M20 40c11.046 0 20-8.954 20-20S31.046 0 20 0 0 8.954 0 20s8.954 20 20 20z" id="Oval" fill="#8C0014"/><path d="M4.105 8.696c-1.215 0-2.202-.417-2.963-1.251C.38 6.61 0 5.578 0 4.348S.389 2.085 1.166 1.25C1.943.417 2.939 0 4.154 0c1.214 0 2.202.417 2.963 1.25.76.835 1.141 1.867 1.141 3.098 0 1.214-.388 2.243-1.165 3.085-.778.842-1.774 1.263-2.988 1.263zM14.112.194h2.89L4.592 17.197H1.7L14.111.194zM4.154 6.485c.485 0 .866-.206 1.141-.62.275-.412.413-.918.413-1.517 0-.583-.15-1.085-.45-1.506-.299-.421-.683-.632-1.153-.632-.486 0-.866.203-1.142.608-.275.404-.413.914-.413 1.53 0 .583.15 1.085.45 1.506.3.42.684.631 1.154.631zm7.432 9.655c.761.834 1.749 1.251 2.963 1.251 1.215 0 2.21-.42 2.988-1.263.777-.842 1.166-1.87 1.166-3.085 0-1.23-.38-2.262-1.142-3.096-.76-.834-1.748-1.251-2.963-1.251s-2.21.417-2.988 1.25c-.777.835-1.165 1.867-1.165 3.098 0 1.23.38 2.262 1.141 3.096zm4.154-1.578c-.276.413-.656.619-1.142.619-.47 0-.854-.21-1.154-.632-.3-.42-.45-.923-.45-1.505 0-.616.139-1.126.414-1.53a1.307 1.307 0 011.141-.608c.47 0 .855.21 1.154.631.3.421.45.923.45 1.506 0 .6-.138 1.106-.413 1.519z" transform="translate(10.435 11.304)" id="%" fill="#FFF" fill-rule="evenodd"/></g></svg>