<svg width="40" height="40" xmlns="http://www.w3.org/2000/svg"><path d="M20 40c11.046 0 20-8.954 20-20S31.046 0 20 0 0 8.954 0 20s8.954 20 20 20z" fill="#8C0014"/><path d="M14.54 20c-1.215 0-2.203-.417-2.964-1.25-.76-.835-1.141-1.867-1.141-3.098 0-1.23.388-2.263 1.166-3.097.777-.834 1.773-1.25 2.987-1.25 1.215 0 2.203.416 2.964 1.25.76.834 1.141 1.866 1.141 3.097 0 1.215-.388 2.243-1.166 3.085C16.75 19.579 15.754 20 14.54 20zm10.007-8.501h2.89L15.026 28.5h-2.89l12.41-17zm-9.959 6.29c.486 0 .867-.206 1.142-.619.275-.413.413-.919.413-1.518 0-.583-.15-1.085-.45-1.506-.3-.42-.684-.631-1.153-.631-.486 0-.867.202-1.142.607-.275.405-.413.915-.413 1.53 0 .583.15 1.085.45 1.506.3.421.684.632 1.153.632zm7.433 9.656c.761.834 1.749 1.25 2.963 1.25 1.215 0 2.21-.42 2.988-1.262.777-.842 1.166-1.87 1.166-3.085 0-1.23-.38-2.263-1.142-3.097-.76-.834-1.749-1.251-2.963-1.251-1.215 0-2.21.417-2.988 1.25-.777.835-1.166 1.867-1.166 3.098 0 1.23.38 2.263 1.142 3.097zm4.153-1.58c-.275.414-.655.62-1.141.62-.47 0-.854-.21-1.154-.631-.3-.421-.45-.923-.45-1.506 0-.616.138-1.126.414-1.53a1.307 1.307 0 011.141-.608c.47 0 .854.21 1.154.632.3.42.45.923.45 1.506 0 .599-.138 1.105-.414 1.518z" fill="#FFF" fill-rule="evenodd"/></svg>