<svg width="40" height="40" xmlns="http://www.w3.org/2000/svg"><path d="M30 10h3.75c.691 0 1.25.56 1.25 1.25v5c0 .69-.559 1.25-1.25 1.25H32.5v13.75c0 .69-.559 1.25-1.25 1.25h-10V40h-2.5v-7.5h-10a1.25 1.25 0 01-1.25-1.25V17.5H6.25A1.25 1.25 0 015 16.25v-5c0-.69.559-1.25 1.25-1.25H10V1.25C10 .56 10.559 0 11.25 0H15c.691 0 1.25.56 1.25 1.25V10h7.5V1.25C23.75.56 24.309 0 25 0h3.75C29.441 0 30 .56 30 1.25V10zm-16.25 0H12.5V2.5h1.25V10zm12.5 0h1.25V2.5h-1.25V10zm6.25 5h-25v-2.5h25V15zM10 30h20V17.5H10V30z" fill="#8C0014" fill-rule="evenodd"/><path d="M13.75 22.5h12.5V20h-12.5v2.5zm0 5h12.5V25h-12.5v2.5z" fill="#A6A6A6"/></svg>