<svg width="40" height="40" xmlns="http://www.w3.org/2000/svg"><path d="M38.75 1.667H1.25c-.69 0-1.25.56-1.25 1.25v27.5c0 .69.56 1.25 1.25 1.25H17.5v-2.5h-15v-25h35v25H35v2.5h3.75c.69 0 1.25-.56 1.25-1.25v-27.5c0-.69-.56-1.25-1.25-1.25" fill="#8C0014"/><path d="M18.75 21.67c0-4.137 3.364-7.5 7.5-7.5s7.5 3.363 7.5 7.5c0 1.528-.461 2.95-1.25 4.137v12.11a1.252 1.252 0 01-2 1l-4.25-3.188L22 38.917a1.252 1.252 0 01-2-1v-12.11a7.452 7.452 0 01-1.25-4.138zm7.5 5c-2.758 0-5-2.243-5-5 0-2.758 2.242-5 5-5s5 2.242 5 5c0 2.757-2.242 5-5 5zM30 35.416l-3-2.25a1.249 1.249 0 00-1.5 0l-3 2.25v-7.263a7.447 7.447 0 003.75 1.015A7.447 7.447 0 0030 28.154v7.263z" fill="#8C0014" fill-rule="evenodd"/><path d="M5 9.167h10v-2.5H5v2.5zm0 5h2.5v-2.5H5v2.5zm5 0h2.5v-2.5H10v2.5zm-5 6.25h10v-2.5H5v2.5zm0 5h10v-2.5H5v2.5zm27.5-16.25H35v-2.5h-2.5v2.5zm-5 0H30v-2.5h-2.5v2.5z" fill="#A6A6A6"/></svg>