<svg xmlns="http://www.w3.org/2000/svg" width="40" height="40" viewBox="0 0 40 40"><path fill="#8C0014" d="M30.765 21.167V3.215H3.97v33.493h12.325c.884 0 1.608.724 1.608 1.608 0 .884-.724 1.607-1.608 1.607H2.363a1.612 1.612 0 01-1.608-1.607V1.608C.755.723 1.48 0 2.363 0h30.01c.884 0 1.607.723 1.607 1.608v19.56c0 .884-.723 1.607-1.608 1.607a1.612 1.612 0 01-1.607-1.608zm8.28 3.912a1.611 1.611 0 00-2.278.134L27.95 35.02l-4.42-4.26a1.61 1.61 0 00-2.278.053 1.61 1.61 0 00.053 2.278l5.627 5.412a1.58 1.58 0 001.126.456h.053c.429-.027.858-.214 1.126-.536l9.913-11.04c.617-.696.563-1.714-.107-2.304zM24.87 9.378H10.401c-.884 0-1.607.723-1.607 1.608 0 .884.723 1.607 1.607 1.607h14.47c.883 0 1.607-.723 1.607-1.607 0-.885-.724-1.608-1.608-1.608zm1.608 10.45c0-.884-.724-1.608-1.608-1.608H10.401c-.884 0-1.607.724-1.607 1.608 0 .884.723 1.607 1.607 1.607h14.47c.883 0 1.607-.723 1.607-1.607zM10.4 26.794c-.884 0-1.607.724-1.607 1.608 0 .884.723 1.608 1.607 1.608h4.287c.885 0 1.608-.724 1.608-1.608 0-.884-.723-1.608-1.608-1.608H10.4z"/></svg>