<svg xmlns="http://www.w3.org/2000/svg" width="40" height="34"><path fill="#8C0014" d="M6.911.63a.833.833 0 011.178 0l1.423 1.422h11.321c.46 0 .834.373.834.834v2.5h2.5c.46 0 .833.372.833.833v4.167h8.334c1.378 0 2.5 1.121 2.5 2.5v.904A5.007 5.007 0 0140 18.719v10.833c0 .46-.373.834-.833.834H35.75a4.174 4.174 0 01-4.077 3.333h-5.006a.833.833 0 010-1.667h1.67a4.149 4.149 0 01-.753-1.666H12.416a4.173 4.173 0 01-4.077 3.332H3.333a.833.833 0 010-1.666h1.67a4.149 4.149 0 01-.753-1.667H.833A.833.833 0 010 29.552V6.22c0-.46.373-.834.833-.834h1.322zm1.422 26.422a2.503 2.503 0 00-2.5 2.5c0 1.379 1.122 2.5 2.5 2.5 1.379 0 2.5-1.121 2.5-2.5s-1.121-2.5-2.5-2.5zm23.336 0a2.505 2.505 0 00-2.502 2.5c0 1.379 1.122 2.5 2.5 2.5a2.503 2.503 0 002.5-2.497 2.504 2.504 0 00-2.498-2.503zm-8.336-20H1.667v3.334h10a.833.833 0 110 1.666h-10v1.667H5a.833.833 0 010 1.667H1.667v13.333H4.25a4.174 4.174 0 014.083-3.334 4.174 4.174 0 014.083 3.334h10.917v-1.667h-5.667a.833.833 0 110-1.666h5.667V7.052zm5.003 20H25v1.667h2.584a4.147 4.147 0 01.752-1.667zm4.998-15H25v13.334h6.664a4.174 4.174 0 014.086 3.333h2.583v-5.833h-10a.833.833 0 01-.833-.834v-7.5c0-.46.374-.833.834-.833h5.833v-.833a.834.834 0 00-.833-.834zM14.926 25.385a.833.833 0 010 1.667h-.52a.833.833 0 010-1.667zm15.908-10h-1.667v5.834h1.667v-5.833zm4.166 0h-2.5v5.834h5.833v-2.5A3.337 3.337 0 0035 15.386zm-20.074-5a.833.833 0 010 1.667h-.52a.833.833 0 010-1.666zM20 3.72h-8.82l1.666 1.666H20V3.72zM7.5 2.397L4.512 5.385h5.977l-1.91-1.91h-.002L7.5 2.396z"/></svg>