<svg width="43" height="51" xmlns="http://www.w3.org/2000/svg"><path d="M6.711 23.352a1.67 1.67 0 003.29-.4c0-7.35.36-8-.64-8.83 2.28-13.87 21.9-13.77 24.28 0-1 .8-.64 1.48-.64 8.83a1.63 1.63 0 00.76 1.36c0 5.71-2.35 5.38-9.4 7.23a1.74 1.74 0 10.38 1.62c5.69-1.49 10.7-2 10.7-7.59v-1.16a1.64 1.64 0 00.84-1.07c5.49-.11 5.49-8.24 0-8.35a1.63 1.63 0 00-.79-1 12.43 12.43 0 00-1.17-6c-6.7-13.68-26.53-8.32-26.84 4.95a4.81 4.81 0 000 1 1.63 1.63 0 00-.79 1 4.18 4.18 0 000 8.35l.02.06z" fill="#8C0014"/><path d="M25.627 30.418l-.006.004h.01a.167.167 0 00-.004-.004zm6.154-13.446c0 5.367-2.538 10.924-6.154 13.446a3.43 3.43 0 00-5.767 1.164c-4.9-1.28-8.64-8.08-8.64-14.61 0-15.26 20.56-15.27 20.56 0zm9.99 26.03l1.07 3.1a2.92 2.92 0 01-.41 2.67 3 3 0 01-2.43 1.23H3a3 3 0 01-2.44-1.23 2.91 2.91 0 01-.4-2.67l1.07-3.1A15.17 15.17 0 0115 32.802a10.779 10.779 0 005.61 2.27 3.45 3.45 0 005.66-1.17 12.115 12.115 0 001.73-1.1 15.17 15.17 0 0113.77 10.2z" fill="#A6A6A6" fill-rule="evenodd"/></svg>