<svg width="40" height="40" xmlns="http://www.w3.org/2000/svg"><defs><filter id="a"><feColorMatrix in="SourceGraphic" values="0 0 0 0 0.54901963 0 0 0 0 0 0 0 0 0 0.078431375 0 0 0 1 0"/></filter></defs><g transform="translate(.667)" filter="url(#a)"><path d="M30.098 3.215v17.952c0 .885.724 1.608 1.608 1.608.884 0 1.607-.723 1.607-1.608V1.607C33.313.724 32.59 0 31.706 0H1.696A1.61 1.61 0 00.09 1.608v36.708c0 .884.723 1.607 1.607 1.607H15.63c.884 0 1.608-.723 1.608-1.607s-.724-1.608-1.608-1.608H3.304V3.215h26.794zM9.735 9.378h14.468c.885 0 1.608.723 1.608 1.608 0 .884-.723 1.607-1.608 1.607H9.735a1.612 1.612 0 01-1.608-1.607c0-.885.723-1.608 1.608-1.608zm16.076 10.45c0-.884-.723-1.608-1.608-1.608H9.735c-.885 0-1.608.724-1.608 1.608 0 .884.723 1.607 1.608 1.607h14.468c.885 0 1.608-.723 1.608-1.607zm12.567 5.251a1.611 1.611 0 00-2.278.134l-8.815 9.807-4.421-4.26a1.61 1.61 0 00-2.278.053 1.61 1.61 0 00.054 2.278l5.627 5.412a1.58 1.58 0 001.125.456h.054c.428-.027.857-.214 1.125-.536l9.914-11.04c.616-.696.562-1.714-.107-2.304zM8.127 28.402c0-.884.723-1.608 1.608-1.608h4.287c.884 0 1.607.724 1.607 1.608 0 .884-.723 1.608-1.607 1.608H9.735a1.612 1.612 0 01-1.608-1.608z" fill="#FFF" fill-rule="evenodd"/></g></svg>