<svg width="40" height="40" xmlns="http://www.w3.org/2000/svg"><defs><filter id="a"><feColorMatrix in="SourceGraphic" values="0 0 0 0 0.54901963 0 0 0 0 0 0 0 0 0 0.078431375 0 0 0 1 0"/></filter></defs><g transform="translate(0 3.333)" filter="url(#a)" fill="#FFF"><path d="M35.834 13.456v-.904c0-1.378-1.122-2.5-2.5-2.5H25V5.885a.833.833 0 00-.833-.833h-2.5v-2.5a.833.833 0 00-.834-.833H9.513L8.088.296a.833.833 0 00-1.178 0L2.155 5.052H.833A.833.833 0 000 5.885V29.22c0 .46.373.833.833.833H4.25c.126.616.388 1.182.752 1.667H3.333a.833.833 0 000 1.666H8.34a4.173 4.173 0 004.077-3.333h15.168c.126.616.387 1.182.752 1.667h-1.669a.833.833 0 000 1.667h5.006a4.173 4.173 0 004.077-3.334h3.417c.46 0 .833-.373.833-.833V18.385a5.007 5.007 0 00-4.166-4.929zM7.5 2.064L8.577 3.14l.002.001 1.91 1.91H4.511L7.5 2.064zM20 5.052V3.386h-8.82l1.665 1.666H20zm3.333 1.667v18.333h-5.667a.833.833 0 000 1.667h5.667v1.667H12.416a4.173 4.173 0 00-4.083-3.334 4.174 4.174 0 00-4.083 3.334H1.667V15.052H5a.833.833 0 100-1.667H1.667V11.72h10a.833.833 0 000-1.667h-10V6.72h21.666zM35.75 28.385h2.583v-5.833h-10a.833.833 0 01-.833-.833v-7.5c0-.46.374-.833.834-.833h5.833v-.834a.834.834 0 00-.833-.833H25v13.333h6.667a4.174 4.174 0 014.083 3.333zm-4.916-13.333v5.833h-1.667v-5.833h1.667zm1.667 5.833h5.832v-2.5A3.337 3.337 0 0035 15.052h-2.5v5.833zM5.833 29.22c0 1.378 1.122 2.5 2.5 2.5 1.379 0 2.5-1.122 2.5-2.5 0-1.379-1.121-2.5-2.5-2.5a2.503 2.503 0 00-2.5 2.5zm28.334.002a2.503 2.503 0 01-2.5 2.498 2.503 2.503 0 01-2.5-2.5 2.503 2.503 0 012.494-2.5h.008a2.503 2.503 0 012.498 2.497v.005zM25 28.385h2.584a4.147 4.147 0 01.752-1.666H25v1.666z" fill-rule="evenodd"/><path d="M14.406 26.719h.52a.833.833 0 000-1.667h-.52a.833.833 0 000 1.667zm0-15h.52a.833.833 0 000-1.667h-.52a.833.833 0 100 1.667z"/></g></svg>