<svg width="20" height="20" xmlns:xlink="http://www.w3.org/1999/xlink" xmlns="http://www.w3.org/2000/svg"><defs><path d="M3 0H2v2H0v1h2v2h1V3h2V2H3V0z" transform="translate(13 2)" id="a"/></defs><path d="M5.344 2.5H1.75V4h2.414l2.076 9.508h.01v.242H16v-.186l1.645-7.246.253-.818H5.991l-.427-1.959-.22-1.041zM15.99 7H6.32l1.147 5.25h7.332L15.99 7zM8.5 17.5a1.5 1.5 0 100-3 1.5 1.5 0 000 3zm5.25 0a1.5 1.5 0 100-3 1.5 1.5 0 000 3z" fill="#FFF" fill-rule="evenodd"/><g transform="translate(1 1)"><use xlink:href="#a" fill="none" stroke="#8C0014" stroke-width="2"/><use fill="#FFF" xlink:href="#a" fill-rule="evenodd"/></g></svg>