<svg width="106" height="34" xmlns:xlink="http://www.w3.org/1999/xlink" xmlns="http://www.w3.org/2000/svg"><defs><path d="M3 0H2v2H0v1h2v2h1V3h2V2H3V0z" transform="translate(13 2)" id="a"/></defs><path d="M2.999 0h100.002q.147 0 .294.014.147.015.291.044.145.028.286.071t.277.1q.136.056.266.125.13.07.252.151.123.082.237.176.113.093.218.197.104.105.197.218.094.114.176.237.081.122.151.252.069.13.126.266.056.136.099.277.043.141.071.286.029.144.044.291.014.147.014.294v28.002q0 .147-.014.294-.015.147-.044.291-.028.145-.071.286-.043.14-.099.277-.057.136-.126.266-.07.13-.151.252-.082.123-.176.236-.093.114-.197.219-.105.104-.218.197-.114.094-.237.176-.122.081-.252.15-.13.07-.266.127-.136.056-.277.099-.141.043-.286.071-.144.03-.291.044-.147.014-.294.014H2.999q-.147 0-.294-.014-.147-.015-.291-.044-.145-.028-.286-.071-.14-.043-.277-.1-.136-.056-.266-.125-.13-.07-.252-.151-.123-.082-.237-.176-.113-.093-.218-.197-.104-.105-.197-.218-.094-.114-.176-.237-.081-.122-.15-.252-.07-.13-.127-.266-.056-.136-.099-.277-.043-.141-.071-.286-.03-.144-.044-.291Q0 31.148 0 31.001V2.999q0-.147.014-.294.015-.147.044-.291.028-.145.071-.286.043-.14.1-.277.056-.136.125-.266.07-.13.151-.252.082-.123.176-.237Q.774.983.878.878q.105-.104.218-.197.114-.094.237-.176.122-.081.252-.15.13-.07.266-.127.136-.056.277-.099.141-.043.286-.071.144-.03.291-.044Q2.852 0 2.999 0z" fill="#8C0014"/><path d="M31.312 12.099V21.9h2.857q1.374 0 2.276-.779.903-.78.903-2.037 0-1.012-.595-1.644-.595-.632-1.586-.749v-.027q.793-.26 1.244-.875.451-.615.451-1.45 0-.997-.745-1.62-.745-.621-2.016-.621h-2.79zm1.148 4.204v-3.165h1.32q1.88 0 1.88 1.428 0 .828-.54 1.282-.54.455-1.484.455H32.46zm33.366 5.4v-1.1q.916.512 2.14.512 1.852 0 1.852-1.175 0-1.163-2.03-1.163h-.69v-.95h.656q1.784 0 1.784-1.107 0-.472-.41-.752t-1.121-.28q-1.019 0-2.044.512v-1.046q1.162-.424 2.133-.424 2.556 0 2.556 1.88 0 .609-.379 1.05-.38.44-1.063.584v.034q.78.062 1.251.527.472.465.472 1.176 0 .957-.773 1.524-.772.567-2.126.567-1.442 0-2.208-.369zm-12.92.362q-1.552 0-2.478-.98-.926-.982-.926-2.602 0-1.763.964-2.755.964-.99 2.604-.99 1.566 0 2.444.963.879.964.879 2.673 0 1.675-.947 2.683-.947 1.008-2.54 1.008zm6.399-1.175h.027q.738 1.175 2.099 1.175 1.483 0 2.338-1.056.854-1.056.854-2.813 0-1.579-.759-2.519-.759-.94-2.112-.94-1.593 0-2.42 1.395h-.027v-1.23h-1.121v10.22h1.12V20.89zM47.26 21.9h1.572l-3.5-3.623 3.247-3.377h-1.47l-2.939 3.206h-.027V14.9H43.02v7h1.122v-3.363h.027l3.09 3.363zm30.249 0h1.011v-7h-1.162l-3.322 4.84q-.273.479-.355.677V14.9h-1.026v7h1.162l3.234-4.757q.307-.534.458-.828V21.9zm9.092 0h-1.122v-3.178h-3.568V21.9h-1.12v-7h1.12v2.872h3.568V14.9h1.122v7zm4.62 1.122l3.22-8.122H93.28l-1.989 5.4q-.103.356-.137.52h-.04q-.11-.43-.144-.533L89.076 14.9h-1.244l2.734 6.987-.56 1.326q-.424 1.012-1.272 1.012-.3 0-.663-.123v1.004q.294.09.732.09 1.558 0 2.42-2.174zM52.989 15.68q-1.08 0-1.709.735-.629.734-.629 2.026 0 1.245.636 1.962.636.718 1.702.718 1.087 0 1.672-.704.584-.704.584-2.003 0-1.313-.584-2.023-.585-.711-1.672-.711zm6.317 3.363v-.978q0-1.025.594-1.705.595-.68 1.573-.68.923 0 1.463.663t.54 1.832q0 1.388-.578 2.167-.578.78-1.596.78-.868 0-1.432-.606-.564-.605-.564-1.473zM32.46 20.862v-3.527h1.32q2.365 0 2.365 1.736 0 .834-.558 1.313-.557.478-1.568.478H32.46z" fill="#FFF"/><path d="M12.37 9.5H8.776V11h2.414l2.077 9.508h.01v.242h9.75v-.186l1.644-7.246.253-.818H13.018l-.428-1.959-.22-1.041zM23.017 14h-9.672l1.147 5.25h7.333L23.017 14zm-7.49 10.5a1.5 1.5 0 100-3 1.5 1.5 0 000 3zm5.25 0a1.5 1.5 0 100-3 1.5 1.5 0 000 3z" fill="#FFF" fill-rule="evenodd"/><g transform="translate(8.026 8)"><use xlink:href="#a" fill="none" stroke="#8C0014" stroke-width="2"/><use fill="#FFF" xlink:href="#a" fill-rule="evenodd"/></g></svg>