<svg width="47" height="50" viewBox="0 0 47 50" xmlns:xlink="http://www.w3.org/1999/xlink" xmlns="http://www.w3.org/2000/svg"><g id="sposob-oplaty" stroke="none"><path d="M41.403 23.44L19.533 1.31a4.37 4.37 0 00-6.24 0l-12 12.12a4.57 4.57 0 000 6.37l2 2.06h4.58l-4.27-4.38a1.25 1.25 0 01-.34-.87 1.22 1.22 0 01.34-.85l1.58-1.55 7.5 7.65h7.21l-11.1-11.31 6.79-6.9a1.19 1.19 0 01.83-.36c.311-.003.61.12.83.34l21.87 22.13c.22.224.342.526.34.84a1.26 1.26 0 01-.38.84l-1.24 1.22v4.64l3.53-3.54a4.5 4.5 0 00.04-6.32z" transform="translate(4.317)" id="Path" fill="#A6A6A6"/><path d="M4.52 0h30.94a4.38 4.38 0 014.36 4.45v11.84H0V4.45A4.52 4.52 0 014.52 0zm4.07 11.35a3.18 3.18 0 002.22.91 3.25 3.25 0 000-6.5 3.18 3.18 0 00-2.22.91 3.17 3.17 0 00-2.22-.91 3.25 3.25 0 100 6.5 3.18 3.18 0 002.22-.91z" transform="translate(0 23.94)" id="Shape" fill="#8C0014" fill-rule="evenodd"/><path d="M0 .27a4.54 4.54 0 004.52 4.47h30.94A4.4 4.4 0 0039.82.26V0H0v.27z" transform="translate(0 45.26)" id="Path" fill="#8C0014"/></g></svg>