<svg width="55" height="50" xmlns="http://www.w3.org/2000/svg"><path d="M22.69 50H4.77A4.81 4.81 0 010 45.16V29a4.81 4.81 0 014.77-4.84h7.29v3.65h3.38v-3.65h7.24A4.81 4.81 0 0127.46 29v16.16A4.81 4.81 0 0122.69 50zM9.41 30.52L6 34.59h2.47v5.29h1.87v-5.29h2.43l-3.36-4.07zm5.28 4.07l3.36-4.07 3.38 4.07H19v5.29h-1.88v-5.29h-2.43zm5.71 10.26H7v-1.71h13.4v1.71z" fill="#8C0014" fill-rule="evenodd"/><path d="M28.62 23.16V11.49a2.3 2.3 0 114.59 0v9.88L39 22.95a2.34 2.34 0 011.62 2.86 2.31 2.31 0 01-2.22 1.73 2.003 2.003 0 01-.6-.08l-7.46-2a2.33 2.33 0 01-1.72-2.3z" fill="#8C0014"/><path d="M31.62 45.45c-.55 0-1.09 0-1.62-.06v-4.76c.52 0 1 .08 1.58.08 9.873-.072 17.821-8.127 17.76-18 .196-9.8-7.59-17.904-17.39-18.1-9.8-.196-17.904 7.59-18.1 17.39H9.28C9.56 9.836 19.453.094 31.62 0A22.55 22.55 0 0154 22.72a22.55 22.55 0 01-22.38 22.73z" fill="#A6A6A6"/></svg>