<svg width="50" height="50" xmlns="http://www.w3.org/2000/svg"><path d="M35.789 29.986a2.03 2.03 0 10-2.87-2.87l-2.35 2.35-17.72-17.65a2.48 2.48 0 00-.5-2.77l-6.2-6.25-5.14 5.14 6.24 6.24a2.45 2.45 0 001.74.72 2.54 2.54 0 001-.22l17.72 17.69-2.35 2.35a2.03 2.03 0 102.87 2.87l10.84 10.83a5.35 5.35 0 007.57-7.56l-10.85-10.87z" fill="#A6A6A6"/><path d="M47.499 8.964c.3 0 .588.12.8.332a5.29 5.29 0 01.55 6.8l-1.7 2.44a9.29 9.29 0 01-7.09 3.92l-5.4.29-4.24 4.24-7.57-7.57 4.24-4.23.29-5.41a9.29 9.29 0 013.92-7.09l2.44-1.7a5.3 5.3 0 016.81.55 1.13 1.13 0 010 1.6l-4.5 4.5a2 2 0 000 2.86l3.29 3.3a2 2 0 002.86 0l4.5-4.5c.212-.212.5-.332.8-.332zm-29.87 15.682l-16.21 16.21a5.35 5.35 0 007.56 7.56l16.22-16.21-7.57-7.56zm-12.08 21.87a2.22 2.22 0 110-4.44 2.22 2.22 0 010 4.44z" fill="#8C0014" fill-rule="evenodd"/></svg>