<svg width="57" height="19" xmlns="http://www.w3.org/2000/svg"><path d="M20.08 18.73L22.97.32h4.61L24.7 18.73h-4.62zM41.43.77A11.17 11.17 0 0037.3 0c-4.56 0-7.77 2.5-7.8 6.08 0 2.65 2.29 4.12 4 5 1.71.88 2.41 1.48 2.39 2.28 0 1.24-1.43 1.8-2.76 1.8a9.08 9.08 0 01-4.35-1l-.58-.29-.62 4.13a13.568 13.568 0 005.14 1c4.85 0 8-2.47 8-6.28 0-2.1-1.21-3.69-3.87-5-1.62-.85-2.6-1.42-2.59-2.28.01-.86.84-1.58 2.64-1.58a7.89 7.89 0 013.45.71l.42.21.66-4.01z" fill="#01549A"/><path d="M49.7.34h3.56L57 18.73h-4.25s-.42-2.12-.56-2.76h-5.91l-1 2.77h-4.85l6.85-16.88A2.27 2.27 0 0149.7.34zm-.29 6.72l-1.84 5.15h3.81l-1.07-5.32L50 5.3c-.2.7-.59 1.76-.59 1.76z" fill="#01549A" fill-rule="evenodd"/><path d="M16.21.34l-4.52 12.55-.48-2.55a14.05 14.05 0 00-6.38-7.73L9 18.71h4.87L21.1.34h-4.89z" fill="#01549A"/><path d="M7.51.33H.07L0 .71c5.79 1.52 9.62 5.21 11.22 9.63L9.6 1.88A1.94 1.94 0 007.51.33z" fill="#F7A707"/></svg>