<svg width="57" height="19" viewBox="0 0 57 19" xmlns:xlink="http://www.w3.org/1999/xlink" xmlns="http://www.w3.org/2000/svg"><g id="visa" stroke="none"><path d="M0 18.41L2.89 0H7.5L4.62 18.41H0z" transform="translate(20.08 .32)" id="Path" fill="#01549A"/><path d="M13.85.77A11.17 11.17 0 009.72 0c-4.56 0-7.77 2.5-7.8 6.08 0 2.65 2.29 4.12 4 5 1.71.88 2.41 1.48 2.39 2.28 0 1.24-1.43 1.8-2.76 1.8a9.08 9.08 0 01-4.35-1l-.58-.29L0 18a13.568 13.568 0 005.14 1c4.85 0 8-2.47 8-6.28 0-2.1-1.21-3.69-3.87-5-1.62-.85-2.6-1.42-2.59-2.28.01-.86.84-1.58 2.64-1.58a7.89 7.89 0 013.45.71l.42.21.66-4.01z" transform="translate(27.58)" id="Path" fill="#01549A"/><path d="M9.27.016h3.56l3.74 18.39h-4.25s-.42-2.12-.56-2.76H5.85l-1 2.77H0l6.85-16.88A2.27 2.27 0 019.27.016zm-.29 6.72l-1.84 5.15h3.81l-1.07-5.32-.31-1.59c-.2.7-.59 1.76-.59 1.76z" transform="translate(40.43 .323)" id="Shape" fill="#01549A" fill-rule="evenodd"/><path d="M11.38 0L6.86 12.55 6.38 10A14.05 14.05 0 000 2.27l4.17 16.1h4.87L16.27 0h-4.89z" transform="translate(4.83 .34)" id="Path" fill="#01549A"/><path d="M7.51.01H.07L0 .39c5.79 1.52 9.62 5.21 11.22 9.63L9.6 1.56A1.94 1.94 0 007.51.01z" transform="translate(0 .32)" id="Path" fill="#F7A707"/></g></svg>