<svg width="20" height="16" xmlns="http://www.w3.org/2000/svg"><path d="M19 1.138c.586.655.793 2.138.793 2.138S20 5.035 20 6.793v1.621c0 1.724-.207 3.483-.207 3.483s-.207 1.483-.793 2.138c-.759.827-1.621.862-2 .896-2.793.241-7 .241-7 .241s-5.207-.034-6.793-.207c-.448-.103-1.448-.068-2.207-.93-.586-.655-.793-2.138-.793-2.138S0 10.172 0 8.414v-1.62c0-1.759.207-3.518.207-3.518S.379 1.794 1 1.138C1.759.311 2.621.276 3 .242 5.793.035 10 0 10 0s4.207.035 7 .242c.379.034 1.241.034 2 .896zM7.586 11.587V4.104l6.551 3.828-6.55 3.655z" fill="#8C0014" fill-rule="evenodd"/></svg>