<svg width="40" height="40" xmlns:xlink="http://www.w3.org/1999/xlink" xmlns="http://www.w3.org/2000/svg"><defs><clipPath id="b"><use xlink:href="#a"/></clipPath><path d="M20 0c11.046 0 20 8.954 20 20s-8.954 20-20 20S0 31.046 0 20 8.954 0 20 0z" id="a"/></defs><path d="M20 0c11.046 0 20 8.954 20 20s-8.954 20-20 20S0 31.046 0 20 8.954 0 20 0z" fill="#FFF"/><g clip-path="url(#b)"><path d="M0 0h40v13.333H0V0z"/><path d="M0 13.333h40v13.334H0V13.333z" fill="#D80027"/><path d="M0 26.667h40V40H0V26.667z" fill="#FFDA44"/></g></svg>