<svg width="40" height="40" xmlns="http://www.w3.org/2000/svg"><path d="M20 1.176c10.396 0 18.824 8.428 18.824 18.824S30.396 38.824 20 38.824 1.176 30.396 1.176 20 9.604 1.176 20 1.176z" fill="#FFF"/><path d="M0 20c0 11.046 8.954 20 20 20a20 20 0 0020-20C40 8.954 31.046 0 20 0S0 8.954 0 20zm2.353 0c0-9.746 7.9-17.647 17.647-17.647A17.647 17.647 0 0137.647 20c0 9.746-7.9 17.647-17.647 17.647-9.746 0-17.647-7.9-17.647-17.647z" fill="#8C0014" fill-rule="evenodd"/><path d="M6.667 6.667h26.666v26.666H6.667V6.667z" fill="none"/><path d="M29.297 9.963c-.14-.128-.312-.223-.47-.333h-.244c-.06.028-.124.05-.181.085-1.086.64-2.176 1.275-3.255 1.927-.334.202-.371.608-.116.904.081.094.173.18.276.286l-4.047 4.03 1.698 1.684L27.02 14.5c.12.122.212.22.308.313.37.359.792.309 1.062-.131.615-1.005 1.228-2.01 1.839-3.017.218-.359.187-.601-.11-.897-.272-.27-.539-.545-.822-.804zM15.15 9.865c-.292-.095-.602-.134-.903-.2H13.6c-.218.041-.434.085-.652.121-.272.046-.484.166-.57.444-.089.283.035.494.228.686.508.503 1.016 1.004 1.516 1.515.556.567.507 1.391-.1 1.854-.42.322-1.063.334-1.463-.02-.438-.388-.842-.815-1.26-1.225-.159-.156-.31-.319-.473-.47-.39-.364-.923-.209-1.043.309-.067.286-.103.58-.153.87v.364c.027.186.046.373.083.556.321 1.57 1.235 2.652 2.728 3.223.86.328 1.749.286 2.63.073.186-.045.302-.008.438.128 2.133 2.14 4.27 4.277 6.415 6.406.144.143.177.266.13.456-.168.666-.221 1.344-.085 2.022a4.21 4.21 0 005.186 3.249c.514-.13.67-.66.304-1.048-.157-.167-.324-.324-.485-.487-.407-.413-.83-.812-1.215-1.245-.357-.403-.342-1.037-.014-1.459.467-.6 1.299-.643 1.865-.09.526.514 1.037 1.043 1.564 1.556.39.38.934.218 1.06-.306.146-.61.19-1.226.05-1.842-.364-1.626-1.333-2.718-2.927-3.23-.798-.256-1.611-.196-2.42-.013a4.818 4.818 0 00-.024.006c-.124.029-.233.054-.356-.07a2201.5 2201.5 0 00-6.526-6.522c-.102-.102-.117-.189-.08-.319.226-.787.26-1.584.026-2.372-.431-1.458-1.37-2.446-2.826-2.92zm-5.04 16.638c-.272.34-.387.745-.48 1.16v.565c.013.05.03.102.04.154.12.604.412 1.105.904 1.478 1 .76 2.315.665 3.226-.242 1.881-1.873 3.756-3.754 5.633-5.632a.573.573 0 00.06-.07l-3.415-3.419c-.01.01-.035.031-.058.055-1.883 1.882-3.765 3.764-5.646 5.647-.095.095-.18.2-.264.304zm3.168 1.194c-.141.141-.29.26-.421.256-.329-.003-.512-.112-.623-.326a.571.571 0 01.045-.628 1.19 1.19 0 01.134-.15c1.173-1.174 2.347-2.347 3.519-3.522.186-.187.392-.303.666-.225.4.115.57.58.331.922-.041.06-.094.114-.146.166l-3.505 3.507z" fill="#8C0014" fill-rule="evenodd"/></svg>