<svg width="40" height="40" xmlns="http://www.w3.org/2000/svg"><path d="M20 1.176c10.396 0 18.824 8.428 18.824 18.824S30.396 38.824 20 38.824 1.176 30.396 1.176 20 9.604 1.176 20 1.176z" fill="#FFF"/><path d="M0 20c0 11.046 8.954 20 20 20a20 20 0 0020-20C40 8.954 31.046 0 20 0S0 8.954 0 20zm2.353 0c0-9.746 7.9-17.647 17.647-17.647A17.647 17.647 0 0137.647 20c0 9.746-7.9 17.647-17.647 17.647-9.746 0-17.647-7.9-17.647-17.647z" fill="#8C0014" fill-rule="evenodd"/><path d="M6.667 6.667h26.666v26.666H6.667V6.667z" fill="none"/><path d="M7.602 10.81v11.741c0 .218.17.394.38.394h12.863c.21 0 .38-.176.38-.393V10.81c0-.652-.51-1.181-1.141-1.181H8.744c-.63 0-1.142.529-1.142 1.18zm25.731 13.707v1.195c0 .217-.17.394-.38.394h-3.08c-.221-1.564-1.522-2.77-3.093-2.77s-2.872 1.206-3.092 2.77h-6.204a3.264 3.264 0 00-1.053-1.983h5.882V12.86c0-.434.341-.787.761-.787h3.593c1.011 0 1.957.52 2.523 1.387l2.316 3.55c.34.52.52 1.134.52 1.763v5.35h.927c.21 0 .38.177.38.394zm-5.712-10.14l1.852 2.724c.178.26-.003.62-.311.62h-4.74a.387.387 0 01-.381-.394v-2.723c0-.217.17-.393.38-.393h2.89c.123 0 .239.062.31.167zM7.047 24.124h5.306a3.263 3.263 0 00-1.053 1.983H7.047a.387.387 0 01-.38-.394v-1.195c0-.217.17-.394.38-.394zm7.345 4.9c1.308 0 2.368-1.096 2.368-2.45 0-1.353-1.06-2.45-2.368-2.45-1.308 0-2.368 1.097-2.368 2.45 0 1.354 1.06 2.45 2.368 2.45zm14.756-2.45c0 1.354-1.06 2.45-2.368 2.45-1.308 0-2.368-1.096-2.368-2.45 0-1.353 1.06-2.45 2.368-2.45 1.308 0 2.368 1.097 2.368 2.45zm-13.572 0c0-.676-.53-1.225-1.184-1.225-.654 0-1.184.549-1.184 1.226 0 .676.53 1.225 1.184 1.225.654 0 1.184-.549 1.184-1.225zm11.204-1.225c.654 0 1.184.549 1.184 1.226 0 .676-.53 1.225-1.184 1.225-.654 0-1.184-.549-1.184-1.225 0-.677.53-1.226 1.184-1.226z" fill="#8C0014" fill-rule="evenodd"/></svg>