<svg width="40" height="40" viewBox="0 0 40 40" xmlns:xlink="http://www.w3.org/1999/xlink" xmlns="http://www.w3.org/2000/svg"><g id="warranty-copy" stroke="none"><path d="M18.823 0C29.22 0 37.648 8.428 37.648 18.823c0 10.396-8.427 18.824-18.823 18.824S0 29.22 0 18.824 8.428 0 18.823 0z" transform="translate(1.176 1.176)" id="Path" fill="#FFF"/><path d="M0 20c0 11.046 8.954 20 20 20a20 20 0 0020-20C40 8.954 31.046 0 20 0S0 8.954 0 20zm2.353 0c0-9.746 7.9-17.647 17.647-17.647A17.647 17.647 0 0137.647 20c0 9.746-7.9 17.647-17.647 17.647-9.746 0-17.647-7.9-17.647-17.647z" id="Shape" fill="#8C0014" fill-rule="evenodd"/><path d="M20 13.379c0 1.978-1.495 4.592-3.265 5.708L10 23.333l-6.735-4.246c-.97-.611-1.889-1.683-2.52-2.938C.266 15.19 0 14.207 0 13.379V4.528L10 0l2.586 1.175.003.001L20 4.541v8.838zM8.252 14.748c.123.11.287.172.458.172a.682.682 0 00.458-.173l5.799-5.233.011-.01a.575.575 0 000-.858.694.694 0 00-.927 0l-5.341 4.82-2.76-2.492c-.003-.001-.004-.003-.006-.005a.694.694 0 00-.927.016.575.575 0 00.016.858l3.219 2.905z" transform="translate(10 8.333)" id="Fill-1" fill="#8C0014" fill-rule="evenodd"/></g></svg>