<svg width="40" height="40" viewBox="0 0 40 40" xmlns:xlink="http://www.w3.org/1999/xlink" xmlns="http://www.w3.org/2000/svg"><defs><clipPath id="mask_1"><use xlink:href="#path_1"/></clipPath><path d="M20 0c11.046 0 20 8.954 20 20s-8.954 20-20 20S0 31.046 0 20 8.954 0 20 0z" id="path_1"/></defs><g id="flag"><g id="flag" stroke="none"><path d="M20 0c11.046 0 20 8.954 20 20s-8.954 20-20 20S0 31.046 0 20 8.954 0 20 0z" id="Path" fill="#FFF"/><g clip-path="url(#mask_1)"><path d="M0 0h40v13.333H0V0z" id="Rectangle" fill="#000"/><path d="M0 0h40v13.333H0V0z" transform="translate(0 13.333)" id="Rectangle" fill="#D80027"/><path d="M0 0h40v13.333H0V0z" transform="translate(0 26.667)" id="Rectangle" fill="#FFDA44"/></g></g></g></svg>