<?xml version="1.0" encoding="utf-8"?>
<svg width="40px" height="40px" viewBox="0 0 40 40" version="1.1" xmlns:xlink="http://www.w3.org/1999/xlink" xmlns="http://www.w3.org/2000/svg">
  <desc>Created with Lunacy</desc>
  <defs>
    <path d="M20 0C31.0457 5.55112e-16 40 8.9543 40 20C40 31.0457 31.0457 40 20 40C8.9543 40 1.38778e-15 31.0457 0 20C-1.38778e-15 8.9543 8.9543 1.94289e-15 20 0Z" id="path_1" />
    <clipPath id="mask_1">
      <use xlink:href="#path_1" />
    </clipPath>
  </defs>
  <g id="flag">
    <g id="flag">
      <path d="M20 0C31.0457 5.55112e-16 40 8.9543 40 20C40 31.0457 31.0457 40 20 40C8.9543 40 1.38778e-15 31.0457 0 20C-1.38778e-15 8.9543 8.9543 1.94289e-15 20 0Z" id="Path" fill="#FFFFFF" stroke="none" />
      <g clip-path="url(#mask_1)">
        <path d="M0 0L40 0L40 13.3333L0 13.3333L0 0Z" id="Rectangle" fill="#000000" stroke="none" />
        <path d="M0 0L40 0L40 13.3333L0 13.3333L0 0Z" transform="translate(0 13.333333)" id="Rectangle" fill="#D80027" stroke="none" />
        <path d="M0 0L40 0L40 13.3333L0 13.3333L0 0Z" transform="translate(0 26.666666)" id="Rectangle" fill="#FFDA44" stroke="none" />
      </g>
    </g>
  </g>
</svg>