<svg width="40" height="40" viewBox="0 0 40 40" xmlns:xlink="http://www.w3.org/1999/xlink" xmlns="http://www.w3.org/2000/svg"><g id="tools"><path d="M18.823 0C29.22 0 37.648 8.428 37.648 18.823c0 10.396-8.427 18.824-18.823 18.824S0 29.22 0 18.824 8.428 0 18.823 0z" transform="translate(1.176 1.176)" id="Path" fill="#FFF" stroke="none"/><path d="M0 20c0 11.046 8.954 20 20 20a20 20 0 0020-20C40 8.954 31.046 0 20 0S0 8.954 0 20zm2.353 0c0-9.746 7.9-17.647 17.647-17.647A17.647 17.647 0 0137.647 20c0 9.746-7.9 17.647-17.647 17.647-9.746 0-17.647-7.9-17.647-17.647z" id="Shape" fill="#8C0014" fill-rule="evenodd" stroke="none"/><g id="tools" transform="translate(6.667 6.667)"><g id="tools" stroke="none"><path d="M0 0h26.667v26.667H0V0z" id="Rectangle-4" fill="none"/><path d="M19.667.334c-.14-.129-.312-.224-.47-.334h-.243c-.061.028-.125.051-.182.085-1.086.64-2.175 1.275-3.254 1.927-.335.202-.372.608-.117.904.082.094.173.18.276.287l-4.047 4.03c.542.536 1.103 1.093 1.698 1.684l4.063-4.048c.12.123.211.22.307.313.371.36.793.31 1.062-.13.615-1.005 1.228-2.011 1.84-3.018.217-.358.186-.601-.11-.897-.272-.27-.54-.545-.823-.803zM5.522.235C5.23.14 4.92.101 4.618.036H3.97c-.217.04-.434.084-.652.12-.272.046-.483.166-.57.445-.089.282.036.493.229.685.507.503 1.016 1.005 1.515 1.515.556.568.507 1.391-.1 1.855-.42.321-1.063.333-1.462-.02-.438-.389-.842-.815-1.26-1.226-.16-.156-.311-.318-.474-.47-.39-.363-.922-.209-1.043.31-.066.286-.103.58-.153.87v.364c.027.185.046.372.083.556.321 1.57 1.235 2.651 2.729 3.222.859.329 1.748.287 2.63.074.186-.045.302-.009.438.128 2.133 2.14 4.27 4.276 6.414 6.406.144.143.177.265.13.455-.167.667-.221 1.345-.084 2.022a4.21 4.21 0 005.185 3.25c.514-.131.67-.66.305-1.049-.157-.166-.325-.324-.486-.487-.407-.413-.83-.812-1.214-1.245-.357-.402-.343-1.036-.015-1.458.467-.6 1.3-.644 1.866-.09.525.514 1.037 1.042 1.563 1.555.39.38.934.218 1.06-.306.147-.61.19-1.226.051-1.842-.364-1.625-1.334-2.718-2.927-3.23-.8-.255-1.612-.196-2.42-.013a4.818 4.818 0 00-.025.006c-.123.029-.232.054-.355-.07A2201.5 2201.5 0 008.4 5.846c-.102-.101-.117-.188-.08-.319.227-.787.26-1.584.027-2.371C7.916 1.697 6.977.709 5.522.236zM.48 16.874c-.272.34-.387.745-.48 1.16v.564c.014.051.03.102.04.154.12.604.413 1.105.904 1.478 1.001.76 2.315.665 3.226-.242 1.882-1.873 3.757-3.753 5.634-5.631a.817.817 0 00.06-.071L6.45 10.868c-.01.009-.035.03-.059.054-1.882 1.882-3.765 3.764-5.646 5.648-.094.094-.18.199-.264.304zm3.168 1.193c-.14.142-.29.261-.42.256-.33-.002-.513-.112-.624-.326a.571.571 0 01.046-.627 1.19 1.19 0 01.133-.15c1.173-1.175 2.347-2.348 3.519-3.523.187-.187.392-.303.667-.224.4.114.569.58.33.921-.041.06-.093.114-.145.166l-3.506 3.507z" transform="translate(2.963 2.963)" id="Combined-Shape" fill="#8C0014" fill-rule="evenodd"/></g></g></g></svg>