<svg width="40" height="40" viewBox="0 0 40 40" xmlns:xlink="http://www.w3.org/1999/xlink" xmlns="http://www.w3.org/2000/svg"><g id="truck"><path d="M18.823 0C29.22 0 37.648 8.428 37.648 18.823c0 10.396-8.427 18.824-18.823 18.824S0 29.22 0 18.824 8.428 0 18.823 0z" transform="translate(1.176 1.176)" id="Path" fill="#FFF" stroke="none"/><path d="M0 20c0 11.046 8.954 20 20 20a20 20 0 0020-20C40 8.954 31.046 0 20 0S0 8.954 0 20zm2.353 0c0-9.746 7.9-17.647 17.647-17.647A17.647 17.647 0 0137.647 20c0 9.746-7.9 17.647-17.647 17.647-9.746 0-17.647-7.9-17.647-17.647z" id="Shape" fill="#8C0014" fill-rule="evenodd" stroke="none"/><g id="delivery-truck" transform="translate(6.667 6.667)"><g id="delivery-truck" stroke="none"><path d="M0 0h26.667v26.667H0V0z" id="Rectangle-4" fill="none"/><path d="M.936 1.181v11.74c0 .218.17.395.38.395h12.862c.21 0 .38-.177.38-.394V1.182c0-.653-.51-1.182-1.14-1.182H2.077C1.446 0 .935.529.935 1.181zm25.73 13.706v1.195c0 .218-.17.394-.38.394h-3.08c-.221-1.564-1.522-2.77-3.093-2.77s-2.872 1.206-3.092 2.77h-6.204a3.264 3.264 0 00-1.052-1.982h5.882V3.23c0-.435.34-.788.76-.788H20c1.012 0 1.957.52 2.523 1.388l2.316 3.55c.34.52.521 1.134.521 1.762v5.35h.926c.21 0 .38.177.38.394zm-5.71-10.139l1.851 2.723c.178.261-.002.62-.31.62h-4.741a.387.387 0 01-.38-.393V4.975c0-.218.17-.394.38-.394h2.888c.124 0 .24.062.312.167zM.38 14.494h5.305a3.263 3.263 0 00-1.053 1.982H.381A.387.387 0 010 16.082v-1.195c0-.217.17-.393.38-.393zm7.344 4.9c1.308 0 2.368-1.097 2.368-2.45 0-1.353-1.06-2.45-2.368-2.45-1.307 0-2.367 1.097-2.367 2.45 0 1.353 1.06 2.45 2.367 2.45zm14.756-2.45c0 1.353-1.06 2.45-2.368 2.45-1.307 0-2.367-1.097-2.367-2.45 0-1.353 1.06-2.45 2.367-2.45 1.308 0 2.368 1.097 2.368 2.45zm-13.572 0c0-.677-.53-1.225-1.184-1.225-.654 0-1.184.548-1.184 1.225 0 .676.53 1.225 1.184 1.225.654 0 1.184-.549 1.184-1.225zm11.204-1.225c.654 0 1.184.548 1.184 1.225 0 .676-.53 1.225-1.184 1.225-.654 0-1.183-.549-1.183-1.225 0-.677.53-1.225 1.183-1.225z" transform="translate(0 2.963)" id="Shape" fill="#8C0014" fill-rule="evenodd"/></g></g></g></svg>