<svg width="40" height="40" xmlns="http://www.w3.org/2000/svg"><path d="M20 1.176c10.396 0 18.824 8.428 18.824 18.824S30.396 38.824 20 38.824 1.176 30.396 1.176 20 9.604 1.176 20 1.176z" fill="#FFF"/><path d="M0 20c0 11.046 8.954 20 20 20a20 20 0 0020-20C40 8.954 31.046 0 20 0S0 8.954 0 20zm2.353 0c0-9.746 7.9-17.647 17.647-17.647A17.647 17.647 0 0137.647 20c0 9.746-7.9 17.647-17.647 17.647-9.746 0-17.647-7.9-17.647-17.647z" fill="#8C0014" fill-rule="evenodd"/><path d="M30 21.712c0 1.979-1.495 4.593-3.265 5.708L20 31.667l-6.735-4.246c-.97-.612-1.889-1.683-2.52-2.94-.48-.957-.745-1.94-.745-2.769v-8.85l10-4.529 2.586 1.175.003.002L30 12.874v8.838zm-11.748 1.37c.123.11.287.172.458.171a.682.682 0 00.458-.173l5.799-5.232.011-.01a.575.575 0 000-.859.694.694 0 00-.927 0l-5.341 4.82-2.76-2.492-.006-.004a.694.694 0 00-.927.015.575.575 0 00.016.858l3.219 2.905z" fill="#8C0014" fill-rule="evenodd"/></svg>