<?xml version="1.0" encoding="utf-8"?>
<svg width="24px" height="24px" viewBox="0 0 24 24" version="1.1" xmlns:xlink="http://www.w3.org/1999/xlink" xmlns="http://www.w3.org/2000/svg">
  <desc>Created with Lunacy</desc>
  <defs>
    <path d="M12 0C18.6274 3.33067e-16 24 5.37258 24 12C24 18.6274 18.6274 24 12 24C5.37258 24 8.32667e-16 18.6274 0 12C-8.32667e-16 5.37258 5.37258 1.16573e-15 12 0Z" id="path_1" />
    <clipPath id="mask_1">
      <use xlink:href="#path_1" />
    </clipPath>
  </defs>
  <g id="flag">
    <path d="M12 0C18.6274 3.33067e-16 24 5.37258 24 12C24 18.6274 18.6274 24 12 24C5.37258 24 8.32667e-16 18.6274 0 12C-8.32667e-16 5.37258 5.37258 1.16573e-15 12 0Z" id="Path" fill="#FFFFFF" stroke="none" />
    <g clip-path="url(#mask_1)">
      <path d="M0 0L24 0L24 8L0 8L0 0Z" id="Rectangle" fill="#000000" stroke="none" />
      <path d="M0 0L24 0L24 8L0 8L0 0Z" transform="translate(0 8)" id="Rectangle" fill="#D80027" stroke="none" />
      <path d="M0 0L24 0L24 8L0 8L0 0Z" transform="translate(0 16)" id="Rectangle" fill="#FFDA44" stroke="none" />
    </g>
  </g>
</svg>