<svg xmlns="http://www.w3.org/2000/svg" width="24" height="24" viewBox="0 0 24 24">
  <g fill="none" fill-rule="evenodd">
    <path fill="#FFF" d="M12,0.705882353 C18.2375689,0.705882353 23.2941176,5.76243106 23.2941176,12 C23.2941176,18.2375689 18.2375689,23.2941176 12,23.2941176 C5.76243106,23.2941176 0.705882353,18.2375689 0.705882353,12 C0.705882353,5.76243106 5.76243106,0.705882353 12,0.705882353 Z"/>
    <path fill="#8C0014" fill-rule="nonzero" d="M12,24 C5.372583,24 0,18.627417 0,12 C0,5.372583 5.372583,0 12,0 C18.627417,0 24,5.372583 24,12 C24,15.1825979 22.7357179,18.2348448 20.4852814,20.4852814 C18.2348448,22.7357179 15.1825979,24 12,24 Z M12,1.41176471 C6.15227912,1.41176471 1.41176471,6.15227912 1.41176471,12 C1.41176471,17.8477209 6.15227912,22.5882353 12,22.5882353 C17.8477209,22.5882353 22.5882353,17.8477209 22.5882353,12 C22.5882353,9.1918254 21.4726923,6.49866632 19.487013,4.51298702 C17.5013337,2.52730772 14.8081746,1.41176471 12,1.41176471 Z"/>
    <path fill="#8C0014" d="M11.2259482,13.9519515 C11.1233796,13.9521328 11.0247459,13.9151152 10.9512296,13.848787 L9.01993661,12.1057429 C8.86359165,11.9661076 8.85906656,11.7356882 9.0099683,11.5909554 C9.16087004,11.4462226 9.41001202,11.442096 9.56635698,11.5816706 C9.56740627,11.5826416 9.56845557,11.5835519 9.56943928,11.5844621 L11.2259482,13.0795489 L14.4305607,10.1873204 C14.5842824,10.0451363 14.8334244,10.0451363 14.9870806,10.1873811 C15.1406711,10.3295651 15.1406711,10.5600453 14.987015,10.70229 C14.9847196,10.7043533 14.9824243,10.7064772 14.9800634,10.7085405 L11.5006667,13.8481801 C11.4272817,13.9145691 11.3286479,13.9517081 11.2259482,13.9515867 L11.2259482,13.9519515 Z M16.0407695,16.452096 C17.1027872,15.7827448 18,14.2142904 18,13.027178 L18,7.72437484 L13.5536124,5.70570132 L13.5513827,5.70473037 L11.9998033,5 L6,7.71678926 L6,13.0274815 C6,13.5244277 6.15890261,14.1145249 6.44752432,14.6891474 C6.82586075,15.4426682 7.37693737,16.0853182 7.95923052,16.4524601 L12.0000656,19 L16.0407695,16.452096 Z"/>
  </g>
</svg>
