<svg width="24" height="24" viewBox="0 0 24 24" xmlns:xlink="http://www.w3.org/1999/xlink" xmlns="http://www.w3.org/2000/svg"><g id="hit_miele-_1_" stroke="none"><path d="M11.294 0c6.238 0 11.294 5.057 11.294 11.294 0 6.238-5.056 11.294-11.294 11.294C5.057 22.588 0 17.532 0 11.294 0 5.057 5.057 0 11.294 0z" transform="translate(.706 .706)" id="Path" fill="#FFF"/><path d="M0 12c0 6.627 5.373 12 12 12a12 12 0 0012-12c0-6.627-5.373-12-12-12S0 5.373 0 12zm1.412 0C1.412 6.152 6.152 1.412 12 1.412A10.588 10.588 0 0122.588 12c0 5.848-4.74 10.588-10.588 10.588-5.848 0-10.588-4.74-10.588-10.588z" id="Shape" fill="#8C0014" fill-rule="evenodd"/><path d="M8.688 5.4a2.026 2.026 0 011.412.46l.042.063c.508.473.508 1.377.508 1.977a3.529 3.529 0 01-.515 2.188 1.408 1.408 0 01-1.165.43h-.882a2.77 2.77 0 01-.339.05l-.318.042a.974.974 0 00-.38.268 1.75 1.75 0 01-.213.191l-.211.155a3.786 3.786 0 01-.706.445 3.79 3.79 0 01-1.003.226c-.162.021-.324.042-.48.078h-.282c-.269.039-.54.06-.812.063a2.64 2.64 0 01-.494-.042 1.165 1.165 0 01-.882-1.116 1.313 1.313 0 01-.706-.642 1.207 1.207 0 01-.148-.861 1.49 1.49 0 01-.65-1.553 1.13 1.13 0 01-.437-.755 1.412 1.412 0 01.345-1.229 2.435 2.435 0 011.412-.543l.198-.007.19-.05c.622-.148 1.066-.289 1.066-.804a3.127 3.127 0 00-.225-.996 3.226 3.226 0 01-.255-1.242 2.485 2.485 0 01.925-1.92c.215-.172.48-.269.755-.275.38-.017.72.233.82.6.067.253.086.516.056.776v.205c-.018.331.032.663.148.974.222.55.535 1.058.925 1.504l.183.225c.24.329.506.636.798.918.146.105.316.173.494.198a.791.791 0 01.148 0h.678zm-.31 3.735a.784.784 0 01-.827.65.882.882 0 00-.508.112 1.172 1.172 0 00-.466.318 1.27 1.27 0 01-.148.134l-.198.148a3.866 3.866 0 01-.586.41l-.374.084-.247.057a15.13 15.13 0 01-1.56.19 2.207 2.207 0 01-.522-.042.297.297 0 01-.219-.141.466.466 0 010-.402.318.318 0 000-.29.48.48 0 00-.381-.19h-.078c-.106 0-.211-.092-.29-.24a.593.593 0 01-.041-.516.332.332 0 00.035-.36.304.304 0 00-.247-.197.706.706 0 01-.473-.466.621.621 0 01.05-.501.501.501 0 00.049-.424.374.374 0 00-.254-.212.395.395 0 01-.318-.395.635.635 0 01.381-.607c.327-.14.676-.226 1.03-.254.2-.027.398-.065.594-.113a1.539 1.539 0 001.185-1.313 3.261 3.261 0 00-.24-1.257 3.402 3.402 0 01-.232-.988c.001-.357.091-.709.26-1.023.17-.269.452-.55.707-.55h.035c.141 0 .134.288.12.536v.063c-.043.371-.033.747.028 1.115.145.511.384.99.706 1.412l.19.282c.31.447.65.871 1.017 1.271a1.2 1.2 0 00.247.254c.017.04.05.07.092.085.237.185.52.305.819.346.233.05.437.084.536.26.173.404.245.842.212 1.279v.091c.023.458-.017.916-.12 1.363l.035.02zm1.503-1.25v-.162l.056-.014V7.68c0-.423 0-1.036-.29-1.284a1.12 1.12 0 00-.627-.233c.11.24.18.499.204.762a7.514 7.514 0 010 1.786 3.155 3.155 0 01-.254 1.03c.275 0 .48-.013.579-.168a3.07 3.07 0 00.332-1.688z" transform="translate(6.686 5.293)" id="Shape" fill="#8C0014" fill-rule="evenodd"/></g></svg>