<svg width="24" height="24" viewBox="0 0 24 24" xmlns:xlink="http://www.w3.org/1999/xlink" xmlns="http://www.w3.org/2000/svg"><defs><clipPath id="clip_1"><use xlink:href="#artboard_1" clip-rule="evenodd"/></clipPath><path id="artboard_1" d="M0 0h24v24H0z"/></defs><g id="tools" clip-path="url(#clip_1)"><path d="M11.294 0c6.238 0 11.294 5.057 11.294 11.294 0 6.238-5.056 11.294-11.294 11.294C5.057 22.588 0 17.532 0 11.294 0 5.057 5.057 0 11.294 0z" transform="translate(.706 .706)" id="Path" fill="#FFF" stroke="none"/><path d="M0 12c0 6.627 5.373 12 12 12a12 12 0 0012-12c0-6.627-5.373-12-12-12S0 5.373 0 12zm1.412 0C1.412 6.152 6.152 1.412 12 1.412A10.588 10.588 0 0122.588 12c0 5.848-4.74 10.588-10.588 10.588-5.848 0-10.588-4.74-10.588-10.588z" id="Shape" fill="#8C0014" fill-rule="evenodd" stroke="none"/><g id="tools" transform="translate(4 4)"><g id="tools" stroke="none"><path d="M0 0h16v16H0V0z" id="Rectangle-4" fill="none"/><path d="M11.8.2c-.084-.077-.187-.134-.282-.2h-.146c-.036.017-.075.03-.109.051-.652.384-1.305.765-1.952 1.156-.201.122-.223.365-.07.543.049.056.103.108.165.172L6.978 4.339l1.019 1.01 2.437-2.427c.072.073.127.132.185.187.223.216.475.186.637-.078.37-.603.737-1.207 1.104-1.81.13-.216.112-.361-.066-.539C12.13.52 11.97.355 11.8.2zM3.313.141c-.175-.057-.361-.08-.542-.12h-.389c-.13.025-.26.05-.391.073-.163.027-.29.1-.342.266-.053.17.021.297.137.412.304.301.61.602.91.909.333.34.303.834-.06 1.112-.253.193-.638.2-.878-.012-.263-.233-.505-.489-.756-.735-.095-.093-.187-.19-.284-.282-.234-.218-.554-.125-.626.186-.04.172-.062.348-.092.522v.218c.016.111.028.224.05.334.193.941.74 1.59 1.637 1.933.515.197 1.05.172 1.578.044.112-.027.181-.005.263.077a1072.71 1072.71 0 003.848 3.844c.087.086.107.159.078.273-.1.4-.132.807-.05 1.213a2.526 2.526 0 003.111 1.95c.309-.078.402-.396.183-.629-.095-.1-.195-.194-.292-.292-.244-.248-.498-.487-.728-.747-.215-.242-.206-.622-.009-.875.28-.36.78-.387 1.12-.054.315.308.622.625.938.933.234.228.56.13.636-.184.088-.366.113-.735.03-1.105-.219-.975-.8-1.63-1.756-1.937-.48-.154-.967-.119-1.452-.009l-.015.004c-.074.017-.14.032-.214-.042a1315.845 1315.845 0 00-3.915-3.913c-.061-.061-.07-.113-.048-.192.136-.472.155-.95.016-1.422C4.749 1.018 4.186.425 3.313.14zM.288 10.124c-.163.204-.232.447-.288.696v.339c.008.03.018.061.024.092.072.363.248.663.542.887.601.456 1.39.4 1.936-.145 1.13-1.124 2.254-2.252 3.38-3.379a.268.268 0 00.036-.043L3.87 6.521l-.035.032L.447 9.942c-.057.057-.109.12-.159.182zm1.901.716c-.085.085-.174.157-.253.154-.197-.002-.307-.067-.373-.196a.343.343 0 01.027-.376.72.72 0 01.08-.09l2.111-2.114c.112-.112.235-.182.4-.135a.36.36 0 01.199.554.753.753 0 01-.088.1L2.19 10.84z" transform="translate(1.778 1.778)" id="Combined-Shape" fill="#8C0014" fill-rule="evenodd"/></g></g></g></svg>